%TF.GenerationSoftware,KiCad,Pcbnew,9.0.1-9.0.1-0~ubuntu22.04.1*%
%TF.CreationDate,2025-05-27T19:15:10+02:00*%
%TF.ProjectId,kame32-pcb,6b616d65-3332-42d7-9063-622e6b696361,rev?*%
%TF.SameCoordinates,Original*%
%TF.FileFunction,Legend,Top*%
%TF.FilePolarity,Positive*%
%FSLAX46Y46*%
G04 Gerber Fmt 4.6, Leading zero omitted, Abs format (unit mm)*
G04 Created by KiCad (PCBNEW 9.0.1-9.0.1-0~ubuntu22.04.1) date 2025-05-27 19:15:10*
%MOMM*%
%LPD*%
G01*
G04 APERTURE LIST*
%ADD10C,0.300000*%
%ADD11C,0.200000*%
%ADD12C,0.100000*%
%ADD13C,0.150000*%
%ADD14C,0.120000*%
G04 APERTURE END LIST*
D10*
X155956000Y-49784000D02*
X155956000Y-41656000D01*
X155956000Y-49784000D02*
X150114000Y-49784000D01*
X155956000Y-41656000D02*
X150114000Y-41656000D01*
D11*
X183215000Y-46290600D02*
X183348334Y-46357266D01*
X183348334Y-46357266D02*
X183615000Y-46357266D01*
X183615000Y-46357266D02*
X183748334Y-46290600D01*
X183748334Y-46290600D02*
X183815000Y-46157266D01*
X183815000Y-46157266D02*
X183815000Y-46090600D01*
X183815000Y-46090600D02*
X183748334Y-45957266D01*
X183748334Y-45957266D02*
X183615000Y-45890600D01*
X183615000Y-45890600D02*
X183415000Y-45890600D01*
X183415000Y-45890600D02*
X183281667Y-45823933D01*
X183281667Y-45823933D02*
X183215000Y-45690600D01*
X183215000Y-45690600D02*
X183215000Y-45623933D01*
X183215000Y-45623933D02*
X183281667Y-45490600D01*
X183281667Y-45490600D02*
X183415000Y-45423933D01*
X183415000Y-45423933D02*
X183615000Y-45423933D01*
X183615000Y-45423933D02*
X183748334Y-45490600D01*
X185521667Y-45823933D02*
X186588334Y-45823933D01*
X186055000Y-46357266D02*
X186055000Y-45290600D01*
X153670733Y-43953333D02*
X152537400Y-43953333D01*
X152537400Y-43953333D02*
X152404066Y-44020000D01*
X152404066Y-44020000D02*
X152337400Y-44086666D01*
X152337400Y-44086666D02*
X152270733Y-44220000D01*
X152270733Y-44220000D02*
X152270733Y-44486666D01*
X152270733Y-44486666D02*
X152337400Y-44620000D01*
X152337400Y-44620000D02*
X152404066Y-44686666D01*
X152404066Y-44686666D02*
X152537400Y-44753333D01*
X152537400Y-44753333D02*
X153670733Y-44753333D01*
X152337400Y-45353333D02*
X152270733Y-45553333D01*
X152270733Y-45553333D02*
X152270733Y-45886667D01*
X152270733Y-45886667D02*
X152337400Y-46020000D01*
X152337400Y-46020000D02*
X152404066Y-46086667D01*
X152404066Y-46086667D02*
X152537400Y-46153333D01*
X152537400Y-46153333D02*
X152670733Y-46153333D01*
X152670733Y-46153333D02*
X152804066Y-46086667D01*
X152804066Y-46086667D02*
X152870733Y-46020000D01*
X152870733Y-46020000D02*
X152937400Y-45886667D01*
X152937400Y-45886667D02*
X153004066Y-45620000D01*
X153004066Y-45620000D02*
X153070733Y-45486667D01*
X153070733Y-45486667D02*
X153137400Y-45420000D01*
X153137400Y-45420000D02*
X153270733Y-45353333D01*
X153270733Y-45353333D02*
X153404066Y-45353333D01*
X153404066Y-45353333D02*
X153537400Y-45420000D01*
X153537400Y-45420000D02*
X153604066Y-45486667D01*
X153604066Y-45486667D02*
X153670733Y-45620000D01*
X153670733Y-45620000D02*
X153670733Y-45953333D01*
X153670733Y-45953333D02*
X153604066Y-46153333D01*
X153004066Y-47220000D02*
X152937400Y-47420000D01*
X152937400Y-47420000D02*
X152870733Y-47486666D01*
X152870733Y-47486666D02*
X152737400Y-47553333D01*
X152737400Y-47553333D02*
X152537400Y-47553333D01*
X152537400Y-47553333D02*
X152404066Y-47486666D01*
X152404066Y-47486666D02*
X152337400Y-47420000D01*
X152337400Y-47420000D02*
X152270733Y-47286666D01*
X152270733Y-47286666D02*
X152270733Y-46753333D01*
X152270733Y-46753333D02*
X153670733Y-46753333D01*
X153670733Y-46753333D02*
X153670733Y-47220000D01*
X153670733Y-47220000D02*
X153604066Y-47353333D01*
X153604066Y-47353333D02*
X153537400Y-47420000D01*
X153537400Y-47420000D02*
X153404066Y-47486666D01*
X153404066Y-47486666D02*
X153270733Y-47486666D01*
X153270733Y-47486666D02*
X153137400Y-47420000D01*
X153137400Y-47420000D02*
X153070733Y-47353333D01*
X153070733Y-47353333D02*
X153004066Y-47220000D01*
X153004066Y-47220000D02*
X153004066Y-46753333D01*
D10*
X157373100Y-34226571D02*
X157373100Y-35369429D01*
X156801671Y-34798000D02*
X157944528Y-34798000D01*
X154622571Y-34904900D02*
X155765429Y-34904900D01*
D11*
X188061667Y-45823933D02*
X189128334Y-45823933D01*
D12*
X196497066Y-43999315D02*
X196497066Y-43237411D01*
X196878019Y-43618363D02*
X196116114Y-43618363D01*
X195878019Y-42570744D02*
X195878019Y-42380268D01*
X195878019Y-42380268D02*
X195925638Y-42285030D01*
X195925638Y-42285030D02*
X196020876Y-42189792D01*
X196020876Y-42189792D02*
X196211352Y-42142173D01*
X196211352Y-42142173D02*
X196544685Y-42142173D01*
X196544685Y-42142173D02*
X196735161Y-42189792D01*
X196735161Y-42189792D02*
X196830400Y-42285030D01*
X196830400Y-42285030D02*
X196878019Y-42380268D01*
X196878019Y-42380268D02*
X196878019Y-42570744D01*
X196878019Y-42570744D02*
X196830400Y-42665982D01*
X196830400Y-42665982D02*
X196735161Y-42761220D01*
X196735161Y-42761220D02*
X196544685Y-42808839D01*
X196544685Y-42808839D02*
X196211352Y-42808839D01*
X196211352Y-42808839D02*
X196020876Y-42761220D01*
X196020876Y-42761220D02*
X195925638Y-42665982D01*
X195925638Y-42665982D02*
X195878019Y-42570744D01*
X195878019Y-41713601D02*
X196687542Y-41713601D01*
X196687542Y-41713601D02*
X196782780Y-41665982D01*
X196782780Y-41665982D02*
X196830400Y-41618363D01*
X196830400Y-41618363D02*
X196878019Y-41523125D01*
X196878019Y-41523125D02*
X196878019Y-41332649D01*
X196878019Y-41332649D02*
X196830400Y-41237411D01*
X196830400Y-41237411D02*
X196782780Y-41189792D01*
X196782780Y-41189792D02*
X196687542Y-41142173D01*
X196687542Y-41142173D02*
X195878019Y-41142173D01*
X195878019Y-40808839D02*
X195878019Y-40237411D01*
X196878019Y-40523125D02*
X195878019Y-40523125D01*
X190497066Y-43999315D02*
X190497066Y-43237411D01*
X189878019Y-42570744D02*
X189878019Y-42380268D01*
X189878019Y-42380268D02*
X189925638Y-42285030D01*
X189925638Y-42285030D02*
X190020876Y-42189792D01*
X190020876Y-42189792D02*
X190211352Y-42142173D01*
X190211352Y-42142173D02*
X190544685Y-42142173D01*
X190544685Y-42142173D02*
X190735161Y-42189792D01*
X190735161Y-42189792D02*
X190830400Y-42285030D01*
X190830400Y-42285030D02*
X190878019Y-42380268D01*
X190878019Y-42380268D02*
X190878019Y-42570744D01*
X190878019Y-42570744D02*
X190830400Y-42665982D01*
X190830400Y-42665982D02*
X190735161Y-42761220D01*
X190735161Y-42761220D02*
X190544685Y-42808839D01*
X190544685Y-42808839D02*
X190211352Y-42808839D01*
X190211352Y-42808839D02*
X190020876Y-42761220D01*
X190020876Y-42761220D02*
X189925638Y-42665982D01*
X189925638Y-42665982D02*
X189878019Y-42570744D01*
X189878019Y-41713601D02*
X190687542Y-41713601D01*
X190687542Y-41713601D02*
X190782780Y-41665982D01*
X190782780Y-41665982D02*
X190830400Y-41618363D01*
X190830400Y-41618363D02*
X190878019Y-41523125D01*
X190878019Y-41523125D02*
X190878019Y-41332649D01*
X190878019Y-41332649D02*
X190830400Y-41237411D01*
X190830400Y-41237411D02*
X190782780Y-41189792D01*
X190782780Y-41189792D02*
X190687542Y-41142173D01*
X190687542Y-41142173D02*
X189878019Y-41142173D01*
X189878019Y-40808839D02*
X189878019Y-40237411D01*
X190878019Y-40523125D02*
X189878019Y-40523125D01*
X196497066Y-50999315D02*
X196497066Y-50237411D01*
X196878019Y-50618363D02*
X196116114Y-50618363D01*
X196878019Y-49761220D02*
X195878019Y-49761220D01*
X196878019Y-49285030D02*
X195878019Y-49285030D01*
X195878019Y-49285030D02*
X196878019Y-48713602D01*
X196878019Y-48713602D02*
X195878019Y-48713602D01*
X190497066Y-50999315D02*
X190497066Y-50237411D01*
X190878019Y-49761220D02*
X189878019Y-49761220D01*
X190878019Y-49285030D02*
X189878019Y-49285030D01*
X189878019Y-49285030D02*
X190878019Y-48713602D01*
X190878019Y-48713602D02*
X189878019Y-48713602D01*
D13*
X163663333Y-53794819D02*
X163330000Y-53318628D01*
X163091905Y-53794819D02*
X163091905Y-52794819D01*
X163091905Y-52794819D02*
X163472857Y-52794819D01*
X163472857Y-52794819D02*
X163568095Y-52842438D01*
X163568095Y-52842438D02*
X163615714Y-52890057D01*
X163615714Y-52890057D02*
X163663333Y-52985295D01*
X163663333Y-52985295D02*
X163663333Y-53128152D01*
X163663333Y-53128152D02*
X163615714Y-53223390D01*
X163615714Y-53223390D02*
X163568095Y-53271009D01*
X163568095Y-53271009D02*
X163472857Y-53318628D01*
X163472857Y-53318628D02*
X163091905Y-53318628D01*
X164044286Y-52890057D02*
X164091905Y-52842438D01*
X164091905Y-52842438D02*
X164187143Y-52794819D01*
X164187143Y-52794819D02*
X164425238Y-52794819D01*
X164425238Y-52794819D02*
X164520476Y-52842438D01*
X164520476Y-52842438D02*
X164568095Y-52890057D01*
X164568095Y-52890057D02*
X164615714Y-52985295D01*
X164615714Y-52985295D02*
X164615714Y-53080533D01*
X164615714Y-53080533D02*
X164568095Y-53223390D01*
X164568095Y-53223390D02*
X163996667Y-53794819D01*
X163996667Y-53794819D02*
X164615714Y-53794819D01*
X163663333Y-51254819D02*
X163330000Y-50778628D01*
X163091905Y-51254819D02*
X163091905Y-50254819D01*
X163091905Y-50254819D02*
X163472857Y-50254819D01*
X163472857Y-50254819D02*
X163568095Y-50302438D01*
X163568095Y-50302438D02*
X163615714Y-50350057D01*
X163615714Y-50350057D02*
X163663333Y-50445295D01*
X163663333Y-50445295D02*
X163663333Y-50588152D01*
X163663333Y-50588152D02*
X163615714Y-50683390D01*
X163615714Y-50683390D02*
X163568095Y-50731009D01*
X163568095Y-50731009D02*
X163472857Y-50778628D01*
X163472857Y-50778628D02*
X163091905Y-50778628D01*
X164615714Y-51254819D02*
X164044286Y-51254819D01*
X164330000Y-51254819D02*
X164330000Y-50254819D01*
X164330000Y-50254819D02*
X164234762Y-50397676D01*
X164234762Y-50397676D02*
X164139524Y-50492914D01*
X164139524Y-50492914D02*
X164044286Y-50540533D01*
D12*
X203319866Y-50999315D02*
X203319866Y-50237411D01*
X203700819Y-49761220D02*
X202700819Y-49761220D01*
X203700819Y-49285030D02*
X202700819Y-49285030D01*
X202700819Y-49285030D02*
X203700819Y-48713602D01*
X203700819Y-48713602D02*
X202700819Y-48713602D01*
X209319866Y-50999315D02*
X209319866Y-50237411D01*
X209700819Y-50618363D02*
X208938914Y-50618363D01*
X209700819Y-49761220D02*
X208700819Y-49761220D01*
X209700819Y-49285030D02*
X208700819Y-49285030D01*
X208700819Y-49285030D02*
X209700819Y-48713602D01*
X209700819Y-48713602D02*
X208700819Y-48713602D01*
X203319866Y-43999315D02*
X203319866Y-43237411D01*
X202700819Y-42570744D02*
X202700819Y-42380268D01*
X202700819Y-42380268D02*
X202748438Y-42285030D01*
X202748438Y-42285030D02*
X202843676Y-42189792D01*
X202843676Y-42189792D02*
X203034152Y-42142173D01*
X203034152Y-42142173D02*
X203367485Y-42142173D01*
X203367485Y-42142173D02*
X203557961Y-42189792D01*
X203557961Y-42189792D02*
X203653200Y-42285030D01*
X203653200Y-42285030D02*
X203700819Y-42380268D01*
X203700819Y-42380268D02*
X203700819Y-42570744D01*
X203700819Y-42570744D02*
X203653200Y-42665982D01*
X203653200Y-42665982D02*
X203557961Y-42761220D01*
X203557961Y-42761220D02*
X203367485Y-42808839D01*
X203367485Y-42808839D02*
X203034152Y-42808839D01*
X203034152Y-42808839D02*
X202843676Y-42761220D01*
X202843676Y-42761220D02*
X202748438Y-42665982D01*
X202748438Y-42665982D02*
X202700819Y-42570744D01*
X202700819Y-41713601D02*
X203510342Y-41713601D01*
X203510342Y-41713601D02*
X203605580Y-41665982D01*
X203605580Y-41665982D02*
X203653200Y-41618363D01*
X203653200Y-41618363D02*
X203700819Y-41523125D01*
X203700819Y-41523125D02*
X203700819Y-41332649D01*
X203700819Y-41332649D02*
X203653200Y-41237411D01*
X203653200Y-41237411D02*
X203605580Y-41189792D01*
X203605580Y-41189792D02*
X203510342Y-41142173D01*
X203510342Y-41142173D02*
X202700819Y-41142173D01*
X202700819Y-40808839D02*
X202700819Y-40237411D01*
X203700819Y-40523125D02*
X202700819Y-40523125D01*
X209319866Y-43999315D02*
X209319866Y-43237411D01*
X209700819Y-43618363D02*
X208938914Y-43618363D01*
X208700819Y-42570744D02*
X208700819Y-42380268D01*
X208700819Y-42380268D02*
X208748438Y-42285030D01*
X208748438Y-42285030D02*
X208843676Y-42189792D01*
X208843676Y-42189792D02*
X209034152Y-42142173D01*
X209034152Y-42142173D02*
X209367485Y-42142173D01*
X209367485Y-42142173D02*
X209557961Y-42189792D01*
X209557961Y-42189792D02*
X209653200Y-42285030D01*
X209653200Y-42285030D02*
X209700819Y-42380268D01*
X209700819Y-42380268D02*
X209700819Y-42570744D01*
X209700819Y-42570744D02*
X209653200Y-42665982D01*
X209653200Y-42665982D02*
X209557961Y-42761220D01*
X209557961Y-42761220D02*
X209367485Y-42808839D01*
X209367485Y-42808839D02*
X209034152Y-42808839D01*
X209034152Y-42808839D02*
X208843676Y-42761220D01*
X208843676Y-42761220D02*
X208748438Y-42665982D01*
X208748438Y-42665982D02*
X208700819Y-42570744D01*
X208700819Y-41713601D02*
X209510342Y-41713601D01*
X209510342Y-41713601D02*
X209605580Y-41665982D01*
X209605580Y-41665982D02*
X209653200Y-41618363D01*
X209653200Y-41618363D02*
X209700819Y-41523125D01*
X209700819Y-41523125D02*
X209700819Y-41332649D01*
X209700819Y-41332649D02*
X209653200Y-41237411D01*
X209653200Y-41237411D02*
X209605580Y-41189792D01*
X209605580Y-41189792D02*
X209510342Y-41142173D01*
X209510342Y-41142173D02*
X208700819Y-41142173D01*
X208700819Y-40808839D02*
X208700819Y-40237411D01*
X209700819Y-40523125D02*
X208700819Y-40523125D01*
%TO.C,U1*%
X186855600Y-36903200D02*
X186855600Y-54403200D01*
X186855600Y-36903200D02*
X199355600Y-36903200D01*
X192105600Y-43203200D02*
X193105600Y-42203200D01*
X193105600Y-42203200D02*
X194105600Y-43203200D01*
X193105600Y-49203200D02*
X193105600Y-42203200D01*
X199355600Y-36903200D02*
X199355600Y-54403200D01*
X199355600Y-54403200D02*
X186855600Y-54403200D01*
D14*
%TO.C,R2*%
X160960000Y-53340000D02*
X161910000Y-53340000D01*
X161910000Y-52420000D02*
X161910000Y-54260000D01*
X161910000Y-54260000D02*
X165750000Y-54260000D01*
X165750000Y-52420000D02*
X161910000Y-52420000D01*
X165750000Y-54260000D02*
X165750000Y-52420000D01*
X166700000Y-53340000D02*
X165750000Y-53340000D01*
%TO.C,R1*%
X160959999Y-50800000D02*
X161910000Y-50800000D01*
X161910000Y-49880000D02*
X161910000Y-51720000D01*
X161910000Y-51720000D02*
X165750000Y-51720000D01*
X165750000Y-49880000D02*
X161910000Y-49880000D01*
X165750000Y-51720000D02*
X165750000Y-49880000D01*
X166700000Y-50800000D02*
X165750000Y-50800000D01*
%TO.C,C1*%
X203615112Y-32180000D02*
X204115112Y-32180000D01*
X203865112Y-31930000D02*
X203865112Y-32430000D01*
X206419887Y-31075000D02*
X206419887Y-36235000D01*
X206459887Y-31075000D02*
X206459887Y-36235000D01*
X206499887Y-31076000D02*
X206499887Y-36234000D01*
X206539887Y-31078000D02*
X206539887Y-36232000D01*
X206579887Y-31080000D02*
X206579887Y-36230000D01*
X206619887Y-31083000D02*
X206619887Y-36227000D01*
X206659887Y-31086000D02*
X206659887Y-32615000D01*
X206659887Y-34695000D02*
X206659887Y-36224000D01*
X206699887Y-31090000D02*
X206699887Y-32615000D01*
X206699887Y-34695000D02*
X206699887Y-36220000D01*
X206739887Y-31095000D02*
X206739887Y-32615000D01*
X206739887Y-34695000D02*
X206739887Y-36215000D01*
X206779887Y-31100000D02*
X206779887Y-32615000D01*
X206779887Y-34695000D02*
X206779887Y-36210000D01*
X206819887Y-31106000D02*
X206819887Y-32615000D01*
X206819887Y-34695000D02*
X206819887Y-36204000D01*
X206859887Y-31112000D02*
X206859887Y-32615000D01*
X206859887Y-34695000D02*
X206859887Y-36198000D01*
X206899887Y-31119000D02*
X206899887Y-32615000D01*
X206899887Y-34695000D02*
X206899887Y-36191000D01*
X206939887Y-31127000D02*
X206939887Y-32615000D01*
X206939887Y-34695000D02*
X206939887Y-36183000D01*
X206979887Y-31136000D02*
X206979887Y-32615000D01*
X206979887Y-34695000D02*
X206979887Y-36174000D01*
X207019887Y-31145000D02*
X207019887Y-32615000D01*
X207019887Y-34695000D02*
X207019887Y-36165000D01*
X207059887Y-31154000D02*
X207059887Y-32615000D01*
X207059887Y-34695000D02*
X207059887Y-36156000D01*
X207099887Y-31165000D02*
X207099887Y-32615000D01*
X207099887Y-34695000D02*
X207099887Y-36145000D01*
X207139887Y-31176000D02*
X207139887Y-32615000D01*
X207139887Y-34695000D02*
X207139887Y-36134000D01*
X207179887Y-31188000D02*
X207179887Y-32615000D01*
X207179887Y-34695000D02*
X207179887Y-36122000D01*
X207219887Y-31200000D02*
X207219887Y-32615000D01*
X207219887Y-34695000D02*
X207219887Y-36110000D01*
X207259887Y-31213000D02*
X207259887Y-32615000D01*
X207259887Y-34695000D02*
X207259887Y-36097000D01*
X207299887Y-31227000D02*
X207299887Y-32615000D01*
X207299887Y-34695000D02*
X207299887Y-36083000D01*
X207339887Y-31242000D02*
X207339887Y-32615000D01*
X207339887Y-34695000D02*
X207339887Y-36068000D01*
X207379887Y-31257000D02*
X207379887Y-32615000D01*
X207379887Y-34695000D02*
X207379887Y-36053000D01*
X207419887Y-31273000D02*
X207419887Y-32615000D01*
X207419887Y-34695000D02*
X207419887Y-36037000D01*
X207459887Y-31290000D02*
X207459887Y-32615000D01*
X207459887Y-34695000D02*
X207459887Y-36020000D01*
X207499887Y-31308000D02*
X207499887Y-32615000D01*
X207499887Y-34695000D02*
X207499887Y-36002000D01*
X207539887Y-31326000D02*
X207539887Y-32615000D01*
X207539887Y-34695000D02*
X207539887Y-35984000D01*
X207579887Y-31346000D02*
X207579887Y-32615000D01*
X207579887Y-34695000D02*
X207579887Y-35964000D01*
X207619887Y-31366000D02*
X207619887Y-32615000D01*
X207619887Y-34695000D02*
X207619887Y-35944000D01*
X207659887Y-31387000D02*
X207659887Y-32615000D01*
X207659887Y-34695000D02*
X207659887Y-35923000D01*
X207699887Y-31409000D02*
X207699887Y-32615000D01*
X207699887Y-34695000D02*
X207699887Y-35901000D01*
X207739887Y-31432000D02*
X207739887Y-32615000D01*
X207739887Y-34695000D02*
X207739887Y-35878000D01*
X207779887Y-31456000D02*
X207779887Y-32615000D01*
X207779887Y-34695000D02*
X207779887Y-35854000D01*
X207819887Y-31480000D02*
X207819887Y-32615000D01*
X207819887Y-34695000D02*
X207819887Y-35830000D01*
X207859887Y-31506000D02*
X207859887Y-32615000D01*
X207859887Y-34695000D02*
X207859887Y-35804000D01*
X207899887Y-31533000D02*
X207899887Y-32615000D01*
X207899887Y-34695000D02*
X207899887Y-35777000D01*
X207939887Y-31561000D02*
X207939887Y-32615000D01*
X207939887Y-34695000D02*
X207939887Y-35749000D01*
X207979887Y-31590000D02*
X207979887Y-32615000D01*
X207979887Y-34695000D02*
X207979887Y-35720000D01*
X208019887Y-31620000D02*
X208019887Y-32615000D01*
X208019887Y-34695000D02*
X208019887Y-35690000D01*
X208059887Y-31652000D02*
X208059887Y-32615000D01*
X208059887Y-34695000D02*
X208059887Y-35658000D01*
X208099887Y-31685000D02*
X208099887Y-32615000D01*
X208099887Y-34695000D02*
X208099887Y-35625000D01*
X208139887Y-31719000D02*
X208139887Y-32615000D01*
X208139887Y-34695000D02*
X208139887Y-35591000D01*
X208179887Y-31754000D02*
X208179887Y-32615000D01*
X208179887Y-34695000D02*
X208179887Y-35556000D01*
X208219887Y-31791000D02*
X208219887Y-32615000D01*
X208219887Y-34695000D02*
X208219887Y-35519000D01*
X208259887Y-31830000D02*
X208259887Y-32615000D01*
X208259887Y-34695000D02*
X208259887Y-35480000D01*
X208299887Y-31870000D02*
X208299887Y-32615000D01*
X208299887Y-34695000D02*
X208299887Y-35440000D01*
X208339887Y-31912000D02*
X208339887Y-32615000D01*
X208339887Y-34695000D02*
X208339887Y-35398000D01*
X208379887Y-31956000D02*
X208379887Y-32615000D01*
X208379887Y-34695000D02*
X208379887Y-35354000D01*
X208419887Y-32003000D02*
X208419887Y-32615000D01*
X208419887Y-34695000D02*
X208419887Y-35307000D01*
X208459887Y-32051000D02*
X208459887Y-32615000D01*
X208459887Y-34695000D02*
X208459887Y-35259000D01*
X208499887Y-32102000D02*
X208499887Y-32615000D01*
X208499887Y-34695000D02*
X208499887Y-35208000D01*
X208539887Y-32156000D02*
X208539887Y-32615000D01*
X208539887Y-34695000D02*
X208539887Y-35154000D01*
X208579887Y-32212000D02*
X208579887Y-32615000D01*
X208579887Y-34695000D02*
X208579887Y-35098000D01*
X208619887Y-32272000D02*
X208619887Y-32615000D01*
X208619887Y-34695000D02*
X208619887Y-35038000D01*
X208659887Y-32336000D02*
X208659887Y-32615000D01*
X208659887Y-34695000D02*
X208659887Y-34974000D01*
X208699887Y-32404000D02*
X208699887Y-32615000D01*
X208699887Y-34695000D02*
X208699887Y-34906000D01*
X208739887Y-32478000D02*
X208739887Y-34832000D01*
X208779887Y-32557000D02*
X208779887Y-34753000D01*
X208819887Y-32644000D02*
X208819887Y-34666000D01*
X208859887Y-32741000D02*
X208859887Y-34569000D01*
X208899887Y-32850000D02*
X208899887Y-34460000D01*
X208939887Y-32978000D02*
X208939887Y-34332000D01*
X208979887Y-33138000D02*
X208979887Y-34172000D01*
X209019887Y-33372000D02*
X209019887Y-33938000D01*
X209039887Y-33655000D02*
G75*
G02*
X203799887Y-33655000I-2620000J0D01*
G01*
X203799887Y-33655000D02*
G75*
G02*
X209039887Y-33655000I2620000J0D01*
G01*
%TO.C,C2*%
X203615113Y-56310000D02*
X204115113Y-56310000D01*
X203865113Y-56060000D02*
X203865113Y-56560000D01*
X206419888Y-55205000D02*
X206419888Y-60365000D01*
X206459888Y-55205000D02*
X206459888Y-60365000D01*
X206499888Y-55206000D02*
X206499888Y-60364000D01*
X206539888Y-55208000D02*
X206539888Y-60362000D01*
X206579888Y-55210000D02*
X206579888Y-60360000D01*
X206619888Y-55213000D02*
X206619888Y-60357000D01*
X206659888Y-55216000D02*
X206659888Y-56745000D01*
X206659888Y-58825000D02*
X206659888Y-60354000D01*
X206699888Y-55220000D02*
X206699888Y-56745000D01*
X206699888Y-58825000D02*
X206699888Y-60350000D01*
X206739888Y-55225000D02*
X206739888Y-56745000D01*
X206739888Y-58825000D02*
X206739888Y-60345000D01*
X206779888Y-55230000D02*
X206779888Y-56745000D01*
X206779888Y-58825000D02*
X206779888Y-60340000D01*
X206819888Y-55236000D02*
X206819888Y-56745000D01*
X206819888Y-58825000D02*
X206819888Y-60334000D01*
X206859888Y-55242000D02*
X206859888Y-56745000D01*
X206859888Y-58825000D02*
X206859888Y-60328000D01*
X206899888Y-55249000D02*
X206899888Y-56745000D01*
X206899888Y-58825000D02*
X206899888Y-60321000D01*
X206939888Y-55257000D02*
X206939888Y-56745000D01*
X206939888Y-58825000D02*
X206939888Y-60313000D01*
X206979888Y-55266000D02*
X206979888Y-56745000D01*
X206979888Y-58825000D02*
X206979888Y-60304000D01*
X207019888Y-55275000D02*
X207019888Y-56745000D01*
X207019888Y-58825000D02*
X207019888Y-60295000D01*
X207059888Y-55284000D02*
X207059888Y-56745000D01*
X207059888Y-58825000D02*
X207059888Y-60286000D01*
X207099888Y-55295000D02*
X207099888Y-56745000D01*
X207099888Y-58825000D02*
X207099888Y-60275000D01*
X207139888Y-55306000D02*
X207139888Y-56745000D01*
X207139888Y-58825000D02*
X207139888Y-60264000D01*
X207179888Y-55318000D02*
X207179888Y-56745000D01*
X207179888Y-58825000D02*
X207179888Y-60252000D01*
X207219888Y-55330000D02*
X207219888Y-56745000D01*
X207219888Y-58825000D02*
X207219888Y-60240000D01*
X207259888Y-55343000D02*
X207259888Y-56745000D01*
X207259888Y-58825000D02*
X207259888Y-60227000D01*
X207299888Y-55357000D02*
X207299888Y-56745000D01*
X207299888Y-58825000D02*
X207299888Y-60213000D01*
X207339888Y-55372000D02*
X207339888Y-56745000D01*
X207339888Y-58825000D02*
X207339888Y-60198000D01*
X207379888Y-55387000D02*
X207379888Y-56745000D01*
X207379888Y-58825000D02*
X207379888Y-60183000D01*
X207419888Y-55403000D02*
X207419888Y-56745000D01*
X207419888Y-58825000D02*
X207419888Y-60167000D01*
X207459888Y-55420000D02*
X207459888Y-56745000D01*
X207459888Y-58825000D02*
X207459888Y-60150000D01*
X207499888Y-55438000D02*
X207499888Y-56745000D01*
X207499888Y-58825000D02*
X207499888Y-60132000D01*
X207539888Y-55456000D02*
X207539888Y-56745000D01*
X207539888Y-58825000D02*
X207539888Y-60114000D01*
X207579888Y-55476000D02*
X207579888Y-56745000D01*
X207579888Y-58825000D02*
X207579888Y-60094000D01*
X207619888Y-55496000D02*
X207619888Y-56745000D01*
X207619888Y-58825000D02*
X207619888Y-60074000D01*
X207659888Y-55517000D02*
X207659888Y-56745000D01*
X207659888Y-58825000D02*
X207659888Y-60053000D01*
X207699888Y-55539000D02*
X207699888Y-56745000D01*
X207699888Y-58825000D02*
X207699888Y-60031000D01*
X207739888Y-55562000D02*
X207739888Y-56745000D01*
X207739888Y-58825000D02*
X207739888Y-60008000D01*
X207779888Y-55586000D02*
X207779888Y-56745000D01*
X207779888Y-58825000D02*
X207779888Y-59984000D01*
X207819888Y-55610000D02*
X207819888Y-56745000D01*
X207819888Y-58825000D02*
X207819888Y-59960000D01*
X207859888Y-55636000D02*
X207859888Y-56745000D01*
X207859888Y-58825000D02*
X207859888Y-59934000D01*
X207899888Y-55663000D02*
X207899888Y-56745000D01*
X207899888Y-58825000D02*
X207899888Y-59907000D01*
X207939888Y-55691000D02*
X207939888Y-56745000D01*
X207939888Y-58825000D02*
X207939888Y-59879000D01*
X207979888Y-55720000D02*
X207979888Y-56745000D01*
X207979888Y-58825000D02*
X207979888Y-59850000D01*
X208019888Y-55750000D02*
X208019888Y-56745000D01*
X208019888Y-58825000D02*
X208019888Y-59820000D01*
X208059888Y-55782000D02*
X208059888Y-56745000D01*
X208059888Y-58825000D02*
X208059888Y-59788000D01*
X208099888Y-55815000D02*
X208099888Y-56745000D01*
X208099888Y-58825000D02*
X208099888Y-59755000D01*
X208139888Y-55849000D02*
X208139888Y-56745000D01*
X208139888Y-58825000D02*
X208139888Y-59721000D01*
X208179888Y-55884000D02*
X208179888Y-56745000D01*
X208179888Y-58825000D02*
X208179888Y-59686000D01*
X208219888Y-55921000D02*
X208219888Y-56745000D01*
X208219888Y-58825000D02*
X208219888Y-59649000D01*
X208259888Y-55960000D02*
X208259888Y-56745000D01*
X208259888Y-58825000D02*
X208259888Y-59610000D01*
X208299888Y-56000000D02*
X208299888Y-56745000D01*
X208299888Y-58825000D02*
X208299888Y-59570000D01*
X208339888Y-56042000D02*
X208339888Y-56745000D01*
X208339888Y-58825000D02*
X208339888Y-59528000D01*
X208379888Y-56086000D02*
X208379888Y-56745000D01*
X208379888Y-58825000D02*
X208379888Y-59484000D01*
X208419888Y-56133000D02*
X208419888Y-56745000D01*
X208419888Y-58825000D02*
X208419888Y-59437000D01*
X208459888Y-56181000D02*
X208459888Y-56745000D01*
X208459888Y-58825000D02*
X208459888Y-59389000D01*
X208499888Y-56232000D02*
X208499888Y-56745000D01*
X208499888Y-58825000D02*
X208499888Y-59338000D01*
X208539888Y-56286000D02*
X208539888Y-56745000D01*
X208539888Y-58825000D02*
X208539888Y-59284000D01*
X208579888Y-56342000D02*
X208579888Y-56745000D01*
X208579888Y-58825000D02*
X208579888Y-59228000D01*
X208619888Y-56402000D02*
X208619888Y-56745000D01*
X208619888Y-58825000D02*
X208619888Y-59168000D01*
X208659888Y-56466000D02*
X208659888Y-56745000D01*
X208659888Y-58825000D02*
X208659888Y-59104000D01*
X208699888Y-56534000D02*
X208699888Y-56745000D01*
X208699888Y-58825000D02*
X208699888Y-59036000D01*
X208739888Y-56608000D02*
X208739888Y-58962000D01*
X208779888Y-56687000D02*
X208779888Y-58883000D01*
X208819888Y-56774000D02*
X208819888Y-58796000D01*
X208859888Y-56871000D02*
X208859888Y-58699000D01*
X208899888Y-56980000D02*
X208899888Y-58590000D01*
X208939888Y-57108000D02*
X208939888Y-58462000D01*
X208979888Y-57268000D02*
X208979888Y-58302000D01*
X209019888Y-57502000D02*
X209019888Y-58068000D01*
X209039888Y-57785000D02*
G75*
G02*
X203799888Y-57785000I-2620000J0D01*
G01*
X203799888Y-57785000D02*
G75*
G02*
X209039888Y-57785000I2620000J0D01*
G01*
D12*
%TO.C,U3*%
X212178400Y-54403200D02*
X199678400Y-54403200D01*
X212178400Y-36903200D02*
X212178400Y-54403200D01*
X205928400Y-49203200D02*
X205928400Y-42203200D01*
X205928400Y-42203200D02*
X206928400Y-43203200D01*
X204928400Y-43203200D02*
X205928400Y-42203200D01*
X199678400Y-36903200D02*
X212178400Y-36903200D01*
X199678400Y-36903200D02*
X199678400Y-54403200D01*
%TD*%
M02*
