M48
; DRILL file {KiCad 9.0.1-9.0.1-0~ubuntu22.04.1} date 2025-05-27T19:15:17+0200
; FORMAT={-:-/ absolute / metric / decimal}
; #@! TF.CreationDate,2025-05-27T19:15:17+02:00
; #@! TF.GenerationSoftware,Kicad,Pcbnew,9.0.1-9.0.1-0~ubuntu22.04.1
; #@! TF.FileFunction,MixedPlating,1,2
FMAT,2
METRIC
; #@! TA.AperFunction,Plated,PTH,ComponentDrill
T1C0.700
; #@! TA.AperFunction,Plated,PTH,ComponentDrill
T2C0.800
; #@! TA.AperFunction,Plated,PTH,ComponentDrill
T3C1.000
; #@! TA.AperFunction,Plated,PTH,ComponentDrill
T4C2.300
; #@! TA.AperFunction,NonPlated,NPTH,ComponentDrill
T5C3.000
%
G90
G05
T1
X160.02Y-50.8
X160.02Y-53.34
X167.64Y-50.8
X167.64Y-53.34
T2
X205.17Y-33.655
X205.17Y-57.785
X207.67Y-33.655
X207.67Y-57.785
T3
X154.94Y-36.83
X157.48Y-36.83
X160.02Y-33.02
X160.02Y-35.56
X160.02Y-58.42
X162.56Y-33.02
X162.56Y-35.56
X162.56Y-58.42
X165.1Y-33.02
X165.1Y-35.56
X165.1Y-55.88
X165.1Y-58.42
X167.64Y-33.02
X167.64Y-35.56
X167.64Y-55.88
X167.64Y-58.42
X170.18Y-33.02
X170.18Y-35.56
X170.18Y-55.88
X170.18Y-58.42
X172.72Y-33.02
X172.72Y-55.88
X172.72Y-58.42
X175.26Y-33.02
X175.26Y-55.88
X175.26Y-58.42
X177.8Y-33.02
X177.8Y-58.42
X180.34Y-33.02
X180.34Y-35.56
X180.34Y-38.1
X180.34Y-40.64
X180.34Y-43.18
X180.34Y-48.26
X180.34Y-50.8
X180.34Y-53.34
X180.34Y-55.88
X180.34Y-58.42
X182.88Y-33.02
X182.88Y-35.56
X182.88Y-38.1
X182.88Y-40.64
X182.88Y-43.18
X182.88Y-48.26
X182.88Y-50.8
X182.88Y-53.34
X182.88Y-55.88
X182.88Y-58.42
X185.42Y-33.02
X185.42Y-35.56
X185.42Y-38.1
X185.42Y-40.64
X185.42Y-43.18
X185.42Y-48.26
X185.42Y-50.8
X185.42Y-53.34
X185.42Y-55.88
X185.42Y-58.42
X187.96Y-33.02
X187.96Y-58.42
X189.006Y-38.303
X189.006Y-53.103
X190.5Y-33.02
X190.5Y-58.42
X193.04Y-33.02
X193.04Y-58.42
X195.58Y-33.02
X195.58Y-58.42
X197.206Y-38.303
X197.206Y-53.103
X201.828Y-38.303
X201.828Y-53.103
X210.028Y-38.303
X210.028Y-53.103
T4
X214.63Y-40.92
X214.63Y-45.72
X214.63Y-50.52
T5
X152.8Y-33.2
X152.8Y-58.2
X214.8Y-33.2
X214.8Y-58.2
M30
