%TF.GenerationSoftware,KiCad,Pcbnew,9.0.1-9.0.1-0~ubuntu22.04.1*%
%TF.CreationDate,2025-05-27T19:15:10+02:00*%
%TF.ProjectId,kame32-pcb,6b616d65-3332-42d7-9063-622e6b696361,rev?*%
%TF.SameCoordinates,Original*%
%TF.FileFunction,Legend,Bot*%
%TF.FilePolarity,Positive*%
%FSLAX46Y46*%
G04 Gerber Fmt 4.6, Leading zero omitted, Abs format (unit mm)*
G04 Created by KiCad (PCBNEW 9.0.1-9.0.1-0~ubuntu22.04.1) date 2025-05-27 19:15:10*
%MOMM*%
%LPD*%
G01*
G04 APERTURE LIST*
%ADD10C,0.300000*%
%ADD11C,0.780000*%
%ADD12C,0.000000*%
G04 APERTURE END LIST*
D10*
X210143298Y-46705144D02*
X210143298Y-47705144D01*
X210143298Y-47705144D02*
X210209965Y-47905144D01*
X210209965Y-47905144D02*
X210343298Y-48038478D01*
X210343298Y-48038478D02*
X210543298Y-48105144D01*
X210543298Y-48105144D02*
X210676632Y-48105144D01*
X208876631Y-48105144D02*
X208876631Y-47371811D01*
X208876631Y-47371811D02*
X208943298Y-47238478D01*
X208943298Y-47238478D02*
X209076631Y-47171811D01*
X209076631Y-47171811D02*
X209343298Y-47171811D01*
X209343298Y-47171811D02*
X209476631Y-47238478D01*
X208876631Y-48038478D02*
X209009965Y-48105144D01*
X209009965Y-48105144D02*
X209343298Y-48105144D01*
X209343298Y-48105144D02*
X209476631Y-48038478D01*
X209476631Y-48038478D02*
X209543298Y-47905144D01*
X209543298Y-47905144D02*
X209543298Y-47771811D01*
X209543298Y-47771811D02*
X209476631Y-47638478D01*
X209476631Y-47638478D02*
X209343298Y-47571811D01*
X209343298Y-47571811D02*
X209009965Y-47571811D01*
X209009965Y-47571811D02*
X208876631Y-47505144D01*
X208343298Y-47171811D02*
X208009964Y-48105144D01*
X208009964Y-48105144D02*
X207676631Y-47171811D01*
X207143297Y-48105144D02*
X207143297Y-47171811D01*
X207143297Y-46705144D02*
X207209964Y-46771811D01*
X207209964Y-46771811D02*
X207143297Y-46838478D01*
X207143297Y-46838478D02*
X207076631Y-46771811D01*
X207076631Y-46771811D02*
X207143297Y-46705144D01*
X207143297Y-46705144D02*
X207143297Y-46838478D01*
X205943297Y-48038478D02*
X206076630Y-48105144D01*
X206076630Y-48105144D02*
X206343297Y-48105144D01*
X206343297Y-48105144D02*
X206476630Y-48038478D01*
X206476630Y-48038478D02*
X206543297Y-47905144D01*
X206543297Y-47905144D02*
X206543297Y-47371811D01*
X206543297Y-47371811D02*
X206476630Y-47238478D01*
X206476630Y-47238478D02*
X206343297Y-47171811D01*
X206343297Y-47171811D02*
X206076630Y-47171811D01*
X206076630Y-47171811D02*
X205943297Y-47238478D01*
X205943297Y-47238478D02*
X205876630Y-47371811D01*
X205876630Y-47371811D02*
X205876630Y-47505144D01*
X205876630Y-47505144D02*
X206543297Y-47638478D01*
X205276630Y-48105144D02*
X205276630Y-47171811D01*
X205276630Y-47438478D02*
X205209964Y-47305144D01*
X205209964Y-47305144D02*
X205143297Y-47238478D01*
X205143297Y-47238478D02*
X205009964Y-47171811D01*
X205009964Y-47171811D02*
X204876630Y-47171811D01*
X204409963Y-48105144D02*
X204409963Y-46705144D01*
X203743296Y-48105144D02*
X203743296Y-46705144D01*
X203743296Y-47371811D02*
X202943296Y-47371811D01*
X202943296Y-48105144D02*
X202943296Y-46705144D01*
X202276629Y-47971811D02*
X202209963Y-48038478D01*
X202209963Y-48038478D02*
X202276629Y-48105144D01*
X202276629Y-48105144D02*
X202343296Y-48038478D01*
X202343296Y-48038478D02*
X202276629Y-47971811D01*
X202276629Y-47971811D02*
X202276629Y-48105144D01*
X201009962Y-48038478D02*
X201143296Y-48105144D01*
X201143296Y-48105144D02*
X201409962Y-48105144D01*
X201409962Y-48105144D02*
X201543296Y-48038478D01*
X201543296Y-48038478D02*
X201609962Y-47971811D01*
X201609962Y-47971811D02*
X201676629Y-47838478D01*
X201676629Y-47838478D02*
X201676629Y-47438478D01*
X201676629Y-47438478D02*
X201609962Y-47305144D01*
X201609962Y-47305144D02*
X201543296Y-47238478D01*
X201543296Y-47238478D02*
X201409962Y-47171811D01*
X201409962Y-47171811D02*
X201143296Y-47171811D01*
X201143296Y-47171811D02*
X201009962Y-47238478D01*
X200209962Y-48105144D02*
X200343296Y-48038478D01*
X200343296Y-48038478D02*
X200409962Y-47971811D01*
X200409962Y-47971811D02*
X200476629Y-47838478D01*
X200476629Y-47838478D02*
X200476629Y-47438478D01*
X200476629Y-47438478D02*
X200409962Y-47305144D01*
X200409962Y-47305144D02*
X200343296Y-47238478D01*
X200343296Y-47238478D02*
X200209962Y-47171811D01*
X200209962Y-47171811D02*
X200009962Y-47171811D01*
X200009962Y-47171811D02*
X199876629Y-47238478D01*
X199876629Y-47238478D02*
X199809962Y-47305144D01*
X199809962Y-47305144D02*
X199743296Y-47438478D01*
X199743296Y-47438478D02*
X199743296Y-47838478D01*
X199743296Y-47838478D02*
X199809962Y-47971811D01*
X199809962Y-47971811D02*
X199876629Y-48038478D01*
X199876629Y-48038478D02*
X200009962Y-48105144D01*
X200009962Y-48105144D02*
X200209962Y-48105144D01*
X199143295Y-48105144D02*
X199143295Y-47171811D01*
X199143295Y-47305144D02*
X199076629Y-47238478D01*
X199076629Y-47238478D02*
X198943295Y-47171811D01*
X198943295Y-47171811D02*
X198743295Y-47171811D01*
X198743295Y-47171811D02*
X198609962Y-47238478D01*
X198609962Y-47238478D02*
X198543295Y-47371811D01*
X198543295Y-47371811D02*
X198543295Y-48105144D01*
X198543295Y-47371811D02*
X198476629Y-47238478D01*
X198476629Y-47238478D02*
X198343295Y-47171811D01*
X198343295Y-47171811D02*
X198143295Y-47171811D01*
X198143295Y-47171811D02*
X198009962Y-47238478D01*
X198009962Y-47238478D02*
X197943295Y-47371811D01*
X197943295Y-47371811D02*
X197943295Y-48105144D01*
X209743298Y-50225733D02*
X209809965Y-50292400D01*
X209809965Y-50292400D02*
X210009965Y-50359066D01*
X210009965Y-50359066D02*
X210143298Y-50359066D01*
X210143298Y-50359066D02*
X210343298Y-50292400D01*
X210343298Y-50292400D02*
X210476632Y-50159066D01*
X210476632Y-50159066D02*
X210543298Y-50025733D01*
X210543298Y-50025733D02*
X210609965Y-49759066D01*
X210609965Y-49759066D02*
X210609965Y-49559066D01*
X210609965Y-49559066D02*
X210543298Y-49292400D01*
X210543298Y-49292400D02*
X210476632Y-49159066D01*
X210476632Y-49159066D02*
X210343298Y-49025733D01*
X210343298Y-49025733D02*
X210143298Y-48959066D01*
X210143298Y-48959066D02*
X210009965Y-48959066D01*
X210009965Y-48959066D02*
X209809965Y-49025733D01*
X209809965Y-49025733D02*
X209743298Y-49092400D01*
X208343298Y-50225733D02*
X208409965Y-50292400D01*
X208409965Y-50292400D02*
X208609965Y-50359066D01*
X208609965Y-50359066D02*
X208743298Y-50359066D01*
X208743298Y-50359066D02*
X208943298Y-50292400D01*
X208943298Y-50292400D02*
X209076632Y-50159066D01*
X209076632Y-50159066D02*
X209143298Y-50025733D01*
X209143298Y-50025733D02*
X209209965Y-49759066D01*
X209209965Y-49759066D02*
X209209965Y-49559066D01*
X209209965Y-49559066D02*
X209143298Y-49292400D01*
X209143298Y-49292400D02*
X209076632Y-49159066D01*
X209076632Y-49159066D02*
X208943298Y-49025733D01*
X208943298Y-49025733D02*
X208743298Y-48959066D01*
X208743298Y-48959066D02*
X208609965Y-48959066D01*
X208609965Y-48959066D02*
X208409965Y-49025733D01*
X208409965Y-49025733D02*
X208343298Y-49092400D01*
X206209965Y-49625733D02*
X206009965Y-49692400D01*
X206009965Y-49692400D02*
X205943298Y-49759066D01*
X205943298Y-49759066D02*
X205876631Y-49892400D01*
X205876631Y-49892400D02*
X205876631Y-50092400D01*
X205876631Y-50092400D02*
X205943298Y-50225733D01*
X205943298Y-50225733D02*
X206009965Y-50292400D01*
X206009965Y-50292400D02*
X206143298Y-50359066D01*
X206143298Y-50359066D02*
X206676631Y-50359066D01*
X206676631Y-50359066D02*
X206676631Y-48959066D01*
X206676631Y-48959066D02*
X206209965Y-48959066D01*
X206209965Y-48959066D02*
X206076631Y-49025733D01*
X206076631Y-49025733D02*
X206009965Y-49092400D01*
X206009965Y-49092400D02*
X205943298Y-49225733D01*
X205943298Y-49225733D02*
X205943298Y-49359066D01*
X205943298Y-49359066D02*
X206009965Y-49492400D01*
X206009965Y-49492400D02*
X206076631Y-49559066D01*
X206076631Y-49559066D02*
X206209965Y-49625733D01*
X206209965Y-49625733D02*
X206676631Y-49625733D01*
X205009965Y-49692400D02*
X205009965Y-50359066D01*
X205476631Y-48959066D02*
X205009965Y-49692400D01*
X205009965Y-49692400D02*
X204543298Y-48959066D01*
X204076631Y-49825733D02*
X203009965Y-49825733D01*
X202409965Y-50292400D02*
X202209965Y-50359066D01*
X202209965Y-50359066D02*
X201876632Y-50359066D01*
X201876632Y-50359066D02*
X201743298Y-50292400D01*
X201743298Y-50292400D02*
X201676632Y-50225733D01*
X201676632Y-50225733D02*
X201609965Y-50092400D01*
X201609965Y-50092400D02*
X201609965Y-49959066D01*
X201609965Y-49959066D02*
X201676632Y-49825733D01*
X201676632Y-49825733D02*
X201743298Y-49759066D01*
X201743298Y-49759066D02*
X201876632Y-49692400D01*
X201876632Y-49692400D02*
X202143298Y-49625733D01*
X202143298Y-49625733D02*
X202276632Y-49559066D01*
X202276632Y-49559066D02*
X202343298Y-49492400D01*
X202343298Y-49492400D02*
X202409965Y-49359066D01*
X202409965Y-49359066D02*
X202409965Y-49225733D01*
X202409965Y-49225733D02*
X202343298Y-49092400D01*
X202343298Y-49092400D02*
X202276632Y-49025733D01*
X202276632Y-49025733D02*
X202143298Y-48959066D01*
X202143298Y-48959066D02*
X201809965Y-48959066D01*
X201809965Y-48959066D02*
X201609965Y-49025733D01*
X201076632Y-49959066D02*
X200409965Y-49959066D01*
X201209965Y-50359066D02*
X200743299Y-48959066D01*
X200743299Y-48959066D02*
X200276632Y-50359066D01*
D11*
X210306938Y-44525820D02*
X210306938Y-41325820D01*
X208478366Y-44525820D02*
X209849795Y-42697249D01*
X208478366Y-41325820D02*
X210306938Y-43154392D01*
X205735509Y-44525820D02*
X205735509Y-42849630D01*
X205735509Y-42849630D02*
X205887890Y-42544868D01*
X205887890Y-42544868D02*
X206192652Y-42392487D01*
X206192652Y-42392487D02*
X206802176Y-42392487D01*
X206802176Y-42392487D02*
X207106938Y-42544868D01*
X205735509Y-44373440D02*
X206040271Y-44525820D01*
X206040271Y-44525820D02*
X206802176Y-44525820D01*
X206802176Y-44525820D02*
X207106938Y-44373440D01*
X207106938Y-44373440D02*
X207259319Y-44068678D01*
X207259319Y-44068678D02*
X207259319Y-43763916D01*
X207259319Y-43763916D02*
X207106938Y-43459154D01*
X207106938Y-43459154D02*
X206802176Y-43306773D01*
X206802176Y-43306773D02*
X206040271Y-43306773D01*
X206040271Y-43306773D02*
X205735509Y-43154392D01*
X204211700Y-44525820D02*
X204211700Y-42392487D01*
X204211700Y-42697249D02*
X204059319Y-42544868D01*
X204059319Y-42544868D02*
X203754557Y-42392487D01*
X203754557Y-42392487D02*
X203297414Y-42392487D01*
X203297414Y-42392487D02*
X202992652Y-42544868D01*
X202992652Y-42544868D02*
X202840271Y-42849630D01*
X202840271Y-42849630D02*
X202840271Y-44525820D01*
X202840271Y-42849630D02*
X202687890Y-42544868D01*
X202687890Y-42544868D02*
X202383128Y-42392487D01*
X202383128Y-42392487D02*
X201925985Y-42392487D01*
X201925985Y-42392487D02*
X201621224Y-42544868D01*
X201621224Y-42544868D02*
X201468843Y-42849630D01*
X201468843Y-42849630D02*
X201468843Y-44525820D01*
X198725985Y-44373440D02*
X199030747Y-44525820D01*
X199030747Y-44525820D02*
X199640271Y-44525820D01*
X199640271Y-44525820D02*
X199945033Y-44373440D01*
X199945033Y-44373440D02*
X200097414Y-44068678D01*
X200097414Y-44068678D02*
X200097414Y-42849630D01*
X200097414Y-42849630D02*
X199945033Y-42544868D01*
X199945033Y-42544868D02*
X199640271Y-42392487D01*
X199640271Y-42392487D02*
X199030747Y-42392487D01*
X199030747Y-42392487D02*
X198725985Y-42544868D01*
X198725985Y-42544868D02*
X198573604Y-42849630D01*
X198573604Y-42849630D02*
X198573604Y-43154392D01*
X198573604Y-43154392D02*
X200097414Y-43459154D01*
X197506938Y-41325820D02*
X195525985Y-41325820D01*
X195525985Y-41325820D02*
X196592652Y-42544868D01*
X196592652Y-42544868D02*
X196135509Y-42544868D01*
X196135509Y-42544868D02*
X195830747Y-42697249D01*
X195830747Y-42697249D02*
X195678366Y-42849630D01*
X195678366Y-42849630D02*
X195525985Y-43154392D01*
X195525985Y-43154392D02*
X195525985Y-43916297D01*
X195525985Y-43916297D02*
X195678366Y-44221059D01*
X195678366Y-44221059D02*
X195830747Y-44373440D01*
X195830747Y-44373440D02*
X196135509Y-44525820D01*
X196135509Y-44525820D02*
X197049795Y-44525820D01*
X197049795Y-44525820D02*
X197354557Y-44373440D01*
X197354557Y-44373440D02*
X197506938Y-44221059D01*
X194306938Y-41630582D02*
X194154557Y-41478201D01*
X194154557Y-41478201D02*
X193849795Y-41325820D01*
X193849795Y-41325820D02*
X193087890Y-41325820D01*
X193087890Y-41325820D02*
X192783128Y-41478201D01*
X192783128Y-41478201D02*
X192630747Y-41630582D01*
X192630747Y-41630582D02*
X192478366Y-41935344D01*
X192478366Y-41935344D02*
X192478366Y-42240106D01*
X192478366Y-42240106D02*
X192630747Y-42697249D01*
X192630747Y-42697249D02*
X194459319Y-44525820D01*
X194459319Y-44525820D02*
X192478366Y-44525820D01*
D12*
%TO.C,G\u002A\u002A\u002A*%
G36*
X178630013Y-48636912D02*
G01*
X178032681Y-49559632D01*
X177907409Y-49752780D01*
X177773221Y-49958845D01*
X177650473Y-50146483D01*
X177543487Y-50309129D01*
X177456582Y-50440216D01*
X177394080Y-50533179D01*
X177360301Y-50581452D01*
X177285252Y-50680552D01*
X176636537Y-50680552D01*
X176460468Y-50680434D01*
X176288304Y-50679521D01*
X176162051Y-50676999D01*
X176073328Y-50672060D01*
X176013753Y-50663894D01*
X175974945Y-50651693D01*
X175948524Y-50634646D01*
X175926108Y-50611944D01*
X175918974Y-50603066D01*
X175878333Y-50545888D01*
X175810011Y-50445387D01*
X175717889Y-50307424D01*
X175605844Y-50137861D01*
X175477759Y-49942559D01*
X175337511Y-49727381D01*
X175188980Y-49498188D01*
X175024474Y-49243483D01*
X174886971Y-49029778D01*
X174776657Y-48856620D01*
X174690537Y-48718634D01*
X174625617Y-48610447D01*
X174578901Y-48526684D01*
X174547394Y-48461970D01*
X174528102Y-48410932D01*
X174518030Y-48368194D01*
X174514183Y-48328383D01*
X174513801Y-48302186D01*
X174908589Y-48302186D01*
X175546279Y-49285547D01*
X176183970Y-50268907D01*
X176625928Y-50277325D01*
X177067886Y-50285743D01*
X177650750Y-49387674D01*
X178233614Y-48489604D01*
X178232041Y-45994622D01*
X178230467Y-43499639D01*
X177462113Y-42783478D01*
X176693758Y-42067317D01*
X176685926Y-44159690D01*
X176684611Y-44493245D01*
X176682921Y-44858576D01*
X176681074Y-45170582D01*
X176678955Y-45433516D01*
X176676451Y-45651634D01*
X176673449Y-45829190D01*
X176672299Y-45874141D01*
X176669835Y-45970439D01*
X176665495Y-46079635D01*
X176660316Y-46161034D01*
X176654184Y-46218888D01*
X176646985Y-46257454D01*
X176638606Y-46280986D01*
X176628933Y-46293738D01*
X176620444Y-46299686D01*
X176563315Y-46333198D01*
X176461697Y-46389324D01*
X176322698Y-46464251D01*
X176153426Y-46554169D01*
X175960988Y-46655265D01*
X175752492Y-46763729D01*
X174993734Y-47156567D01*
X174925211Y-47192044D01*
X174916900Y-47747115D01*
X174908589Y-48302186D01*
X174513801Y-48302186D01*
X174513566Y-48286123D01*
X174512697Y-48217904D01*
X174509103Y-48146789D01*
X174503671Y-48119207D01*
X174495077Y-48117648D01*
X174436284Y-48105863D01*
X174327191Y-48083596D01*
X174174044Y-48052132D01*
X173983091Y-48012761D01*
X173760579Y-47966768D01*
X173512756Y-47915440D01*
X173245868Y-47860066D01*
X173110961Y-47832078D01*
X172851918Y-47778498D01*
X172614580Y-47729616D01*
X172405277Y-47686723D01*
X172230345Y-47651112D01*
X172096114Y-47624074D01*
X172008919Y-47606900D01*
X171975091Y-47600882D01*
X171967147Y-47610197D01*
X171956424Y-47664060D01*
X171952222Y-47749923D01*
X171940743Y-47868513D01*
X171895296Y-47969306D01*
X171838370Y-48039606D01*
X169997156Y-48031651D01*
X169916774Y-48031300D01*
X169545058Y-48029532D01*
X169228816Y-48027673D01*
X168963444Y-48025579D01*
X168744340Y-48023105D01*
X168566903Y-48020108D01*
X168426529Y-48016443D01*
X168318616Y-48011966D01*
X168238563Y-48006532D01*
X168181767Y-47999999D01*
X168143625Y-47992220D01*
X168119536Y-47983053D01*
X168104896Y-47972352D01*
X168095320Y-47962055D01*
X168047863Y-47868638D01*
X168048272Y-47766950D01*
X168097137Y-47679248D01*
X168109946Y-47669346D01*
X168140738Y-47657029D01*
X168191324Y-47647627D01*
X168268567Y-47640769D01*
X168379333Y-47636082D01*
X168530486Y-47633195D01*
X168728890Y-47631736D01*
X168981410Y-47631332D01*
X169817768Y-47631332D01*
X169817768Y-46462403D01*
X169817621Y-46364891D01*
X170217877Y-46364891D01*
X170219009Y-46554344D01*
X170221287Y-46798339D01*
X170229412Y-47616086D01*
X170877372Y-47624315D01*
X171525331Y-47632545D01*
X171525331Y-47394556D01*
X171525331Y-47156567D01*
X170926111Y-46608775D01*
X170773346Y-46469503D01*
X170622335Y-46332623D01*
X170489918Y-46213416D01*
X170382675Y-46117777D01*
X170307185Y-46051602D01*
X170270027Y-46020788D01*
X170257744Y-46012969D01*
X170243526Y-46010387D01*
X170232876Y-46023715D01*
X170225390Y-46059391D01*
X170220663Y-46123853D01*
X170218294Y-46223540D01*
X170217877Y-46364891D01*
X169817621Y-46364891D01*
X169817370Y-46198576D01*
X169816196Y-45880129D01*
X169814329Y-45524151D01*
X169812057Y-45173941D01*
X171920892Y-45173941D01*
X172322361Y-45777674D01*
X172395294Y-45886976D01*
X172504117Y-46048606D01*
X172599847Y-46189038D01*
X172677366Y-46300843D01*
X172731555Y-46376592D01*
X172757294Y-46408857D01*
X172763867Y-46412049D01*
X172820152Y-46428682D01*
X172925900Y-46454993D01*
X173073447Y-46489231D01*
X173255134Y-46529647D01*
X173463298Y-46574490D01*
X173690277Y-46622009D01*
X173766755Y-46637803D01*
X173990464Y-46684064D01*
X174194235Y-46726292D01*
X174370111Y-46762832D01*
X174510133Y-46792028D01*
X174606342Y-46812226D01*
X174650781Y-46821770D01*
X174671378Y-46819651D01*
X174747256Y-46793534D01*
X174871129Y-46740273D01*
X175039616Y-46661422D01*
X175249335Y-46558533D01*
X175496905Y-46433160D01*
X176282045Y-46030492D01*
X176282079Y-45874141D01*
X176282055Y-45866901D01*
X176269725Y-45744949D01*
X176235026Y-45678712D01*
X176214028Y-45653595D01*
X176161319Y-45582000D01*
X176082522Y-45470865D01*
X175981866Y-45326274D01*
X175863581Y-45154309D01*
X175731897Y-44961053D01*
X175591043Y-44752589D01*
X175472756Y-44577155D01*
X175339611Y-44380563D01*
X175219406Y-44204022D01*
X175116342Y-44053654D01*
X175034617Y-43935584D01*
X174978433Y-43855934D01*
X174951988Y-43820829D01*
X174940721Y-43814443D01*
X174874077Y-43792640D01*
X174752145Y-43760444D01*
X174578075Y-43718580D01*
X174355016Y-43667772D01*
X174086118Y-43608746D01*
X173774530Y-43542227D01*
X173423402Y-43468940D01*
X171936975Y-43161769D01*
X171936473Y-43224581D01*
X171928934Y-44167855D01*
X171920892Y-45173941D01*
X169812057Y-45173941D01*
X169811853Y-45142496D01*
X169808851Y-44747014D01*
X169805408Y-44349558D01*
X169801606Y-43961981D01*
X169797530Y-43596136D01*
X169777292Y-41898799D01*
X168821780Y-41898799D01*
X168746666Y-41898792D01*
X168494441Y-41898521D01*
X168294755Y-41897561D01*
X168140909Y-41895512D01*
X168026204Y-41891971D01*
X167943939Y-41886535D01*
X167887414Y-41878804D01*
X167849930Y-41868375D01*
X167849804Y-41868307D01*
X170180554Y-41868307D01*
X170201484Y-43232833D01*
X170204882Y-43451463D01*
X170209171Y-43719110D01*
X170213217Y-43962573D01*
X170216910Y-44175718D01*
X170220140Y-44352415D01*
X170222799Y-44486530D01*
X170224775Y-44571932D01*
X170225961Y-44602488D01*
X170243501Y-44594214D01*
X170290445Y-44560899D01*
X170328086Y-44536056D01*
X170413698Y-44488069D01*
X170514260Y-44437909D01*
X170563942Y-44415509D01*
X170641453Y-44387693D01*
X170720783Y-44373388D01*
X170821583Y-44369807D01*
X170963500Y-44374162D01*
X171070251Y-44379625D01*
X171176098Y-44389845D01*
X171252235Y-44407499D01*
X171316716Y-44437252D01*
X171387596Y-44483771D01*
X171525331Y-44580855D01*
X171525331Y-43224581D01*
X171525331Y-41868307D01*
X170852943Y-41868307D01*
X170180554Y-41868307D01*
X167849804Y-41868307D01*
X167824786Y-41854846D01*
X167805283Y-41837814D01*
X167758257Y-41765441D01*
X167750221Y-41664374D01*
X167797889Y-41564944D01*
X167851479Y-41498762D01*
X169835756Y-41480509D01*
X171820033Y-41462255D01*
X171870881Y-41534851D01*
X171872997Y-41537966D01*
X171907486Y-41621127D01*
X171921729Y-41718010D01*
X171921729Y-41828574D01*
X172356243Y-41919311D01*
X172457225Y-41940338D01*
X172622131Y-41974565D01*
X172831448Y-42017932D01*
X173076987Y-42068746D01*
X173350555Y-42125312D01*
X173643964Y-42185935D01*
X173949021Y-42248922D01*
X174257536Y-42312578D01*
X175724316Y-42615109D01*
X176003215Y-43024839D01*
X176282113Y-43434569D01*
X176282113Y-42474313D01*
X176282114Y-42435978D01*
X176282364Y-42163065D01*
X176283749Y-41944158D01*
X176287255Y-41773055D01*
X176293866Y-41643556D01*
X176304568Y-41549460D01*
X176320347Y-41484565D01*
X176342187Y-41442671D01*
X176371074Y-41417576D01*
X176407993Y-41403079D01*
X176453930Y-41392980D01*
X176474458Y-41387838D01*
X176492146Y-41383513D01*
X176510399Y-41383182D01*
X176532896Y-41389967D01*
X176563316Y-41406994D01*
X176605336Y-41437386D01*
X176662635Y-41484265D01*
X176738892Y-41550757D01*
X176837785Y-41639983D01*
X176962993Y-41755069D01*
X177118194Y-41899138D01*
X177307067Y-42075313D01*
X177533290Y-42286719D01*
X177800542Y-42536478D01*
X178630013Y-43311371D01*
X178630013Y-45974142D01*
X178630013Y-48489604D01*
X178630013Y-48636912D01*
G37*
G36*
X162843748Y-41883553D02*
G01*
X161883833Y-41891597D01*
X160923919Y-41899642D01*
X160903736Y-43001926D01*
X160902929Y-43047416D01*
X160899016Y-43308768D01*
X160895375Y-43618008D01*
X160892083Y-43964219D01*
X160889218Y-44336486D01*
X160886855Y-44723890D01*
X160885073Y-45115517D01*
X160883946Y-45500450D01*
X160883554Y-45867771D01*
X160883554Y-46206812D01*
X160883554Y-47631332D01*
X161712065Y-47631332D01*
X161830452Y-47631373D01*
X162070493Y-47632244D01*
X162258561Y-47635284D01*
X162400992Y-47641830D01*
X162504125Y-47653216D01*
X162574295Y-47670780D01*
X162617841Y-47695857D01*
X162641099Y-47729784D01*
X162650407Y-47773897D01*
X162652101Y-47829531D01*
X162652268Y-47846733D01*
X162652498Y-47883223D01*
X162648942Y-47914300D01*
X162637202Y-47940420D01*
X162612878Y-47962040D01*
X162571569Y-47979615D01*
X162508876Y-47993604D01*
X162420400Y-48004462D01*
X162301740Y-48012647D01*
X162148496Y-48018616D01*
X161956270Y-48022824D01*
X161720660Y-48025729D01*
X161437268Y-48027788D01*
X161101693Y-48029457D01*
X160709536Y-48031194D01*
X160317763Y-48033190D01*
X159978972Y-48034946D01*
X159692489Y-48035812D01*
X159453958Y-48035157D01*
X159259024Y-48032348D01*
X159103329Y-48026754D01*
X158982519Y-48017742D01*
X158892235Y-48004680D01*
X158828123Y-47986937D01*
X158785827Y-47963881D01*
X158760989Y-47934879D01*
X158749253Y-47899299D01*
X158746264Y-47856510D01*
X158747665Y-47805879D01*
X158749100Y-47746775D01*
X158746069Y-47666341D01*
X158736209Y-47601859D01*
X158721880Y-47583571D01*
X158717419Y-47585240D01*
X158665930Y-47598259D01*
X158563185Y-47621629D01*
X158415734Y-47653941D01*
X158230123Y-47693787D01*
X158012901Y-47739757D01*
X157770616Y-47790442D01*
X157509815Y-47844432D01*
X157437368Y-47859357D01*
X157178474Y-47912749D01*
X156938226Y-47962380D01*
X156723472Y-48006831D01*
X156541061Y-48044681D01*
X156397840Y-48074509D01*
X156300658Y-48094895D01*
X156256363Y-48104419D01*
X156234605Y-48110778D01*
X156204321Y-48134714D01*
X156190833Y-48186384D01*
X156187756Y-48282347D01*
X156187533Y-48294622D01*
X156187021Y-48322763D01*
X156182820Y-48361997D01*
X156172180Y-48404764D01*
X156152128Y-48456356D01*
X156119691Y-48522064D01*
X156071896Y-48607180D01*
X156005768Y-48716995D01*
X155918336Y-48856800D01*
X155806626Y-49031888D01*
X155667664Y-49247550D01*
X155498478Y-49509077D01*
X155430737Y-49613625D01*
X155284744Y-49838289D01*
X155149327Y-50045804D01*
X155028230Y-50230486D01*
X154925198Y-50386650D01*
X154843976Y-50508612D01*
X154788308Y-50590687D01*
X154761940Y-50627190D01*
X154761391Y-50627806D01*
X154739845Y-50645553D01*
X154706054Y-50658854D01*
X154651896Y-50668333D01*
X154569248Y-50674617D01*
X154449987Y-50678331D01*
X154285991Y-50680101D01*
X154069137Y-50680552D01*
X153898813Y-50680442D01*
X153725849Y-50679546D01*
X153598947Y-50677046D01*
X153509688Y-50672126D01*
X153449648Y-50663972D01*
X153410408Y-50651767D01*
X153383546Y-50634696D01*
X153360641Y-50611944D01*
X153359057Y-50610144D01*
X153325636Y-50564870D01*
X153263740Y-50474981D01*
X153177428Y-50346596D01*
X153070763Y-50185832D01*
X152947805Y-49998805D01*
X152812614Y-49791634D01*
X152669252Y-49570435D01*
X152040817Y-48597533D01*
X152040817Y-48500360D01*
X152468548Y-48500360D01*
X153042227Y-49384633D01*
X153615907Y-50268907D01*
X154058505Y-50277318D01*
X154501104Y-50285728D01*
X155146904Y-49290175D01*
X155792704Y-48294622D01*
X155784407Y-47745006D01*
X155776111Y-47195390D01*
X155746655Y-47180213D01*
X159145499Y-47180213D01*
X159145499Y-47405773D01*
X159145499Y-47631332D01*
X159796249Y-47631332D01*
X160447000Y-47631332D01*
X160467078Y-47031831D01*
X160473083Y-46842155D01*
X160478713Y-46642403D01*
X160483169Y-46460309D01*
X160486100Y-46310303D01*
X160487155Y-46206812D01*
X160486934Y-46124568D01*
X160484076Y-46044605D01*
X160474928Y-46008438D01*
X160455827Y-46005733D01*
X160423110Y-46026155D01*
X160385863Y-46056662D01*
X160309615Y-46123062D01*
X160201509Y-46219076D01*
X160068169Y-46338785D01*
X159916219Y-46476270D01*
X159752281Y-46625614D01*
X159145499Y-47180213D01*
X155746655Y-47180213D01*
X154922885Y-46755765D01*
X154817828Y-46701451D01*
X154615103Y-46595555D01*
X154433089Y-46499052D01*
X154278513Y-46415596D01*
X154158105Y-46348840D01*
X154078591Y-46302436D01*
X154046701Y-46280039D01*
X154044296Y-46264774D01*
X154040545Y-46193770D01*
X154037020Y-46069928D01*
X154033774Y-45898286D01*
X154033535Y-45880705D01*
X154419208Y-45880705D01*
X154419208Y-46031910D01*
X155185928Y-46427599D01*
X155217607Y-46443938D01*
X155414931Y-46545242D01*
X155594187Y-46636493D01*
X155748167Y-46714079D01*
X155869660Y-46774385D01*
X155951457Y-46813800D01*
X155986348Y-46828710D01*
X156014365Y-46827444D01*
X156089741Y-46815141D01*
X156187756Y-46793850D01*
X156245761Y-46780640D01*
X156362850Y-46755194D01*
X156521206Y-46721530D01*
X156710653Y-46681792D01*
X156921017Y-46638127D01*
X157142122Y-46592678D01*
X157928782Y-46431788D01*
X158339329Y-45827317D01*
X158749876Y-45222845D01*
X158769612Y-44188919D01*
X158787906Y-43230525D01*
X159175991Y-43230525D01*
X159175991Y-44592743D01*
X159245015Y-44527898D01*
X159294901Y-44486455D01*
X159422851Y-44418835D01*
X159585014Y-44380866D01*
X159792479Y-44369337D01*
X159938510Y-44374335D01*
X160069811Y-44393475D01*
X160176825Y-44429822D01*
X160207627Y-44444352D01*
X160312257Y-44499839D01*
X160397894Y-44553197D01*
X160487155Y-44616757D01*
X160487372Y-43448354D01*
X160487376Y-43434642D01*
X160487984Y-43164390D01*
X160489521Y-42905710D01*
X160491870Y-42666838D01*
X160494913Y-42456008D01*
X160498532Y-42281457D01*
X160502609Y-42151419D01*
X160507028Y-42074129D01*
X160526466Y-41868307D01*
X159851229Y-41868307D01*
X159175991Y-41868307D01*
X159175991Y-43154992D01*
X159175991Y-43230525D01*
X158787906Y-43230525D01*
X158789348Y-43154992D01*
X157923066Y-43333300D01*
X157665149Y-43386405D01*
X157274916Y-43466852D01*
X156938705Y-43536313D01*
X156652918Y-43595550D01*
X156413955Y-43645323D01*
X156218218Y-43686393D01*
X156062106Y-43719521D01*
X155942022Y-43745467D01*
X155854365Y-43764994D01*
X155795537Y-43778860D01*
X155761938Y-43787828D01*
X155749970Y-43792657D01*
X155734247Y-43815683D01*
X155688058Y-43884127D01*
X155615360Y-43992140D01*
X155520045Y-44133933D01*
X155406005Y-44303714D01*
X155277132Y-44495694D01*
X155137320Y-44704081D01*
X155014011Y-44887449D01*
X154879162Y-45086867D01*
X154756705Y-45266788D01*
X154650930Y-45420965D01*
X154566126Y-45543149D01*
X154506581Y-45627094D01*
X154476586Y-45666550D01*
X154471902Y-45671910D01*
X154431802Y-45754772D01*
X154419208Y-45880705D01*
X154033535Y-45880705D01*
X154030864Y-45683877D01*
X154028344Y-45431739D01*
X154026270Y-45146907D01*
X154024697Y-44834418D01*
X154023681Y-44499306D01*
X154023277Y-44146607D01*
X154022810Y-42049278D01*
X153245739Y-42774459D01*
X152468668Y-43499639D01*
X152468608Y-45999999D01*
X152468548Y-48500360D01*
X152040817Y-48500360D01*
X152040817Y-45984091D01*
X152040822Y-45800411D01*
X152040908Y-45363002D01*
X152041167Y-44981172D01*
X152041681Y-44651013D01*
X152042534Y-44368622D01*
X152043809Y-44130092D01*
X152045589Y-43931517D01*
X152047958Y-43768993D01*
X152050999Y-43638613D01*
X152054795Y-43536472D01*
X152059430Y-43458664D01*
X152064986Y-43401284D01*
X152071548Y-43360426D01*
X152079198Y-43332185D01*
X152088019Y-43312654D01*
X152098095Y-43297929D01*
X152119104Y-43274101D01*
X152185381Y-43206396D01*
X152285980Y-43108048D01*
X152415282Y-42984236D01*
X152567666Y-42840139D01*
X152737515Y-42680936D01*
X152919208Y-42511805D01*
X153107126Y-42337925D01*
X153295649Y-42164475D01*
X153479160Y-41996634D01*
X153652038Y-41839581D01*
X153808664Y-41698495D01*
X153943419Y-41578554D01*
X154050683Y-41484938D01*
X154124838Y-41422824D01*
X154160264Y-41397393D01*
X154180309Y-41390705D01*
X154246545Y-41389591D01*
X154320170Y-41431162D01*
X154403962Y-41493707D01*
X154412023Y-42465680D01*
X154420084Y-43437653D01*
X154693914Y-43026509D01*
X154967743Y-42615366D01*
X156240955Y-42352291D01*
X156286892Y-42342800D01*
X156589765Y-42280229D01*
X156898457Y-42216470D01*
X157202045Y-42153777D01*
X157489604Y-42094407D01*
X157750212Y-42040614D01*
X157972945Y-41994654D01*
X158146879Y-41958781D01*
X158779592Y-41828346D01*
X158779592Y-41700591D01*
X158793352Y-41592585D01*
X158840718Y-41517518D01*
X158842673Y-41515783D01*
X158857973Y-41504894D01*
X158879853Y-41495671D01*
X158912848Y-41488033D01*
X158961491Y-41481894D01*
X159030315Y-41477171D01*
X159123853Y-41473779D01*
X159246639Y-41471636D01*
X159403206Y-41470656D01*
X159598087Y-41470756D01*
X159835816Y-41471851D01*
X160120926Y-41473859D01*
X160457950Y-41476694D01*
X160851422Y-41480274D01*
X160922097Y-41480941D01*
X161352023Y-41485575D01*
X161731280Y-41490712D01*
X162058395Y-41496316D01*
X162331893Y-41502350D01*
X162550303Y-41508779D01*
X162712149Y-41515564D01*
X162815959Y-41522671D01*
X162860258Y-41530062D01*
X162882738Y-41544859D01*
X162933795Y-41618855D01*
X162941385Y-41712545D01*
X162902318Y-41805085D01*
X162855128Y-41868307D01*
X162843748Y-41883553D01*
G37*
G36*
X169663168Y-43815731D02*
G01*
X169664624Y-44256609D01*
X169665137Y-44758422D01*
X169665176Y-45050294D01*
X169665158Y-45443885D01*
X169664776Y-45783687D01*
X169663726Y-46074030D01*
X169661703Y-46319245D01*
X169658405Y-46523664D01*
X169653527Y-46691618D01*
X169646764Y-46827438D01*
X169637814Y-46935455D01*
X169626371Y-47019999D01*
X169612133Y-47085403D01*
X169594794Y-47135996D01*
X169574052Y-47176111D01*
X169549601Y-47210078D01*
X169521138Y-47242229D01*
X169488359Y-47276894D01*
X169474411Y-47290910D01*
X169383938Y-47362733D01*
X169284154Y-47421062D01*
X169275122Y-47425070D01*
X169253578Y-47432989D01*
X169226294Y-47440071D01*
X169190019Y-47446364D01*
X169141504Y-47451915D01*
X169077500Y-47456772D01*
X168994756Y-47460981D01*
X168890023Y-47464589D01*
X168760052Y-47467645D01*
X168601593Y-47470196D01*
X168411396Y-47472288D01*
X168186211Y-47473969D01*
X167922790Y-47475286D01*
X167617882Y-47476287D01*
X167268237Y-47477019D01*
X166870607Y-47477529D01*
X166421741Y-47477865D01*
X165918390Y-47478073D01*
X165357305Y-47478201D01*
X164808842Y-47478239D01*
X164298562Y-47478122D01*
X163843030Y-47477806D01*
X163439078Y-47477256D01*
X163083535Y-47476433D01*
X162773231Y-47475299D01*
X162504996Y-47473816D01*
X162275660Y-47471947D01*
X162082054Y-47469654D01*
X161921007Y-47466900D01*
X161789349Y-47463646D01*
X161683910Y-47459854D01*
X161601521Y-47455488D01*
X161539011Y-47450508D01*
X161493210Y-47444878D01*
X161460949Y-47438560D01*
X161439057Y-47431515D01*
X161351621Y-47386760D01*
X161201768Y-47261499D01*
X161093824Y-47097718D01*
X161083328Y-47072576D01*
X161074045Y-47042225D01*
X161066099Y-47002829D01*
X161059386Y-46950058D01*
X161053804Y-46879585D01*
X161049248Y-46787082D01*
X161045616Y-46668220D01*
X161042804Y-46518671D01*
X161040708Y-46334107D01*
X161039225Y-46110199D01*
X161038251Y-45842621D01*
X161037684Y-45527042D01*
X161037420Y-45159136D01*
X161037354Y-44734573D01*
X161037407Y-44359736D01*
X161037654Y-43984660D01*
X161038199Y-43662459D01*
X161039142Y-43388810D01*
X161040587Y-43159388D01*
X161042633Y-42969867D01*
X161045384Y-42815922D01*
X161048940Y-42693230D01*
X161053403Y-42597464D01*
X161055231Y-42573028D01*
X161432414Y-42573028D01*
X161432414Y-44738619D01*
X161432414Y-46904210D01*
X161521545Y-46993341D01*
X161610676Y-47082472D01*
X165346615Y-47082472D01*
X169082554Y-47082472D01*
X169168108Y-47008891D01*
X169253662Y-46935311D01*
X169261887Y-44782610D01*
X169262636Y-44588592D01*
X169264142Y-44186124D01*
X169265118Y-43838631D01*
X169265267Y-43541932D01*
X169264294Y-43291843D01*
X169261904Y-43084184D01*
X169257800Y-42914770D01*
X169251688Y-42779420D01*
X169243272Y-42673951D01*
X169232256Y-42594181D01*
X169218345Y-42535927D01*
X169201242Y-42495007D01*
X169180654Y-42467238D01*
X169156284Y-42448439D01*
X169127836Y-42434425D01*
X169095016Y-42421016D01*
X169091108Y-42419732D01*
X169053428Y-42414267D01*
X168981535Y-42409439D01*
X168873199Y-42405233D01*
X168726188Y-42401633D01*
X168538272Y-42398622D01*
X168307220Y-42396185D01*
X168030801Y-42394306D01*
X167706785Y-42392969D01*
X167332939Y-42392157D01*
X166907035Y-42391856D01*
X166426840Y-42392049D01*
X165890124Y-42392719D01*
X165294656Y-42393852D01*
X161579587Y-42401920D01*
X161506000Y-42487474D01*
X161432414Y-42573028D01*
X161055231Y-42573028D01*
X161058875Y-42524300D01*
X161065457Y-42469414D01*
X161073252Y-42428479D01*
X161082359Y-42397172D01*
X161092882Y-42371166D01*
X161117728Y-42323564D01*
X161218818Y-42193096D01*
X161347890Y-42086847D01*
X161484941Y-42022601D01*
X161511323Y-42019025D01*
X161598808Y-42014005D01*
X161739578Y-42009439D01*
X161929062Y-42005323D01*
X162162690Y-42001653D01*
X162435890Y-41998427D01*
X162744092Y-41995642D01*
X163082725Y-41993295D01*
X163447219Y-41991382D01*
X163833003Y-41989900D01*
X164235506Y-41988847D01*
X164650157Y-41988220D01*
X165072385Y-41988014D01*
X165497621Y-41988229D01*
X165921293Y-41988859D01*
X166338830Y-41989902D01*
X166745662Y-41991356D01*
X167137218Y-41993217D01*
X167508927Y-41995481D01*
X167856219Y-41998147D01*
X168174523Y-42001211D01*
X168459267Y-42004669D01*
X168705882Y-42008519D01*
X168909797Y-42012758D01*
X169066441Y-42017382D01*
X169171243Y-42022389D01*
X169219632Y-42027776D01*
X169236167Y-42033208D01*
X169359172Y-42099280D01*
X169478243Y-42200527D01*
X169575324Y-42319050D01*
X169632358Y-42436947D01*
X169634592Y-42447657D01*
X169641720Y-42523838D01*
X169647901Y-42660694D01*
X169653136Y-42858268D01*
X169657425Y-43116603D01*
X169660769Y-43435743D01*
X169661439Y-43541932D01*
X169663168Y-43815731D01*
G37*
G36*
X168155613Y-44852731D02*
G01*
X168152389Y-44972516D01*
X168142857Y-45061498D01*
X168123610Y-45137141D01*
X168091239Y-45216909D01*
X168042335Y-45318267D01*
X167942495Y-45486693D01*
X167766223Y-45692059D01*
X167554650Y-45858459D01*
X167317508Y-45978655D01*
X167064528Y-46045411D01*
X166875807Y-46060311D01*
X166600380Y-46035688D01*
X166342906Y-45958259D01*
X166109618Y-45832564D01*
X165906752Y-45663141D01*
X165740545Y-45454529D01*
X165617230Y-45211267D01*
X165543044Y-44937893D01*
X165534239Y-44874498D01*
X165533736Y-44734573D01*
X166144586Y-44734573D01*
X166152182Y-44843406D01*
X166207564Y-45040482D01*
X166313246Y-45206034D01*
X166465285Y-45334801D01*
X166659737Y-45421523D01*
X166716419Y-45437611D01*
X166828691Y-45459484D01*
X166926790Y-45457054D01*
X167040044Y-45431057D01*
X167178669Y-45375339D01*
X167334215Y-45263763D01*
X167451611Y-45119302D01*
X167528082Y-44951895D01*
X167560854Y-44771485D01*
X167547151Y-44588013D01*
X167484199Y-44411421D01*
X167369224Y-44251649D01*
X167241577Y-44143444D01*
X167064550Y-44055561D01*
X166878349Y-44020806D01*
X166692352Y-44038037D01*
X166515935Y-44106115D01*
X166358476Y-44223899D01*
X166229350Y-44390250D01*
X166215985Y-44413474D01*
X166170856Y-44509801D01*
X166149498Y-44606915D01*
X166144586Y-44734573D01*
X165533736Y-44734573D01*
X165533277Y-44606649D01*
X165587840Y-44345978D01*
X165693574Y-44100797D01*
X165846126Y-43879421D01*
X166041144Y-43690163D01*
X166274273Y-43541338D01*
X166344376Y-43506830D01*
X166420102Y-43474479D01*
X166491738Y-43454414D01*
X166575550Y-43443707D01*
X166687808Y-43439430D01*
X166844779Y-43438655D01*
X166949716Y-43438941D01*
X167078227Y-43441836D01*
X167172671Y-43450208D01*
X167249611Y-43466888D01*
X167325611Y-43494706D01*
X167417234Y-43536492D01*
X167508607Y-43584642D01*
X167729486Y-43745164D01*
X167916886Y-43946971D01*
X168058105Y-44177364D01*
X168079724Y-44223587D01*
X168115218Y-44307671D01*
X168137567Y-44383717D01*
X168149790Y-44468977D01*
X168154908Y-44580705D01*
X168155943Y-44736155D01*
X168155843Y-44771485D01*
X168155613Y-44852731D01*
G37*
G36*
X165149564Y-44937867D02*
G01*
X165137589Y-45007672D01*
X165057361Y-45261631D01*
X164927537Y-45492866D01*
X164755389Y-45694018D01*
X164548185Y-45857725D01*
X164313198Y-45976626D01*
X164057698Y-46043358D01*
X163863940Y-46058798D01*
X163583735Y-46034481D01*
X163322992Y-45956028D01*
X163087553Y-45826918D01*
X162883260Y-45650627D01*
X162715954Y-45430635D01*
X162591477Y-45170419D01*
X162583327Y-45147535D01*
X162553008Y-45047485D01*
X162536511Y-44950879D01*
X162531368Y-44836353D01*
X162532843Y-44775738D01*
X163125999Y-44775738D01*
X163166905Y-44956030D01*
X163250447Y-45125934D01*
X163368362Y-45269475D01*
X163512385Y-45370677D01*
X163591854Y-45404556D01*
X163795412Y-45450330D01*
X163992866Y-45437255D01*
X164178182Y-45366290D01*
X164345324Y-45238394D01*
X164452224Y-45105196D01*
X164532840Y-44927771D01*
X164560618Y-44742329D01*
X164537011Y-44558354D01*
X164463472Y-44385332D01*
X164341456Y-44232748D01*
X164172414Y-44110088D01*
X164096574Y-44074161D01*
X163903944Y-44025914D01*
X163712307Y-44033427D01*
X163531644Y-44093981D01*
X163371933Y-44204855D01*
X163243156Y-44363331D01*
X163204958Y-44432722D01*
X163156469Y-44542326D01*
X163130040Y-44631532D01*
X163125999Y-44775738D01*
X162532843Y-44775738D01*
X162535112Y-44682544D01*
X162537183Y-44635787D01*
X162547387Y-44495113D01*
X162565294Y-44386978D01*
X162595713Y-44289026D01*
X162643452Y-44178904D01*
X162669801Y-44125444D01*
X162822598Y-43891838D01*
X163017534Y-43701795D01*
X163257603Y-43552263D01*
X163335889Y-43514106D01*
X163419281Y-43477923D01*
X163494139Y-43455669D01*
X163577841Y-43443962D01*
X163687767Y-43439418D01*
X163841297Y-43438655D01*
X163962503Y-43439010D01*
X164081252Y-43442319D01*
X164169666Y-43451992D01*
X164245159Y-43471438D01*
X164325148Y-43504065D01*
X164427050Y-43553281D01*
X164435023Y-43557252D01*
X164675003Y-43709747D01*
X164870779Y-43901243D01*
X165019237Y-44125772D01*
X165117264Y-44377364D01*
X165161745Y-44650052D01*
X165157840Y-44742329D01*
X165149564Y-44937867D01*
G37*
%TD*%
M02*
