%TF.GenerationSoftware,KiCad,Pcbnew,9.0.1-9.0.1-0~ubuntu22.04.1*%
%TF.CreationDate,2025-05-27T19:15:10+02:00*%
%TF.ProjectId,kame32-pcb,6b616d65-3332-42d7-9063-622e6b696361,rev?*%
%TF.SameCoordinates,Original*%
%TF.FileFunction,Copper,L1,Top*%
%TF.FilePolarity,Positive*%
%FSLAX46Y46*%
G04 Gerber Fmt 4.6, Leading zero omitted, Abs format (unit mm)*
G04 Created by KiCad (PCBNEW 9.0.1-9.0.1-0~ubuntu22.04.1) date 2025-05-27 19:15:10*
%MOMM*%
%LPD*%
G01*
G04 APERTURE LIST*
%TA.AperFunction,ComponentPad*%
%ADD10R,1.700000X1.700000*%
%TD*%
%TA.AperFunction,ComponentPad*%
%ADD11C,1.700000*%
%TD*%
%TA.AperFunction,ComponentPad*%
%ADD12C,1.400000*%
%TD*%
%TA.AperFunction,ComponentPad*%
%ADD13O,1.400000X1.400000*%
%TD*%
%TA.AperFunction,ComponentPad*%
%ADD14R,1.600000X1.600000*%
%TD*%
%TA.AperFunction,ComponentPad*%
%ADD15C,1.600000*%
%TD*%
%TA.AperFunction,ComponentPad*%
%ADD16C,4.000000*%
%TD*%
%TA.AperFunction,Conductor*%
%ADD17C,1.200000*%
%TD*%
%TA.AperFunction,Conductor*%
%ADD18C,0.200000*%
%TD*%
%TA.AperFunction,Conductor*%
%ADD19C,0.500000*%
%TD*%
G04 APERTURE END LIST*
D10*
%TO.P,U1,1,-Vin*%
%TO.N,-BATT*%
X189005600Y-38303200D03*
D11*
%TO.P,U1,2,+Vin*%
%TO.N,+8V*%
X197205600Y-53103200D03*
D10*
%TO.P,U1,3,-Vout*%
%TO.N,-BATT*%
X189005600Y-53103200D03*
D11*
%TO.P,U1,4,+Vout*%
%TO.N,/Vs1*%
X197205600Y-38303200D03*
%TD*%
%TO.P,J3,1,Pin_1*%
%TO.N,Net-(J3-Pin_1)*%
X180340000Y-55880000D03*
%TO.P,J3,2,Pin_2*%
%TO.N,Net-(J3-Pin_2)*%
X180340000Y-53340000D03*
%TO.P,J3,3,Pin_3*%
%TO.N,Net-(J3-Pin_3)*%
X180340000Y-50800000D03*
%TO.P,J3,4,Pin_4*%
%TO.N,Net-(J3-Pin_4)*%
X180340000Y-48260000D03*
%TD*%
D12*
%TO.P,R2,1*%
%TO.N,Net-(U2-D27)*%
X167640000Y-53340000D03*
D13*
%TO.P,R2,2*%
%TO.N,-BATT*%
X160020000Y-53340000D03*
%TD*%
D11*
%TO.P,J7,1,Pin_1*%
%TO.N,Net-(J7-Pin_1)*%
X175260000Y-55880000D03*
%TO.P,J7,2,Pin_2*%
%TO.N,Net-(J7-Pin_2)*%
X172720000Y-55880000D03*
%TO.P,J7,3,Pin_3*%
%TO.N,Net-(J7-Pin_3)*%
X170180000Y-55880000D03*
%TO.P,J7,4,Pin_4*%
%TO.N,Net-(J7-Pin_4)*%
X167640000Y-55880000D03*
%TO.P,J7,5,Pin_5*%
%TO.N,Net-(J7-Pin_5)*%
X165100000Y-55880000D03*
%TD*%
%TO.P,J4,1,Pin_1*%
%TO.N,Net-(J4-Pin_1)*%
X180340000Y-43180000D03*
%TO.P,J4,2,Pin_2*%
%TO.N,Net-(J4-Pin_2)*%
X180340000Y-40640000D03*
%TO.P,J4,3,Pin_3*%
%TO.N,Net-(J4-Pin_3)*%
X180340000Y-38100000D03*
%TO.P,J4,4,Pin_4*%
%TO.N,Net-(J4-Pin_4)*%
X180340000Y-35560000D03*
%TD*%
D12*
%TO.P,R1,1*%
%TO.N,+8V*%
X160020000Y-50800000D03*
D13*
%TO.P,R1,2*%
%TO.N,Net-(U2-D27)*%
X167640000Y-50800000D03*
%TD*%
D11*
%TO.P,J5,1,Pin_1*%
%TO.N,+BATT*%
X157480000Y-36830000D03*
D10*
%TO.P,J5,2,Pin_2*%
%TO.N,-BATT*%
X154940000Y-36830000D03*
%TD*%
D11*
%TO.P,J8,1,Pin_1*%
%TO.N,+8V*%
X160020000Y-35560000D03*
%TO.P,J8,2,Pin_2*%
%TO.N,-BATT*%
X162560000Y-35560000D03*
%TO.P,J8,3,Pin_3*%
%TO.N,Net-(J8-Pin_3)*%
X165100000Y-35560000D03*
%TO.P,J8,4,Pin_4*%
%TO.N,Net-(J8-Pin_4)*%
X167640000Y-35560000D03*
%TO.P,J8,5,Pin_5*%
%TO.N,Net-(J8-Pin_5)*%
X170180000Y-35560000D03*
%TD*%
D14*
%TO.P,C1,1*%
%TO.N,/Vs1*%
X205169887Y-33655000D03*
D15*
%TO.P,C1,2*%
%TO.N,-BATT*%
X207669887Y-33655000D03*
%TD*%
D14*
%TO.P,C2,1*%
%TO.N,/Vs2*%
X205169888Y-57785000D03*
D15*
%TO.P,C2,2*%
%TO.N,-BATT*%
X207669888Y-57785000D03*
%TD*%
D16*
%TO.P,SW1,1,A*%
%TO.N,unconnected-(SW1-A-Pad1)*%
X214630000Y-40920000D03*
%TO.P,SW1,2,B*%
%TO.N,+BATT*%
X214630000Y-45720000D03*
%TO.P,SW1,3,C*%
%TO.N,+8V*%
X214630000Y-50520000D03*
%TD*%
D11*
%TO.P,J2,1,Pin_1*%
%TO.N,/Vs1*%
X182880000Y-35560000D03*
%TO.P,J2,2,Pin_2*%
%TO.N,-BATT*%
X185420000Y-35560000D03*
%TO.P,J2,3,Pin_3*%
%TO.N,/Vs1*%
X182880000Y-38100000D03*
%TO.P,J2,4,Pin_4*%
%TO.N,-BATT*%
X185420000Y-38100000D03*
%TO.P,J2,5,Pin_5*%
%TO.N,/Vs1*%
X182880000Y-40640000D03*
%TO.P,J2,6,Pin_6*%
%TO.N,-BATT*%
X185420000Y-40640000D03*
%TO.P,J2,7,Pin_7*%
%TO.N,/Vs1*%
X182880000Y-43180000D03*
%TO.P,J2,8,Pin_8*%
%TO.N,-BATT*%
X185420000Y-43180000D03*
%TD*%
%TO.P,U2,1,VIN*%
%TO.N,+8V*%
X160020000Y-33020000D03*
%TO.P,U2,2,GND*%
%TO.N,-BATT*%
X162560000Y-33020000D03*
%TO.P,U2,3,D13*%
%TO.N,Net-(J8-Pin_3)*%
X165100000Y-33020000D03*
%TO.P,U2,4,D12*%
%TO.N,Net-(J8-Pin_4)*%
X167640000Y-33020000D03*
%TO.P,U2,5,D14*%
%TO.N,Net-(J8-Pin_5)*%
X170180000Y-33020000D03*
%TO.P,U2,6,D27*%
%TO.N,Net-(U2-D27)*%
X172720000Y-33020000D03*
%TO.P,U2,7,D26*%
%TO.N,Net-(J4-Pin_1)*%
X175260000Y-33020000D03*
%TO.P,U2,8,D25*%
%TO.N,Net-(J4-Pin_2)*%
X177800000Y-33020000D03*
%TO.P,U2,9,E33*%
%TO.N,Net-(J4-Pin_3)*%
X180340000Y-33020000D03*
%TO.P,U2,10,D32*%
%TO.N,Net-(J4-Pin_4)*%
X182880000Y-33020000D03*
%TO.P,U2,11,D35*%
%TO.N,unconnected-(U2-D35-Pad11)*%
X185420000Y-33020000D03*
%TO.P,U2,12,D34*%
%TO.N,unconnected-(U2-D34-Pad12)*%
X187960000Y-33020000D03*
%TO.P,U2,13,VN*%
%TO.N,unconnected-(U2-VN-Pad13)*%
X190500000Y-33020000D03*
%TO.P,U2,14,VP*%
%TO.N,unconnected-(U2-VP-Pad14)*%
X193040000Y-33020000D03*
%TO.P,U2,15,EN*%
%TO.N,unconnected-(U2-EN-Pad15)*%
X195580000Y-33020000D03*
%TO.P,U2,16,3V3*%
%TO.N,unconnected-(U2-3V3-Pad16)*%
X160020000Y-58420000D03*
%TO.P,U2,17,GND*%
%TO.N,-BATT*%
X162560000Y-58420000D03*
%TO.P,U2,18,D15*%
%TO.N,Net-(J7-Pin_5)*%
X165100000Y-58420000D03*
%TO.P,U2,19,D2*%
%TO.N,Net-(J7-Pin_4)*%
X167640000Y-58420000D03*
%TO.P,U2,20,D4*%
%TO.N,Net-(J7-Pin_3)*%
X170180000Y-58420000D03*
%TO.P,U2,21,RX2*%
%TO.N,Net-(J7-Pin_2)*%
X172720000Y-58420000D03*
%TO.P,U2,22,TX2*%
%TO.N,Net-(J7-Pin_1)*%
X175260000Y-58420000D03*
%TO.P,U2,23,D5*%
%TO.N,Net-(J3-Pin_4)*%
X177800000Y-58420000D03*
%TO.P,U2,24,D18*%
%TO.N,Net-(J3-Pin_3)*%
X180340000Y-58420000D03*
%TO.P,U2,25,D19*%
%TO.N,Net-(J3-Pin_2)*%
X182880000Y-58420000D03*
%TO.P,U2,26,D21*%
%TO.N,Net-(J3-Pin_1)*%
X185420000Y-58420000D03*
%TO.P,U2,27,RX0*%
%TO.N,unconnected-(U2-RX0-Pad27)*%
X187960000Y-58420000D03*
%TO.P,U2,28,TX0*%
%TO.N,unconnected-(U2-TX0-Pad28)*%
X190500000Y-58420000D03*
%TO.P,U2,29,D22*%
%TO.N,unconnected-(U2-D22-Pad29)*%
X193040000Y-58420000D03*
%TO.P,U2,30,D23*%
%TO.N,unconnected-(U2-D23-Pad30)*%
X195580000Y-58420000D03*
%TD*%
%TO.P,J6,8,Pin_8*%
%TO.N,-BATT*%
X185420000Y-55880000D03*
%TO.P,J6,7,Pin_7*%
%TO.N,/Vs2*%
X182880000Y-55880000D03*
%TO.P,J6,6,Pin_6*%
%TO.N,-BATT*%
X185420000Y-53340000D03*
%TO.P,J6,5,Pin_5*%
%TO.N,/Vs2*%
X182880000Y-53340000D03*
%TO.P,J6,4,Pin_4*%
%TO.N,-BATT*%
X185420000Y-50800000D03*
%TO.P,J6,3,Pin_3*%
%TO.N,/Vs2*%
X182880000Y-50800000D03*
%TO.P,J6,2,Pin_2*%
%TO.N,-BATT*%
X185420000Y-48260000D03*
%TO.P,J6,1,Pin_1*%
%TO.N,/Vs2*%
X182880000Y-48260000D03*
%TD*%
%TO.P,U3,4,+Vout*%
%TO.N,/Vs2*%
X210028400Y-38303200D03*
D10*
%TO.P,U3,3,-Vout*%
%TO.N,-BATT*%
X201828400Y-53103200D03*
D11*
%TO.P,U3,2,+Vin*%
%TO.N,+8V*%
X210028400Y-53103200D03*
D10*
%TO.P,U3,1,-Vin*%
%TO.N,-BATT*%
X201828400Y-38303200D03*
%TD*%
D17*
%TO.N,/Vs2*%
X204470000Y-46482000D02*
X205169888Y-46482000D01*
X205169888Y-46482000D02*
X205169888Y-46990000D01*
X204470000Y-46482000D02*
X204661888Y-46482000D01*
X204661888Y-46482000D02*
X205169888Y-46990000D01*
X205169888Y-46990000D02*
X205169888Y-57785000D01*
X205169888Y-46482000D02*
X205232000Y-46482000D01*
X205232000Y-46482000D02*
X210028400Y-41685600D01*
X210028400Y-41685600D02*
X210028400Y-38303200D01*
X182880000Y-48260000D02*
X182880000Y-50800000D01*
X182880000Y-50800000D02*
X182880000Y-53340000D01*
X182880000Y-55880000D02*
X182880000Y-53340000D01*
%TO.N,/Vs1*%
X182880000Y-43180000D02*
X182880000Y-40640000D01*
X182880000Y-40640000D02*
X182880000Y-38100000D01*
X182880000Y-35560000D02*
X182880000Y-38100000D01*
D18*
%TO.N,Net-(J4-Pin_3)*%
X180340000Y-38100000D02*
X178816000Y-36576000D01*
X178816000Y-34544000D02*
X180340000Y-33020000D01*
X178816000Y-36576000D02*
X178816000Y-34544000D01*
%TO.N,Net-(J3-Pin_3)*%
X180340000Y-50800000D02*
X178816000Y-52324000D01*
X178816000Y-52324000D02*
X178816000Y-56896000D01*
X178816000Y-56896000D02*
X180340000Y-58420000D01*
%TO.N,Net-(J3-Pin_1)*%
X180340000Y-55880000D02*
X181610000Y-57150000D01*
X181610000Y-57150000D02*
X184150000Y-57150000D01*
X184150000Y-57150000D02*
X185420000Y-58420000D01*
%TO.N,Net-(J4-Pin_1)*%
X180340000Y-43180000D02*
X175260000Y-38100000D01*
X175260000Y-38100000D02*
X175260000Y-33020000D01*
%TO.N,Net-(J4-Pin_2)*%
X180340000Y-40640000D02*
X177800000Y-38100000D01*
X177800000Y-38100000D02*
X177800000Y-33020000D01*
%TO.N,Net-(J4-Pin_4)*%
X180340000Y-35560000D02*
X182880000Y-33020000D01*
%TO.N,Net-(J3-Pin_4)*%
X180340000Y-48260000D02*
X177800000Y-50800000D01*
X177800000Y-50800000D02*
X177800000Y-58420000D01*
D17*
%TO.N,/Vs1*%
X197205600Y-38303200D02*
X201853800Y-33655000D01*
X201853800Y-33655000D02*
X205169887Y-33655000D01*
%TO.N,+8V*%
X214630000Y-51435000D02*
X214630000Y-50520000D01*
X160020000Y-33020000D02*
X160020000Y-35560000D01*
X160020000Y-50800000D02*
X160020000Y-35560000D01*
%TO.N,-BATT*%
X162560000Y-33020000D02*
X162560000Y-35560000D01*
D19*
%TO.N,Net-(J7-Pin_3)*%
X170180000Y-55880000D02*
X170180000Y-58420000D01*
%TO.N,Net-(J7-Pin_4)*%
X167640000Y-55880000D02*
X167640000Y-58420000D01*
%TO.N,Net-(J7-Pin_1)*%
X175260000Y-55880000D02*
X175260000Y-58420000D01*
%TO.N,Net-(J7-Pin_2)*%
X172720000Y-55880000D02*
X172720000Y-58420000D01*
%TO.N,Net-(J7-Pin_5)*%
X165100000Y-55880000D02*
X165100000Y-58420000D01*
%TO.N,Net-(U2-D27)*%
X167640000Y-50800000D02*
X172720000Y-45720000D01*
X172720000Y-45720000D02*
X172720000Y-33020000D01*
X167640000Y-53340000D02*
X167640000Y-50800000D01*
%TO.N,Net-(J8-Pin_5)*%
X170180000Y-33020000D02*
X170180000Y-35560000D01*
%TO.N,Net-(J8-Pin_4)*%
X167640000Y-33020000D02*
X167640000Y-35560000D01*
%TO.N,Net-(J8-Pin_3)*%
X165100000Y-33020000D02*
X165100000Y-35560000D01*
D17*
%TO.N,/Vs2*%
X182880000Y-48260000D02*
X184658000Y-46482000D01*
X184658000Y-46482000D02*
X204470000Y-46482000D01*
%TO.N,/Vs1*%
X197205600Y-38303200D02*
X190550800Y-44958000D01*
X190550800Y-44958000D02*
X184658000Y-44958000D01*
X184658000Y-44958000D02*
X182880000Y-43180000D01*
%TD*%
%TA.AperFunction,Conductor*%
%TO.N,-BATT*%
G36*
X214734107Y-30900500D02*
G01*
X214796249Y-30900500D01*
X214803735Y-30900726D01*
X215069691Y-30916813D01*
X215084548Y-30918617D01*
X215342931Y-30965967D01*
X215357468Y-30969551D01*
X215608247Y-31047697D01*
X215622248Y-31053006D01*
X215861791Y-31160816D01*
X215875049Y-31167775D01*
X216099844Y-31303667D01*
X216112162Y-31312169D01*
X216224209Y-31399952D01*
X216318948Y-31474175D01*
X216330156Y-31484105D01*
X216515893Y-31669842D01*
X216525823Y-31681050D01*
X216667258Y-31861579D01*
X216687825Y-31887830D01*
X216696329Y-31900150D01*
X216782889Y-32043338D01*
X216832225Y-32124949D01*
X216839184Y-32138208D01*
X216946994Y-32377752D01*
X216952303Y-32391753D01*
X217030448Y-32642529D01*
X217034032Y-32657068D01*
X217081381Y-32915447D01*
X217083186Y-32930311D01*
X217099273Y-33196247D01*
X217099499Y-33203734D01*
X217099499Y-39741621D01*
X217079814Y-39808660D01*
X217027010Y-39854415D01*
X216957852Y-39864359D01*
X216894296Y-39835334D01*
X216863779Y-39795423D01*
X216821946Y-39708557D01*
X216793605Y-39663453D01*
X216672523Y-39470752D01*
X216497416Y-39251175D01*
X216298825Y-39052584D01*
X216079248Y-38877477D01*
X215915004Y-38774275D01*
X215841442Y-38728053D01*
X215588411Y-38606200D01*
X215323329Y-38513443D01*
X215323317Y-38513439D01*
X215049512Y-38450945D01*
X215049494Y-38450942D01*
X214770431Y-38419500D01*
X214770425Y-38419500D01*
X214489575Y-38419500D01*
X214489568Y-38419500D01*
X214210505Y-38450942D01*
X214210487Y-38450945D01*
X213936682Y-38513439D01*
X213936670Y-38513443D01*
X213671588Y-38606200D01*
X213418557Y-38728053D01*
X213180753Y-38877476D01*
X212961175Y-39052583D01*
X212762583Y-39251175D01*
X212587476Y-39470753D01*
X212438053Y-39708557D01*
X212316200Y-39961588D01*
X212223443Y-40226670D01*
X212223439Y-40226682D01*
X212160945Y-40500487D01*
X212160942Y-40500505D01*
X212129500Y-40779568D01*
X212129500Y-41060431D01*
X212160942Y-41339494D01*
X212160945Y-41339512D01*
X212223439Y-41613317D01*
X212223443Y-41613329D01*
X212316200Y-41878411D01*
X212438053Y-42131442D01*
X212484275Y-42205004D01*
X212587477Y-42369248D01*
X212762584Y-42588825D01*
X212961175Y-42787416D01*
X213180752Y-42962523D01*
X213418555Y-43111945D01*
X213418557Y-43111946D01*
X213618596Y-43208280D01*
X213670455Y-43255102D01*
X213688768Y-43322529D01*
X213667720Y-43389153D01*
X213618596Y-43431720D01*
X213418557Y-43528053D01*
X213180753Y-43677476D01*
X212961175Y-43852583D01*
X212762583Y-44051175D01*
X212587476Y-44270753D01*
X212438053Y-44508557D01*
X212316200Y-44761588D01*
X212223443Y-45026670D01*
X212223439Y-45026682D01*
X212160945Y-45300487D01*
X212160942Y-45300505D01*
X212129500Y-45579568D01*
X212129500Y-45860431D01*
X212160942Y-46139494D01*
X212160945Y-46139512D01*
X212223439Y-46413317D01*
X212223443Y-46413329D01*
X212316200Y-46678411D01*
X212438053Y-46931442D01*
X212439998Y-46934537D01*
X212587477Y-47169248D01*
X212762584Y-47388825D01*
X212961175Y-47587416D01*
X213180752Y-47762523D01*
X213230967Y-47794075D01*
X213418557Y-47911946D01*
X213618596Y-48008280D01*
X213670455Y-48055102D01*
X213688768Y-48122529D01*
X213667720Y-48189153D01*
X213618596Y-48231720D01*
X213418557Y-48328053D01*
X213180753Y-48477476D01*
X212961175Y-48652583D01*
X212762583Y-48851175D01*
X212587476Y-49070753D01*
X212438053Y-49308557D01*
X212316200Y-49561588D01*
X212223443Y-49826670D01*
X212223439Y-49826682D01*
X212160945Y-50100487D01*
X212160942Y-50100505D01*
X212129500Y-50379568D01*
X212129500Y-50660431D01*
X212160942Y-50939494D01*
X212160945Y-50939512D01*
X212223439Y-51213317D01*
X212223443Y-51213329D01*
X212316200Y-51478411D01*
X212438053Y-51731442D01*
X212442569Y-51738629D01*
X212587477Y-51969248D01*
X212717676Y-52132512D01*
X212759494Y-52184951D01*
X212762584Y-52188825D01*
X212961175Y-52387416D01*
X213180752Y-52562523D01*
X213418555Y-52711945D01*
X213671592Y-52833801D01*
X213870680Y-52903465D01*
X213936670Y-52926556D01*
X213936682Y-52926560D01*
X214210491Y-52989055D01*
X214210497Y-52989055D01*
X214210505Y-52989057D01*
X214396547Y-53010018D01*
X214489569Y-53020499D01*
X214489572Y-53020500D01*
X214489575Y-53020500D01*
X214770428Y-53020500D01*
X214770429Y-53020499D01*
X214913055Y-53004429D01*
X215049494Y-52989057D01*
X215049499Y-52989056D01*
X215049509Y-52989055D01*
X215323318Y-52926560D01*
X215588408Y-52833801D01*
X215841445Y-52711945D01*
X216079248Y-52562523D01*
X216298825Y-52387416D01*
X216497416Y-52188825D01*
X216672523Y-51969248D01*
X216821945Y-51731445D01*
X216829534Y-51715687D01*
X216863779Y-51644577D01*
X216910601Y-51592717D01*
X216978028Y-51574404D01*
X217044652Y-51595452D01*
X217089321Y-51649178D01*
X217099499Y-51698378D01*
X217099499Y-58196249D01*
X217099273Y-58203736D01*
X217083185Y-58469688D01*
X217081380Y-58484552D01*
X217034031Y-58742931D01*
X217030447Y-58757470D01*
X216952302Y-59008246D01*
X216946993Y-59022247D01*
X216839183Y-59261791D01*
X216832224Y-59275050D01*
X216696330Y-59499846D01*
X216687824Y-59512169D01*
X216525822Y-59718948D01*
X216515892Y-59730156D01*
X216330156Y-59915893D01*
X216318948Y-59925823D01*
X216112168Y-60087825D01*
X216099845Y-60096331D01*
X215875050Y-60232224D01*
X215861791Y-60239183D01*
X215622246Y-60346993D01*
X215608245Y-60352302D01*
X215357469Y-60430447D01*
X215342930Y-60434031D01*
X215084551Y-60481380D01*
X215069688Y-60483185D01*
X214901575Y-60493354D01*
X214803711Y-60499274D01*
X214796238Y-60499500D01*
X152803751Y-60499500D01*
X152796264Y-60499274D01*
X152530311Y-60483186D01*
X152515447Y-60481381D01*
X152257068Y-60434032D01*
X152242529Y-60430448D01*
X151991753Y-60352303D01*
X151977752Y-60346994D01*
X151738208Y-60239184D01*
X151724949Y-60232225D01*
X151500153Y-60096331D01*
X151487830Y-60087825D01*
X151281050Y-59925823D01*
X151269842Y-59915893D01*
X151084106Y-59730157D01*
X151074176Y-59718949D01*
X150934222Y-59540311D01*
X150912170Y-59512163D01*
X150903672Y-59499852D01*
X150767771Y-59275044D01*
X150760818Y-59261798D01*
X150653003Y-59022242D01*
X150647696Y-59008246D01*
X150640666Y-58985685D01*
X150569549Y-58757463D01*
X150565967Y-58742931D01*
X150564741Y-58736243D01*
X150518617Y-58484551D01*
X150516813Y-58469688D01*
X150500724Y-58203703D01*
X150500499Y-58196282D01*
X150500499Y-58085258D01*
X151049499Y-58085258D01*
X151049499Y-58314741D01*
X151064570Y-58429207D01*
X151079451Y-58542238D01*
X151126283Y-58717020D01*
X151138841Y-58763887D01*
X151226649Y-58975876D01*
X151226656Y-58975890D01*
X151341391Y-59174617D01*
X151481080Y-59356661D01*
X151481088Y-59356670D01*
X151643329Y-59518911D01*
X151643337Y-59518918D01*
X151643338Y-59518919D01*
X151693961Y-59557764D01*
X151825381Y-59658607D01*
X151825384Y-59658608D01*
X151825387Y-59658611D01*
X152024111Y-59773344D01*
X152024116Y-59773346D01*
X152024122Y-59773349D01*
X152115479Y-59811190D01*
X152236112Y-59861158D01*
X152457761Y-59920548D01*
X152685265Y-59950500D01*
X152685272Y-59950500D01*
X152914726Y-59950500D01*
X152914733Y-59950500D01*
X153142237Y-59920548D01*
X153363886Y-59861158D01*
X153575887Y-59773344D01*
X153774611Y-59658611D01*
X153956660Y-59518919D01*
X153956664Y-59518914D01*
X153956669Y-59518911D01*
X154118910Y-59356670D01*
X154118913Y-59356665D01*
X154118918Y-59356661D01*
X154258610Y-59174612D01*
X154373343Y-58975888D01*
X154461157Y-58763887D01*
X154520547Y-58542238D01*
X154550499Y-58314734D01*
X154550499Y-58313713D01*
X158669500Y-58313713D01*
X158669500Y-58526287D01*
X158672027Y-58542240D01*
X158695823Y-58692486D01*
X158702754Y-58736243D01*
X158732350Y-58827331D01*
X158768444Y-58938414D01*
X158864951Y-59127820D01*
X158989890Y-59299786D01*
X159140213Y-59450109D01*
X159312179Y-59575048D01*
X159312181Y-59575049D01*
X159312184Y-59575051D01*
X159501588Y-59671557D01*
X159703757Y-59737246D01*
X159913713Y-59770500D01*
X159913714Y-59770500D01*
X160126286Y-59770500D01*
X160126287Y-59770500D01*
X160336243Y-59737246D01*
X160538412Y-59671557D01*
X160727816Y-59575051D01*
X160775632Y-59540311D01*
X162005372Y-59540311D01*
X162080161Y-59578417D01*
X162267294Y-59639221D01*
X162461618Y-59670000D01*
X162658382Y-59670000D01*
X162852705Y-59639221D01*
X163039835Y-59578418D01*
X163114626Y-59540310D01*
X162560001Y-58985685D01*
X162560000Y-58985685D01*
X162005372Y-59540311D01*
X160775632Y-59540311D01*
X160805087Y-59518911D01*
X160899786Y-59450109D01*
X160899788Y-59450106D01*
X160899792Y-59450104D01*
X161050104Y-59299792D01*
X161050106Y-59299788D01*
X161050109Y-59299786D01*
X161175050Y-59127817D01*
X161175052Y-59127815D01*
X161235911Y-59008370D01*
X161283885Y-58957574D01*
X161351706Y-58940779D01*
X161417841Y-58963316D01*
X161425724Y-58972414D01*
X161439687Y-58974626D01*
X161994314Y-58420000D01*
X161994314Y-58419999D01*
X161928489Y-58354174D01*
X162060000Y-58354174D01*
X162060000Y-58485826D01*
X162094075Y-58612993D01*
X162159901Y-58727007D01*
X162252993Y-58820099D01*
X162367007Y-58885925D01*
X162494174Y-58920000D01*
X162625826Y-58920000D01*
X162752993Y-58885925D01*
X162867007Y-58820099D01*
X162960099Y-58727007D01*
X163025925Y-58612993D01*
X163060000Y-58485826D01*
X163060000Y-58354174D01*
X163025925Y-58227007D01*
X162960099Y-58112993D01*
X162867007Y-58019901D01*
X162752993Y-57954075D01*
X162625826Y-57920000D01*
X162494174Y-57920000D01*
X162367007Y-57954075D01*
X162252993Y-58019901D01*
X162159901Y-58112993D01*
X162094075Y-58227007D01*
X162060000Y-58354174D01*
X161928489Y-58354174D01*
X161439687Y-57865372D01*
X161422426Y-57868106D01*
X161408903Y-57882425D01*
X161341081Y-57899219D01*
X161274947Y-57876680D01*
X161235910Y-57831627D01*
X161212152Y-57785000D01*
X161175051Y-57712184D01*
X161175050Y-57712182D01*
X161050109Y-57540213D01*
X160899786Y-57389890D01*
X160775631Y-57299687D01*
X162005373Y-57299687D01*
X162560000Y-57854314D01*
X162560001Y-57854314D01*
X163114626Y-57299687D01*
X163039840Y-57261583D01*
X163039830Y-57261579D01*
X162852705Y-57200778D01*
X162658382Y-57170000D01*
X162461618Y-57170000D01*
X162267294Y-57200778D01*
X162267293Y-57200778D01*
X162080170Y-57261578D01*
X162005373Y-57299687D01*
X160775631Y-57299687D01*
X160727820Y-57264951D01*
X160538414Y-57168444D01*
X160538413Y-57168443D01*
X160538412Y-57168443D01*
X160336243Y-57102754D01*
X160336241Y-57102753D01*
X160336240Y-57102753D01*
X160174957Y-57077208D01*
X160126287Y-57069500D01*
X159913713Y-57069500D01*
X159865042Y-57077208D01*
X159703760Y-57102753D01*
X159501585Y-57168444D01*
X159312179Y-57264951D01*
X159140213Y-57389890D01*
X158989890Y-57540213D01*
X158864951Y-57712179D01*
X158768444Y-57901585D01*
X158702753Y-58103760D01*
X158683233Y-58227007D01*
X158669500Y-58313713D01*
X154550499Y-58313713D01*
X154550499Y-58085266D01*
X154520547Y-57857762D01*
X154461157Y-57636113D01*
X154406433Y-57503997D01*
X154373348Y-57424123D01*
X154373345Y-57424117D01*
X154373343Y-57424112D01*
X154258610Y-57225388D01*
X154258607Y-57225385D01*
X154258606Y-57225382D01*
X154118917Y-57043338D01*
X154118910Y-57043330D01*
X153956669Y-56881089D01*
X153956660Y-56881081D01*
X153774616Y-56741392D01*
X153575889Y-56626657D01*
X153575875Y-56626650D01*
X153363886Y-56538842D01*
X153303564Y-56522679D01*
X153142237Y-56479452D01*
X153104214Y-56474446D01*
X152914740Y-56449500D01*
X152914733Y-56449500D01*
X152685265Y-56449500D01*
X152685257Y-56449500D01*
X152468714Y-56478009D01*
X152457761Y-56479452D01*
X152364075Y-56504554D01*
X152236111Y-56538842D01*
X152024122Y-56626650D01*
X152024108Y-56626657D01*
X151825381Y-56741392D01*
X151643337Y-56881081D01*
X151481080Y-57043338D01*
X151341391Y-57225382D01*
X151226656Y-57424109D01*
X151226649Y-57424123D01*
X151138841Y-57636112D01*
X151079452Y-57857759D01*
X151079450Y-57857770D01*
X151049499Y-58085258D01*
X150500499Y-58085258D01*
X150500499Y-53740000D01*
X158993360Y-53740000D01*
X159000590Y-53762254D01*
X159079195Y-53916524D01*
X159180967Y-54056602D01*
X159303397Y-54179032D01*
X159443475Y-54280804D01*
X159597745Y-54359409D01*
X159620000Y-54366639D01*
X160420000Y-54366639D01*
X160442254Y-54359409D01*
X160596524Y-54280804D01*
X160736602Y-54179032D01*
X160859032Y-54056602D01*
X160960804Y-53916524D01*
X161039409Y-53762254D01*
X161046640Y-53740000D01*
X160420000Y-53740000D01*
X160420000Y-54366639D01*
X159620000Y-54366639D01*
X159620000Y-53740000D01*
X158993360Y-53740000D01*
X150500499Y-53740000D01*
X150500499Y-53293922D01*
X159670000Y-53293922D01*
X159670000Y-53386078D01*
X159693852Y-53475095D01*
X159739930Y-53554905D01*
X159805095Y-53620070D01*
X159884905Y-53666148D01*
X159973922Y-53690000D01*
X160066078Y-53690000D01*
X160155095Y-53666148D01*
X160234905Y-53620070D01*
X160300070Y-53554905D01*
X160346148Y-53475095D01*
X160370000Y-53386078D01*
X160370000Y-53293922D01*
X160346148Y-53204905D01*
X160300070Y-53125095D01*
X160234905Y-53059930D01*
X160155095Y-53013852D01*
X160066078Y-52990000D01*
X159973922Y-52990000D01*
X159884905Y-53013852D01*
X159805095Y-53059930D01*
X159739930Y-53125095D01*
X159693852Y-53204905D01*
X159670000Y-53293922D01*
X150500499Y-53293922D01*
X150500499Y-37711479D01*
X153690001Y-37711479D01*
X153704835Y-37805149D01*
X153704837Y-37805155D01*
X153762356Y-37918041D01*
X153762363Y-37918050D01*
X153851949Y-38007636D01*
X153851953Y-38007639D01*
X153964855Y-38065166D01*
X154058514Y-38079999D01*
X154539999Y-38079999D01*
X154540000Y-38079998D01*
X154540000Y-37230000D01*
X153690001Y-37230000D01*
X153690001Y-37711479D01*
X150500499Y-37711479D01*
X150500499Y-36764174D01*
X154440000Y-36764174D01*
X154440000Y-36895826D01*
X154474075Y-37022993D01*
X154539901Y-37137007D01*
X154632993Y-37230099D01*
X154747007Y-37295925D01*
X154874174Y-37330000D01*
X155005826Y-37330000D01*
X155132993Y-37295925D01*
X155247007Y-37230099D01*
X155340000Y-37137106D01*
X155340000Y-38079999D01*
X155821479Y-38079999D01*
X155915149Y-38065164D01*
X155915155Y-38065162D01*
X156028041Y-38007643D01*
X156028050Y-38007636D01*
X156117636Y-37918050D01*
X156117639Y-37918046D01*
X156175164Y-37805146D01*
X156189904Y-37712081D01*
X156219833Y-37648945D01*
X156279144Y-37612014D01*
X156349007Y-37613010D01*
X156407240Y-37651620D01*
X156412696Y-37658592D01*
X156449890Y-37709785D01*
X156449894Y-37709790D01*
X156600213Y-37860109D01*
X156772179Y-37985048D01*
X156772181Y-37985049D01*
X156772184Y-37985051D01*
X156961588Y-38081557D01*
X157163757Y-38147246D01*
X157373713Y-38180500D01*
X157373714Y-38180500D01*
X157586286Y-38180500D01*
X157586287Y-38180500D01*
X157796243Y-38147246D01*
X157998412Y-38081557D01*
X158187816Y-37985051D01*
X158280036Y-37918050D01*
X158359786Y-37860109D01*
X158359788Y-37860106D01*
X158359792Y-37860104D01*
X158510104Y-37709792D01*
X158510106Y-37709788D01*
X158510109Y-37709786D01*
X158615486Y-37564745D01*
X158635051Y-37537816D01*
X158685015Y-37439756D01*
X158732989Y-37388959D01*
X158800810Y-37372164D01*
X158866945Y-37394701D01*
X158910397Y-37449416D01*
X158919500Y-37496050D01*
X158919500Y-50285754D01*
X158907904Y-50334078D01*
X158909319Y-50334664D01*
X158907453Y-50339167D01*
X158849059Y-50518881D01*
X158819500Y-50705513D01*
X158819500Y-50894486D01*
X158849059Y-51081118D01*
X158907454Y-51260836D01*
X158955243Y-51354626D01*
X158993240Y-51429199D01*
X159104310Y-51582073D01*
X159237927Y-51715690D01*
X159390801Y-51826760D01*
X159439637Y-51851643D01*
X159559163Y-51912545D01*
X159559165Y-51912545D01*
X159559168Y-51912547D01*
X159738882Y-51970940D01*
X159912279Y-51998403D01*
X159975413Y-52028332D01*
X160012345Y-52087643D01*
X160011347Y-52157506D01*
X159972738Y-52215739D01*
X159912280Y-52243349D01*
X159762414Y-52267086D01*
X159597742Y-52320591D01*
X159443475Y-52399195D01*
X159303397Y-52500967D01*
X159180967Y-52623397D01*
X159079195Y-52763475D01*
X159000590Y-52917745D01*
X158993360Y-52940000D01*
X161046639Y-52940000D01*
X161039409Y-52917745D01*
X160960804Y-52763475D01*
X160859032Y-52623397D01*
X160736602Y-52500967D01*
X160596524Y-52399195D01*
X160442257Y-52320591D01*
X160277584Y-52267085D01*
X160127720Y-52243349D01*
X160064585Y-52213419D01*
X160027654Y-52154108D01*
X160028652Y-52084245D01*
X160067262Y-52026013D01*
X160127721Y-51998403D01*
X160301118Y-51970940D01*
X160480832Y-51912547D01*
X160649199Y-51826760D01*
X160802073Y-51715690D01*
X160935690Y-51582073D01*
X161046760Y-51429199D01*
X161132547Y-51260832D01*
X161190940Y-51081118D01*
X161198552Y-51033057D01*
X161220500Y-50894486D01*
X161220500Y-50705513D01*
X161190940Y-50518881D01*
X161145676Y-50379575D01*
X161132547Y-50339168D01*
X161132543Y-50339161D01*
X161130681Y-50334664D01*
X161132095Y-50334078D01*
X161120500Y-50285754D01*
X161120500Y-36680311D01*
X162005372Y-36680311D01*
X162080161Y-36718417D01*
X162267294Y-36779221D01*
X162461618Y-36810000D01*
X162658382Y-36810000D01*
X162852705Y-36779221D01*
X163039835Y-36718418D01*
X163114626Y-36680310D01*
X162560001Y-36125685D01*
X162560000Y-36125685D01*
X162005372Y-36680311D01*
X161120500Y-36680311D01*
X161120500Y-36383188D01*
X161124554Y-36367905D01*
X161123852Y-36354550D01*
X161133897Y-36332686D01*
X161136807Y-36321720D01*
X161140176Y-36315816D01*
X161175051Y-36267816D01*
X161237253Y-36145736D01*
X161238703Y-36143197D01*
X161261837Y-36120918D01*
X161283885Y-36097574D01*
X161286839Y-36096842D01*
X161289031Y-36094732D01*
X161320528Y-36088499D01*
X161351706Y-36080779D01*
X161354586Y-36081760D01*
X161357572Y-36081170D01*
X161387446Y-36092958D01*
X161417841Y-36103316D01*
X161419995Y-36105801D01*
X161422565Y-36106816D01*
X161426705Y-36112569D01*
X161439687Y-36114626D01*
X161994314Y-35560000D01*
X161994314Y-35559999D01*
X161928489Y-35494174D01*
X162060000Y-35494174D01*
X162060000Y-35625826D01*
X162094075Y-35752993D01*
X162159901Y-35867007D01*
X162252993Y-35960099D01*
X162367007Y-36025925D01*
X162494174Y-36060000D01*
X162625826Y-36060000D01*
X162752993Y-36025925D01*
X162867007Y-35960099D01*
X162960099Y-35867007D01*
X163025925Y-35752993D01*
X163060000Y-35625826D01*
X163060000Y-35494174D01*
X163025925Y-35367007D01*
X162960099Y-35252993D01*
X162867007Y-35159901D01*
X162752993Y-35094075D01*
X162625826Y-35060000D01*
X162494174Y-35060000D01*
X162367007Y-35094075D01*
X162252993Y-35159901D01*
X162159901Y-35252993D01*
X162094075Y-35367007D01*
X162060000Y-35494174D01*
X161928489Y-35494174D01*
X161439687Y-35005372D01*
X161422426Y-35008106D01*
X161408903Y-35022425D01*
X161399530Y-35024745D01*
X161391911Y-35030677D01*
X161366170Y-35033006D01*
X161341081Y-35039219D01*
X161331940Y-35036103D01*
X161322325Y-35036974D01*
X161299413Y-35025018D01*
X161274947Y-35016680D01*
X161267291Y-35008256D01*
X161260382Y-35004651D01*
X161244341Y-34983005D01*
X161238702Y-34976800D01*
X161237247Y-34974251D01*
X161175051Y-34852184D01*
X161140182Y-34804191D01*
X161136807Y-34798277D01*
X161130246Y-34770639D01*
X161120702Y-34743887D01*
X161120500Y-34736810D01*
X161120500Y-34439687D01*
X162005372Y-34439687D01*
X162560000Y-34994314D01*
X162560001Y-34994314D01*
X163114626Y-34439687D01*
X163037684Y-34400485D01*
X162986888Y-34352512D01*
X162970092Y-34284691D01*
X162992629Y-34218556D01*
X163037683Y-34179515D01*
X163114625Y-34140310D01*
X162560001Y-33585685D01*
X162560000Y-33585685D01*
X162038887Y-34106796D01*
X162123131Y-34212892D01*
X162149403Y-34277634D01*
X162136502Y-34346302D01*
X162088524Y-34397095D01*
X162082314Y-34400486D01*
X162005372Y-34439687D01*
X161120500Y-34439687D01*
X161120500Y-33843188D01*
X161140185Y-33776149D01*
X161144169Y-33770320D01*
X161175051Y-33727816D01*
X161235911Y-33608370D01*
X161283885Y-33557574D01*
X161351706Y-33540779D01*
X161417841Y-33563316D01*
X161425724Y-33572414D01*
X161439687Y-33574626D01*
X161994314Y-33020000D01*
X161994314Y-33019999D01*
X161928489Y-32954174D01*
X162060000Y-32954174D01*
X162060000Y-33085826D01*
X162094075Y-33212993D01*
X162159901Y-33327007D01*
X162252993Y-33420099D01*
X162367007Y-33485925D01*
X162494174Y-33520000D01*
X162625826Y-33520000D01*
X162752993Y-33485925D01*
X162867007Y-33420099D01*
X162960099Y-33327007D01*
X163025925Y-33212993D01*
X163060000Y-33085826D01*
X163060000Y-33019999D01*
X163125685Y-33019999D01*
X163125685Y-33020000D01*
X163680311Y-33574626D01*
X163697565Y-33571893D01*
X163711088Y-33557575D01*
X163778909Y-33540778D01*
X163845045Y-33563313D01*
X163884086Y-33608369D01*
X163944947Y-33727814D01*
X163944948Y-33727815D01*
X164069890Y-33899786D01*
X164069896Y-33899792D01*
X164220208Y-34050104D01*
X164298384Y-34106902D01*
X164301725Y-34111233D01*
X164306703Y-34113507D01*
X164322833Y-34138606D01*
X164341051Y-34162231D01*
X164342304Y-34168904D01*
X164344477Y-34172285D01*
X164349500Y-34207220D01*
X164349500Y-34372779D01*
X164329815Y-34439818D01*
X164298385Y-34473097D01*
X164220211Y-34529893D01*
X164220205Y-34529898D01*
X164069890Y-34680213D01*
X163944951Y-34852180D01*
X163884088Y-34971630D01*
X163836113Y-35022426D01*
X163768292Y-35039221D01*
X163702157Y-35016683D01*
X163694273Y-35007584D01*
X163680311Y-35005372D01*
X163125685Y-35559999D01*
X163125685Y-35560000D01*
X163680311Y-36114626D01*
X163697565Y-36111893D01*
X163711088Y-36097575D01*
X163778909Y-36080778D01*
X163845045Y-36103313D01*
X163884086Y-36148369D01*
X163944947Y-36267814D01*
X163944948Y-36267815D01*
X164069890Y-36439786D01*
X164220213Y-36590109D01*
X164392179Y-36715048D01*
X164392181Y-36715049D01*
X164392184Y-36715051D01*
X164581588Y-36811557D01*
X164783757Y-36877246D01*
X164993713Y-36910500D01*
X164993714Y-36910500D01*
X165206286Y-36910500D01*
X165206287Y-36910500D01*
X165416243Y-36877246D01*
X165618412Y-36811557D01*
X165807816Y-36715051D01*
X165901762Y-36646796D01*
X165979786Y-36590109D01*
X165979788Y-36590106D01*
X165979792Y-36590104D01*
X166130104Y-36439792D01*
X166130106Y-36439788D01*
X166130109Y-36439786D01*
X166255048Y-36267820D01*
X166255047Y-36267820D01*
X166255051Y-36267816D01*
X166259514Y-36259054D01*
X166307488Y-36208259D01*
X166375308Y-36191463D01*
X166441444Y-36213999D01*
X166480486Y-36259056D01*
X166484951Y-36267820D01*
X166609890Y-36439786D01*
X166760213Y-36590109D01*
X166932179Y-36715048D01*
X166932181Y-36715049D01*
X166932184Y-36715051D01*
X167121588Y-36811557D01*
X167323757Y-36877246D01*
X167533713Y-36910500D01*
X167533714Y-36910500D01*
X167746286Y-36910500D01*
X167746287Y-36910500D01*
X167956243Y-36877246D01*
X168158412Y-36811557D01*
X168347816Y-36715051D01*
X168441762Y-36646796D01*
X168519786Y-36590109D01*
X168519788Y-36590106D01*
X168519792Y-36590104D01*
X168670104Y-36439792D01*
X168670106Y-36439788D01*
X168670109Y-36439786D01*
X168795048Y-36267820D01*
X168795047Y-36267820D01*
X168795051Y-36267816D01*
X168799514Y-36259054D01*
X168847488Y-36208259D01*
X168915308Y-36191463D01*
X168981444Y-36213999D01*
X169020486Y-36259056D01*
X169024951Y-36267820D01*
X169149890Y-36439786D01*
X169300213Y-36590109D01*
X169472179Y-36715048D01*
X169472181Y-36715049D01*
X169472184Y-36715051D01*
X169661588Y-36811557D01*
X169863757Y-36877246D01*
X170073713Y-36910500D01*
X170073714Y-36910500D01*
X170286286Y-36910500D01*
X170286287Y-36910500D01*
X170496243Y-36877246D01*
X170698412Y-36811557D01*
X170887816Y-36715051D01*
X170981762Y-36646796D01*
X171059786Y-36590109D01*
X171059788Y-36590106D01*
X171059792Y-36590104D01*
X171210104Y-36439792D01*
X171210106Y-36439788D01*
X171210109Y-36439786D01*
X171335048Y-36267820D01*
X171335047Y-36267820D01*
X171335051Y-36267816D01*
X171431557Y-36078412D01*
X171497246Y-35876243D01*
X171530500Y-35666287D01*
X171530500Y-35453713D01*
X171497246Y-35243757D01*
X171431557Y-35041588D01*
X171335051Y-34852184D01*
X171335049Y-34852181D01*
X171335048Y-34852179D01*
X171210109Y-34680213D01*
X171059794Y-34529898D01*
X171059788Y-34529893D01*
X170981615Y-34473097D01*
X170978274Y-34468765D01*
X170973297Y-34466492D01*
X170957164Y-34441389D01*
X170938949Y-34417767D01*
X170937696Y-34411095D01*
X170935523Y-34407714D01*
X170930500Y-34372779D01*
X170930500Y-34207220D01*
X170950185Y-34140181D01*
X170981614Y-34106902D01*
X171059792Y-34050104D01*
X171210104Y-33899792D01*
X171210106Y-33899788D01*
X171210109Y-33899786D01*
X171335048Y-33727820D01*
X171335050Y-33727817D01*
X171335051Y-33727816D01*
X171339514Y-33719054D01*
X171387488Y-33668259D01*
X171455308Y-33651463D01*
X171521444Y-33673999D01*
X171560486Y-33719056D01*
X171564951Y-33727820D01*
X171689890Y-33899786D01*
X171689896Y-33899792D01*
X171840208Y-34050104D01*
X171918384Y-34106902D01*
X171961051Y-34162231D01*
X171969500Y-34207220D01*
X171969500Y-45357769D01*
X171949815Y-45424808D01*
X171933181Y-45445450D01*
X167815450Y-49563181D01*
X167754127Y-49596666D01*
X167727769Y-49599500D01*
X167545514Y-49599500D01*
X167358881Y-49629059D01*
X167179163Y-49687454D01*
X167010800Y-49773240D01*
X166937261Y-49826670D01*
X166857927Y-49884310D01*
X166857925Y-49884312D01*
X166857924Y-49884312D01*
X166724312Y-50017924D01*
X166724312Y-50017925D01*
X166724310Y-50017927D01*
X166704001Y-50045880D01*
X166613240Y-50170800D01*
X166527454Y-50339163D01*
X166469059Y-50518881D01*
X166439500Y-50705513D01*
X166439500Y-50894486D01*
X166469059Y-51081118D01*
X166527454Y-51260836D01*
X166575243Y-51354626D01*
X166613240Y-51429199D01*
X166724310Y-51582073D01*
X166724312Y-51582075D01*
X166853181Y-51710944D01*
X166886666Y-51772267D01*
X166889500Y-51798625D01*
X166889500Y-52341374D01*
X166869815Y-52408413D01*
X166853182Y-52429055D01*
X166724309Y-52557928D01*
X166613240Y-52710800D01*
X166527454Y-52879163D01*
X166469059Y-53058881D01*
X166439500Y-53245513D01*
X166439500Y-53434486D01*
X166469059Y-53621118D01*
X166527454Y-53800836D01*
X166575243Y-53894626D01*
X166613240Y-53969199D01*
X166724310Y-54122073D01*
X166857927Y-54255690D01*
X166955245Y-54326396D01*
X167010802Y-54366761D01*
X167106145Y-54415340D01*
X167156942Y-54463314D01*
X167173737Y-54531135D01*
X167151200Y-54597270D01*
X167106146Y-54636310D01*
X166932180Y-54724951D01*
X166760213Y-54849890D01*
X166609890Y-55000213D01*
X166484949Y-55172182D01*
X166480484Y-55180946D01*
X166432509Y-55231742D01*
X166364688Y-55248536D01*
X166298553Y-55225998D01*
X166259516Y-55180946D01*
X166255050Y-55172182D01*
X166130109Y-55000213D01*
X165979786Y-54849890D01*
X165807820Y-54724951D01*
X165618414Y-54628444D01*
X165618413Y-54628443D01*
X165618412Y-54628443D01*
X165416243Y-54562754D01*
X165416241Y-54562753D01*
X165416240Y-54562753D01*
X165227703Y-54532892D01*
X165206287Y-54529500D01*
X164993713Y-54529500D01*
X164972297Y-54532892D01*
X164783760Y-54562753D01*
X164581585Y-54628444D01*
X164392179Y-54724951D01*
X164220213Y-54849890D01*
X164069890Y-55000213D01*
X163944951Y-55172179D01*
X163848444Y-55361585D01*
X163782753Y-55563760D01*
X163749500Y-55773713D01*
X163749500Y-55986286D01*
X163782753Y-56196239D01*
X163848444Y-56398414D01*
X163944951Y-56587820D01*
X164069890Y-56759786D01*
X164069896Y-56759792D01*
X164220208Y-56910104D01*
X164298384Y-56966902D01*
X164301725Y-56971233D01*
X164306703Y-56973507D01*
X164322833Y-56998606D01*
X164341051Y-57022231D01*
X164342304Y-57028904D01*
X164344477Y-57032285D01*
X164349500Y-57067220D01*
X164349500Y-57232779D01*
X164329815Y-57299818D01*
X164298385Y-57333097D01*
X164220211Y-57389893D01*
X164220205Y-57389898D01*
X164069890Y-57540213D01*
X163944951Y-57712180D01*
X163884088Y-57831630D01*
X163836113Y-57882426D01*
X163768292Y-57899221D01*
X163702157Y-57876683D01*
X163694273Y-57867584D01*
X163680311Y-57865372D01*
X163125685Y-58419999D01*
X163125685Y-58420000D01*
X163680311Y-58974626D01*
X163697565Y-58971893D01*
X163711088Y-58957575D01*
X163778909Y-58940778D01*
X163845045Y-58963313D01*
X163884086Y-59008369D01*
X163944947Y-59127814D01*
X163944948Y-59127815D01*
X164069890Y-59299786D01*
X164220213Y-59450109D01*
X164392179Y-59575048D01*
X164392181Y-59575049D01*
X164392184Y-59575051D01*
X164581588Y-59671557D01*
X164783757Y-59737246D01*
X164993713Y-59770500D01*
X164993714Y-59770500D01*
X165206286Y-59770500D01*
X165206287Y-59770500D01*
X165416243Y-59737246D01*
X165618412Y-59671557D01*
X165807816Y-59575051D01*
X165885087Y-59518911D01*
X165979786Y-59450109D01*
X165979788Y-59450106D01*
X165979792Y-59450104D01*
X166130104Y-59299792D01*
X166130106Y-59299788D01*
X166130109Y-59299786D01*
X166255048Y-59127820D01*
X166255050Y-59127817D01*
X166255051Y-59127816D01*
X166259514Y-59119054D01*
X166307488Y-59068259D01*
X166375308Y-59051463D01*
X166441444Y-59073999D01*
X166480486Y-59119056D01*
X166484951Y-59127820D01*
X166609890Y-59299786D01*
X166760213Y-59450109D01*
X166932179Y-59575048D01*
X166932181Y-59575049D01*
X166932184Y-59575051D01*
X167121588Y-59671557D01*
X167323757Y-59737246D01*
X167533713Y-59770500D01*
X167533714Y-59770500D01*
X167746286Y-59770500D01*
X167746287Y-59770500D01*
X167956243Y-59737246D01*
X168158412Y-59671557D01*
X168347816Y-59575051D01*
X168425087Y-59518911D01*
X168519786Y-59450109D01*
X168519788Y-59450106D01*
X168519792Y-59450104D01*
X168670104Y-59299792D01*
X168670106Y-59299788D01*
X168670109Y-59299786D01*
X168795048Y-59127820D01*
X168795050Y-59127817D01*
X168795051Y-59127816D01*
X168799514Y-59119054D01*
X168847488Y-59068259D01*
X168915308Y-59051463D01*
X168981444Y-59073999D01*
X169020486Y-59119056D01*
X169024951Y-59127820D01*
X169149890Y-59299786D01*
X169300213Y-59450109D01*
X169472179Y-59575048D01*
X169472181Y-59575049D01*
X169472184Y-59575051D01*
X169661588Y-59671557D01*
X169863757Y-59737246D01*
X170073713Y-59770500D01*
X170073714Y-59770500D01*
X170286286Y-59770500D01*
X170286287Y-59770500D01*
X170496243Y-59737246D01*
X170698412Y-59671557D01*
X170887816Y-59575051D01*
X170965087Y-59518911D01*
X171059786Y-59450109D01*
X171059788Y-59450106D01*
X171059792Y-59450104D01*
X171210104Y-59299792D01*
X171210106Y-59299788D01*
X171210109Y-59299786D01*
X171335048Y-59127820D01*
X171335050Y-59127817D01*
X171335051Y-59127816D01*
X171339514Y-59119054D01*
X171387488Y-59068259D01*
X171455308Y-59051463D01*
X171521444Y-59073999D01*
X171560486Y-59119056D01*
X171564951Y-59127820D01*
X171689890Y-59299786D01*
X171840213Y-59450109D01*
X172012179Y-59575048D01*
X172012181Y-59575049D01*
X172012184Y-59575051D01*
X172201588Y-59671557D01*
X172403757Y-59737246D01*
X172613713Y-59770500D01*
X172613714Y-59770500D01*
X172826286Y-59770500D01*
X172826287Y-59770500D01*
X173036243Y-59737246D01*
X173238412Y-59671557D01*
X173427816Y-59575051D01*
X173505087Y-59518911D01*
X173599786Y-59450109D01*
X173599788Y-59450106D01*
X173599792Y-59450104D01*
X173750104Y-59299792D01*
X173750106Y-59299788D01*
X173750109Y-59299786D01*
X173875048Y-59127820D01*
X173875050Y-59127817D01*
X173875051Y-59127816D01*
X173879514Y-59119054D01*
X173927488Y-59068259D01*
X173995308Y-59051463D01*
X174061444Y-59073999D01*
X174100486Y-59119056D01*
X174104951Y-59127820D01*
X174229890Y-59299786D01*
X174380213Y-59450109D01*
X174552179Y-59575048D01*
X174552181Y-59575049D01*
X174552184Y-59575051D01*
X174741588Y-59671557D01*
X174943757Y-59737246D01*
X175153713Y-59770500D01*
X175153714Y-59770500D01*
X175366286Y-59770500D01*
X175366287Y-59770500D01*
X175576243Y-59737246D01*
X175778412Y-59671557D01*
X175967816Y-59575051D01*
X176045087Y-59518911D01*
X176139786Y-59450109D01*
X176139788Y-59450106D01*
X176139792Y-59450104D01*
X176290104Y-59299792D01*
X176290106Y-59299788D01*
X176290109Y-59299786D01*
X176415048Y-59127820D01*
X176415050Y-59127817D01*
X176415051Y-59127816D01*
X176419514Y-59119054D01*
X176467488Y-59068259D01*
X176535308Y-59051463D01*
X176601444Y-59073999D01*
X176640486Y-59119056D01*
X176644951Y-59127820D01*
X176769890Y-59299786D01*
X176920213Y-59450109D01*
X177092179Y-59575048D01*
X177092181Y-59575049D01*
X177092184Y-59575051D01*
X177281588Y-59671557D01*
X177483757Y-59737246D01*
X177693713Y-59770500D01*
X177693714Y-59770500D01*
X177906286Y-59770500D01*
X177906287Y-59770500D01*
X178116243Y-59737246D01*
X178318412Y-59671557D01*
X178507816Y-59575051D01*
X178585087Y-59518911D01*
X178679786Y-59450109D01*
X178679788Y-59450106D01*
X178679792Y-59450104D01*
X178830104Y-59299792D01*
X178830106Y-59299788D01*
X178830109Y-59299786D01*
X178955048Y-59127820D01*
X178955050Y-59127817D01*
X178955051Y-59127816D01*
X178959514Y-59119054D01*
X179007488Y-59068259D01*
X179075308Y-59051463D01*
X179141444Y-59073999D01*
X179180486Y-59119056D01*
X179184951Y-59127820D01*
X179309890Y-59299786D01*
X179460213Y-59450109D01*
X179632179Y-59575048D01*
X179632181Y-59575049D01*
X179632184Y-59575051D01*
X179821588Y-59671557D01*
X180023757Y-59737246D01*
X180233713Y-59770500D01*
X180233714Y-59770500D01*
X180446286Y-59770500D01*
X180446287Y-59770500D01*
X180656243Y-59737246D01*
X180858412Y-59671557D01*
X181047816Y-59575051D01*
X181125087Y-59518911D01*
X181219786Y-59450109D01*
X181219788Y-59450106D01*
X181219792Y-59450104D01*
X181370104Y-59299792D01*
X181370106Y-59299788D01*
X181370109Y-59299786D01*
X181495048Y-59127820D01*
X181495050Y-59127817D01*
X181495051Y-59127816D01*
X181499514Y-59119054D01*
X181547488Y-59068259D01*
X181615308Y-59051463D01*
X181681444Y-59073999D01*
X181720486Y-59119056D01*
X181724951Y-59127820D01*
X181849890Y-59299786D01*
X182000213Y-59450109D01*
X182172179Y-59575048D01*
X182172181Y-59575049D01*
X182172184Y-59575051D01*
X182361588Y-59671557D01*
X182563757Y-59737246D01*
X182773713Y-59770500D01*
X182773714Y-59770500D01*
X182986286Y-59770500D01*
X182986287Y-59770500D01*
X183196243Y-59737246D01*
X183398412Y-59671557D01*
X183587816Y-59575051D01*
X183665087Y-59518911D01*
X183759786Y-59450109D01*
X183759788Y-59450106D01*
X183759792Y-59450104D01*
X183910104Y-59299792D01*
X183910106Y-59299788D01*
X183910109Y-59299786D01*
X184035048Y-59127820D01*
X184035050Y-59127817D01*
X184035051Y-59127816D01*
X184039514Y-59119054D01*
X184087488Y-59068259D01*
X184155308Y-59051463D01*
X184221444Y-59073999D01*
X184260486Y-59119056D01*
X184264951Y-59127820D01*
X184389890Y-59299786D01*
X184540213Y-59450109D01*
X184712179Y-59575048D01*
X184712181Y-59575049D01*
X184712184Y-59575051D01*
X184901588Y-59671557D01*
X185103757Y-59737246D01*
X185313713Y-59770500D01*
X185313714Y-59770500D01*
X185526286Y-59770500D01*
X185526287Y-59770500D01*
X185736243Y-59737246D01*
X185938412Y-59671557D01*
X186127816Y-59575051D01*
X186205087Y-59518911D01*
X186299786Y-59450109D01*
X186299788Y-59450106D01*
X186299792Y-59450104D01*
X186450104Y-59299792D01*
X186450106Y-59299788D01*
X186450109Y-59299786D01*
X186575048Y-59127820D01*
X186575050Y-59127817D01*
X186575051Y-59127816D01*
X186579514Y-59119054D01*
X186627488Y-59068259D01*
X186695308Y-59051463D01*
X186761444Y-59073999D01*
X186800486Y-59119056D01*
X186804951Y-59127820D01*
X186929890Y-59299786D01*
X187080213Y-59450109D01*
X187252179Y-59575048D01*
X187252181Y-59575049D01*
X187252184Y-59575051D01*
X187441588Y-59671557D01*
X187643757Y-59737246D01*
X187853713Y-59770500D01*
X187853714Y-59770500D01*
X188066286Y-59770500D01*
X188066287Y-59770500D01*
X188276243Y-59737246D01*
X188478412Y-59671557D01*
X188667816Y-59575051D01*
X188745087Y-59518911D01*
X188839786Y-59450109D01*
X188839788Y-59450106D01*
X188839792Y-59450104D01*
X188990104Y-59299792D01*
X188990106Y-59299788D01*
X188990109Y-59299786D01*
X189115048Y-59127820D01*
X189115050Y-59127817D01*
X189115051Y-59127816D01*
X189119514Y-59119054D01*
X189167488Y-59068259D01*
X189235308Y-59051463D01*
X189301444Y-59073999D01*
X189340486Y-59119056D01*
X189344951Y-59127820D01*
X189469890Y-59299786D01*
X189620213Y-59450109D01*
X189792179Y-59575048D01*
X189792181Y-59575049D01*
X189792184Y-59575051D01*
X189981588Y-59671557D01*
X190183757Y-59737246D01*
X190393713Y-59770500D01*
X190393714Y-59770500D01*
X190606286Y-59770500D01*
X190606287Y-59770500D01*
X190816243Y-59737246D01*
X191018412Y-59671557D01*
X191207816Y-59575051D01*
X191285087Y-59518911D01*
X191379786Y-59450109D01*
X191379788Y-59450106D01*
X191379792Y-59450104D01*
X191530104Y-59299792D01*
X191530106Y-59299788D01*
X191530109Y-59299786D01*
X191655048Y-59127820D01*
X191655050Y-59127817D01*
X191655051Y-59127816D01*
X191659514Y-59119054D01*
X191707488Y-59068259D01*
X191775308Y-59051463D01*
X191841444Y-59073999D01*
X191880486Y-59119056D01*
X191884951Y-59127820D01*
X192009890Y-59299786D01*
X192160213Y-59450109D01*
X192332179Y-59575048D01*
X192332181Y-59575049D01*
X192332184Y-59575051D01*
X192521588Y-59671557D01*
X192723757Y-59737246D01*
X192933713Y-59770500D01*
X192933714Y-59770500D01*
X193146286Y-59770500D01*
X193146287Y-59770500D01*
X193356243Y-59737246D01*
X193558412Y-59671557D01*
X193747816Y-59575051D01*
X193825087Y-59518911D01*
X193919786Y-59450109D01*
X193919788Y-59450106D01*
X193919792Y-59450104D01*
X194070104Y-59299792D01*
X194070106Y-59299788D01*
X194070109Y-59299786D01*
X194195048Y-59127820D01*
X194195050Y-59127817D01*
X194195051Y-59127816D01*
X194199514Y-59119054D01*
X194247488Y-59068259D01*
X194315308Y-59051463D01*
X194381444Y-59073999D01*
X194420486Y-59119056D01*
X194424951Y-59127820D01*
X194549890Y-59299786D01*
X194700213Y-59450109D01*
X194872179Y-59575048D01*
X194872181Y-59575049D01*
X194872184Y-59575051D01*
X195061588Y-59671557D01*
X195263757Y-59737246D01*
X195473713Y-59770500D01*
X195473714Y-59770500D01*
X195686286Y-59770500D01*
X195686287Y-59770500D01*
X195896243Y-59737246D01*
X196098412Y-59671557D01*
X196287816Y-59575051D01*
X196365087Y-59518911D01*
X196459786Y-59450109D01*
X196459788Y-59450106D01*
X196459792Y-59450104D01*
X196610104Y-59299792D01*
X196610106Y-59299788D01*
X196610109Y-59299786D01*
X196735048Y-59127820D01*
X196735050Y-59127817D01*
X196735051Y-59127816D01*
X196831557Y-58938412D01*
X196897246Y-58736243D01*
X196930500Y-58526287D01*
X196930500Y-58313713D01*
X196897246Y-58103757D01*
X196831557Y-57901588D01*
X196735051Y-57712184D01*
X196735049Y-57712181D01*
X196735048Y-57712179D01*
X196610109Y-57540213D01*
X196459786Y-57389890D01*
X196287820Y-57264951D01*
X196098414Y-57168444D01*
X196098413Y-57168443D01*
X196098412Y-57168443D01*
X195896243Y-57102754D01*
X195896241Y-57102753D01*
X195896240Y-57102753D01*
X195734957Y-57077208D01*
X195686287Y-57069500D01*
X195473713Y-57069500D01*
X195425042Y-57077208D01*
X195263760Y-57102753D01*
X195061585Y-57168444D01*
X194872179Y-57264951D01*
X194700213Y-57389890D01*
X194549890Y-57540213D01*
X194424949Y-57712182D01*
X194420484Y-57720946D01*
X194372509Y-57771742D01*
X194304688Y-57788536D01*
X194238553Y-57765998D01*
X194199516Y-57720946D01*
X194195050Y-57712182D01*
X194070109Y-57540213D01*
X193919786Y-57389890D01*
X193747820Y-57264951D01*
X193558414Y-57168444D01*
X193558413Y-57168443D01*
X193558412Y-57168443D01*
X193356243Y-57102754D01*
X193356241Y-57102753D01*
X193356240Y-57102753D01*
X193194957Y-57077208D01*
X193146287Y-57069500D01*
X192933713Y-57069500D01*
X192885042Y-57077208D01*
X192723760Y-57102753D01*
X192521585Y-57168444D01*
X192332179Y-57264951D01*
X192160213Y-57389890D01*
X192009890Y-57540213D01*
X191884949Y-57712182D01*
X191880484Y-57720946D01*
X191832509Y-57771742D01*
X191764688Y-57788536D01*
X191698553Y-57765998D01*
X191659516Y-57720946D01*
X191655050Y-57712182D01*
X191530109Y-57540213D01*
X191379786Y-57389890D01*
X191207820Y-57264951D01*
X191018414Y-57168444D01*
X191018413Y-57168443D01*
X191018412Y-57168443D01*
X190816243Y-57102754D01*
X190816241Y-57102753D01*
X190816240Y-57102753D01*
X190654957Y-57077208D01*
X190606287Y-57069500D01*
X190393713Y-57069500D01*
X190345042Y-57077208D01*
X190183760Y-57102753D01*
X189981585Y-57168444D01*
X189792179Y-57264951D01*
X189620213Y-57389890D01*
X189469890Y-57540213D01*
X189344949Y-57712182D01*
X189340484Y-57720946D01*
X189292509Y-57771742D01*
X189224688Y-57788536D01*
X189158553Y-57765998D01*
X189119516Y-57720946D01*
X189115050Y-57712182D01*
X188990109Y-57540213D01*
X188839786Y-57389890D01*
X188667820Y-57264951D01*
X188478414Y-57168444D01*
X188478413Y-57168443D01*
X188478412Y-57168443D01*
X188276243Y-57102754D01*
X188276241Y-57102753D01*
X188276240Y-57102753D01*
X188114957Y-57077208D01*
X188066287Y-57069500D01*
X187853713Y-57069500D01*
X187805042Y-57077208D01*
X187643760Y-57102753D01*
X187441585Y-57168444D01*
X187252179Y-57264951D01*
X187080213Y-57389890D01*
X186929890Y-57540213D01*
X186804949Y-57712182D01*
X186800484Y-57720946D01*
X186752509Y-57771742D01*
X186684688Y-57788536D01*
X186618553Y-57765998D01*
X186579516Y-57720946D01*
X186575050Y-57712182D01*
X186450109Y-57540213D01*
X186299786Y-57389890D01*
X186127815Y-57264948D01*
X186127814Y-57264947D01*
X186008369Y-57204086D01*
X185957573Y-57156112D01*
X185940778Y-57088291D01*
X185963316Y-57022156D01*
X185972415Y-57014271D01*
X185974626Y-57000311D01*
X185354314Y-56380000D01*
X185485826Y-56380000D01*
X185612993Y-56345925D01*
X185727007Y-56280099D01*
X185820099Y-56187007D01*
X185885925Y-56072993D01*
X185920000Y-55945826D01*
X185920000Y-55879999D01*
X185985685Y-55879999D01*
X185985685Y-55880000D01*
X186540310Y-56434625D01*
X186578418Y-56359835D01*
X186639221Y-56172705D01*
X186670000Y-55978382D01*
X186670000Y-55781617D01*
X186639221Y-55587294D01*
X186578417Y-55400161D01*
X186540311Y-55325373D01*
X186540311Y-55325372D01*
X185985685Y-55879999D01*
X185920000Y-55879999D01*
X185920000Y-55814174D01*
X185885925Y-55687007D01*
X185820099Y-55572993D01*
X185727007Y-55479901D01*
X185612993Y-55414075D01*
X185485826Y-55380000D01*
X185354174Y-55380000D01*
X185227007Y-55414075D01*
X185112993Y-55479901D01*
X185019901Y-55572993D01*
X184954075Y-55687007D01*
X184920000Y-55814174D01*
X184920000Y-55945686D01*
X184890633Y-55916319D01*
X184299687Y-55325372D01*
X184282426Y-55328106D01*
X184268903Y-55342425D01*
X184259530Y-55344745D01*
X184251911Y-55350677D01*
X184226170Y-55353006D01*
X184201081Y-55359219D01*
X184191940Y-55356103D01*
X184182325Y-55356974D01*
X184159413Y-55345018D01*
X184134947Y-55336680D01*
X184127291Y-55328256D01*
X184120382Y-55324651D01*
X184104341Y-55303005D01*
X184098702Y-55296800D01*
X184097247Y-55294251D01*
X184035051Y-55172184D01*
X184000182Y-55124191D01*
X183996807Y-55118277D01*
X183990246Y-55090639D01*
X183980702Y-55063887D01*
X183980500Y-55056810D01*
X183980500Y-54759687D01*
X184865372Y-54759687D01*
X185420000Y-55314314D01*
X185420001Y-55314314D01*
X185974626Y-54759687D01*
X185897684Y-54720485D01*
X185846888Y-54672512D01*
X185830092Y-54604691D01*
X185852629Y-54538556D01*
X185897683Y-54499515D01*
X185974625Y-54460310D01*
X185498995Y-53984679D01*
X187755601Y-53984679D01*
X187770435Y-54078349D01*
X187770437Y-54078355D01*
X187827956Y-54191241D01*
X187827963Y-54191250D01*
X187917549Y-54280836D01*
X187917553Y-54280839D01*
X188030455Y-54338366D01*
X188124114Y-54353199D01*
X188605599Y-54353199D01*
X189405600Y-54353199D01*
X189887079Y-54353199D01*
X189980749Y-54338364D01*
X189980755Y-54338362D01*
X190093641Y-54280843D01*
X190093650Y-54280836D01*
X190183236Y-54191250D01*
X190183239Y-54191246D01*
X190240766Y-54078344D01*
X190255600Y-53984686D01*
X190255600Y-53503200D01*
X189405600Y-53503200D01*
X189405600Y-54353199D01*
X188605599Y-54353199D01*
X188605600Y-54353198D01*
X188605600Y-53503200D01*
X187755601Y-53503200D01*
X187755601Y-53984679D01*
X185498995Y-53984679D01*
X185420001Y-53905685D01*
X185420000Y-53905685D01*
X184898887Y-54426796D01*
X184983131Y-54532892D01*
X185009403Y-54597634D01*
X184996502Y-54666302D01*
X184948524Y-54717095D01*
X184942314Y-54720486D01*
X184865372Y-54759687D01*
X183980500Y-54759687D01*
X183980500Y-54163188D01*
X184000185Y-54096149D01*
X184004169Y-54090320D01*
X184035051Y-54047816D01*
X184095911Y-53928370D01*
X184143885Y-53877574D01*
X184211706Y-53860779D01*
X184277841Y-53883316D01*
X184285724Y-53892414D01*
X184299687Y-53894626D01*
X184854314Y-53340000D01*
X184854314Y-53339999D01*
X184788489Y-53274174D01*
X184920000Y-53274174D01*
X184920000Y-53405826D01*
X184954075Y-53532993D01*
X185019901Y-53647007D01*
X185112993Y-53740099D01*
X185227007Y-53805925D01*
X185354174Y-53840000D01*
X185485826Y-53840000D01*
X185612993Y-53805925D01*
X185727007Y-53740099D01*
X185820099Y-53647007D01*
X185885925Y-53532993D01*
X185920000Y-53405826D01*
X185920000Y-53339999D01*
X185985685Y-53339999D01*
X185985685Y-53340000D01*
X186540310Y-53894625D01*
X186578418Y-53819835D01*
X186639221Y-53632705D01*
X186669998Y-53438390D01*
X186670000Y-53438373D01*
X186670000Y-53241617D01*
X186639221Y-53047296D01*
X186635998Y-53037374D01*
X188505600Y-53037374D01*
X188505600Y-53169026D01*
X188539675Y-53296193D01*
X188605501Y-53410207D01*
X188698593Y-53503299D01*
X188812607Y-53569125D01*
X188939774Y-53603200D01*
X189071426Y-53603200D01*
X189198593Y-53569125D01*
X189312607Y-53503299D01*
X189405699Y-53410207D01*
X189471525Y-53296193D01*
X189505600Y-53169026D01*
X189505600Y-53037374D01*
X189494758Y-52996913D01*
X195855100Y-52996913D01*
X195855100Y-53209487D01*
X195888354Y-53419443D01*
X195953882Y-53621118D01*
X195954044Y-53621614D01*
X196050551Y-53811020D01*
X196175490Y-53982986D01*
X196325813Y-54133309D01*
X196497779Y-54258248D01*
X196497781Y-54258249D01*
X196497784Y-54258251D01*
X196687188Y-54354757D01*
X196889357Y-54420446D01*
X197099313Y-54453700D01*
X197099314Y-54453700D01*
X197311886Y-54453700D01*
X197311887Y-54453700D01*
X197521843Y-54420446D01*
X197724012Y-54354757D01*
X197913416Y-54258251D01*
X198005636Y-54191250D01*
X198085386Y-54133309D01*
X198085388Y-54133306D01*
X198085392Y-54133304D01*
X198234017Y-53984679D01*
X200578401Y-53984679D01*
X200593235Y-54078349D01*
X200593237Y-54078355D01*
X200650756Y-54191241D01*
X200650763Y-54191250D01*
X200740349Y-54280836D01*
X200740353Y-54280839D01*
X200853255Y-54338366D01*
X200946914Y-54353199D01*
X201428399Y-54353199D01*
X202228400Y-54353199D01*
X202709879Y-54353199D01*
X202803549Y-54338364D01*
X202803555Y-54338362D01*
X202916441Y-54280843D01*
X202916450Y-54280836D01*
X203006036Y-54191250D01*
X203006039Y-54191246D01*
X203063566Y-54078344D01*
X203078400Y-53984686D01*
X203078400Y-53503200D01*
X202228400Y-53503200D01*
X202228400Y-54353199D01*
X201428399Y-54353199D01*
X201428400Y-54353198D01*
X201428400Y-53503200D01*
X200578401Y-53503200D01*
X200578401Y-53984679D01*
X198234017Y-53984679D01*
X198235704Y-53982992D01*
X198235706Y-53982988D01*
X198235709Y-53982986D01*
X198360648Y-53811020D01*
X198360647Y-53811020D01*
X198360651Y-53811016D01*
X198457157Y-53621612D01*
X198522846Y-53419443D01*
X198556100Y-53209487D01*
X198556100Y-53037374D01*
X201328400Y-53037374D01*
X201328400Y-53169026D01*
X201362475Y-53296193D01*
X201428301Y-53410207D01*
X201521393Y-53503299D01*
X201635407Y-53569125D01*
X201762574Y-53603200D01*
X201894226Y-53603200D01*
X202021393Y-53569125D01*
X202135407Y-53503299D01*
X202228499Y-53410207D01*
X202294325Y-53296193D01*
X202328400Y-53169026D01*
X202328400Y-53037374D01*
X202294325Y-52910207D01*
X202228499Y-52796193D01*
X202135506Y-52703200D01*
X202228400Y-52703200D01*
X203078399Y-52703200D01*
X203078399Y-52221720D01*
X203063564Y-52128050D01*
X203063562Y-52128044D01*
X203006043Y-52015158D01*
X203006036Y-52015149D01*
X202916450Y-51925563D01*
X202916446Y-51925560D01*
X202803544Y-51868033D01*
X202709886Y-51853200D01*
X202228400Y-51853200D01*
X202228400Y-52703200D01*
X202135506Y-52703200D01*
X202135407Y-52703101D01*
X202021393Y-52637275D01*
X201894226Y-52603200D01*
X201762574Y-52603200D01*
X201635407Y-52637275D01*
X201521393Y-52703101D01*
X201428301Y-52796193D01*
X201362475Y-52910207D01*
X201328400Y-53037374D01*
X198556100Y-53037374D01*
X198556100Y-52996913D01*
X198522846Y-52786957D01*
X198457157Y-52584788D01*
X198360651Y-52395384D01*
X198298541Y-52309896D01*
X198283891Y-52289732D01*
X198283890Y-52289729D01*
X198235709Y-52223414D01*
X198235705Y-52223409D01*
X198234009Y-52221713D01*
X200578400Y-52221713D01*
X200578400Y-52703200D01*
X201428400Y-52703200D01*
X201428400Y-51853200D01*
X200946920Y-51853200D01*
X200853250Y-51868035D01*
X200853244Y-51868037D01*
X200740358Y-51925556D01*
X200740349Y-51925563D01*
X200650763Y-52015149D01*
X200650760Y-52015153D01*
X200593233Y-52128055D01*
X200578400Y-52221713D01*
X198234009Y-52221713D01*
X198085386Y-52073090D01*
X197913420Y-51948151D01*
X197724014Y-51851644D01*
X197724013Y-51851643D01*
X197724012Y-51851643D01*
X197521843Y-51785954D01*
X197521841Y-51785953D01*
X197521840Y-51785953D01*
X197360557Y-51760408D01*
X197311887Y-51752700D01*
X197099313Y-51752700D01*
X197050642Y-51760408D01*
X196889360Y-51785953D01*
X196687185Y-51851644D01*
X196497779Y-51948151D01*
X196325813Y-52073090D01*
X196175490Y-52223413D01*
X196050551Y-52395379D01*
X195954044Y-52584785D01*
X195888353Y-52786960D01*
X195866243Y-52926560D01*
X195855100Y-52996913D01*
X189494758Y-52996913D01*
X189471525Y-52910207D01*
X189405699Y-52796193D01*
X189312706Y-52703200D01*
X189405600Y-52703200D01*
X190255599Y-52703200D01*
X190255599Y-52221720D01*
X190240764Y-52128050D01*
X190240762Y-52128044D01*
X190183243Y-52015158D01*
X190183236Y-52015149D01*
X190093650Y-51925563D01*
X190093646Y-51925560D01*
X189980744Y-51868033D01*
X189887086Y-51853200D01*
X189405600Y-51853200D01*
X189405600Y-52703200D01*
X189312706Y-52703200D01*
X189312607Y-52703101D01*
X189198593Y-52637275D01*
X189071426Y-52603200D01*
X188939774Y-52603200D01*
X188812607Y-52637275D01*
X188698593Y-52703101D01*
X188605501Y-52796193D01*
X188539675Y-52910207D01*
X188505600Y-53037374D01*
X186635998Y-53037374D01*
X186633719Y-53030360D01*
X186633718Y-53030358D01*
X186578417Y-52860161D01*
X186540311Y-52785373D01*
X186540311Y-52785372D01*
X185985685Y-53339999D01*
X185920000Y-53339999D01*
X185920000Y-53274174D01*
X185885925Y-53147007D01*
X185820099Y-53032993D01*
X185727007Y-52939901D01*
X185612993Y-52874075D01*
X185485826Y-52840000D01*
X185354174Y-52840000D01*
X185227007Y-52874075D01*
X185112993Y-52939901D01*
X185019901Y-53032993D01*
X184954075Y-53147007D01*
X184920000Y-53274174D01*
X184788489Y-53274174D01*
X184299687Y-52785372D01*
X184282426Y-52788106D01*
X184268903Y-52802425D01*
X184259530Y-52804745D01*
X184251911Y-52810677D01*
X184226170Y-52813006D01*
X184201081Y-52819219D01*
X184191940Y-52816103D01*
X184182325Y-52816974D01*
X184159413Y-52805018D01*
X184134947Y-52796680D01*
X184127291Y-52788256D01*
X184120382Y-52784651D01*
X184104341Y-52763005D01*
X184098702Y-52756800D01*
X184097247Y-52754251D01*
X184035051Y-52632184D01*
X184000182Y-52584191D01*
X183996807Y-52578277D01*
X183990246Y-52550639D01*
X183980702Y-52523887D01*
X183980500Y-52516810D01*
X183980500Y-52219687D01*
X184865372Y-52219687D01*
X185420000Y-52774314D01*
X185420001Y-52774314D01*
X185951143Y-52243170D01*
X185929847Y-52221713D01*
X187755600Y-52221713D01*
X187755600Y-52703200D01*
X188605600Y-52703200D01*
X188605600Y-51853200D01*
X188124120Y-51853200D01*
X188030450Y-51868035D01*
X188030444Y-51868037D01*
X187917558Y-51925556D01*
X187917549Y-51925563D01*
X187827963Y-52015149D01*
X187827960Y-52015153D01*
X187770433Y-52128055D01*
X187755600Y-52221713D01*
X185929847Y-52221713D01*
X185865967Y-52157350D01*
X185858418Y-52143402D01*
X185846888Y-52132512D01*
X185842131Y-52113304D01*
X185832713Y-52095901D01*
X185833904Y-52080084D01*
X185830092Y-52064691D01*
X185836473Y-52045963D01*
X185837960Y-52026229D01*
X185847513Y-52013566D01*
X185852629Y-51998556D01*
X185870565Y-51983013D01*
X185880042Y-51970453D01*
X185888776Y-51967232D01*
X185897683Y-51959515D01*
X185974625Y-51920310D01*
X185420001Y-51365685D01*
X185420000Y-51365685D01*
X184898887Y-51886796D01*
X184983131Y-51992892D01*
X185009403Y-52057634D01*
X184996502Y-52126302D01*
X184948524Y-52177095D01*
X184942314Y-52180486D01*
X184865372Y-52219687D01*
X183980500Y-52219687D01*
X183980500Y-51623188D01*
X184000185Y-51556149D01*
X184004169Y-51550320D01*
X184035051Y-51507816D01*
X184095911Y-51388370D01*
X184143885Y-51337574D01*
X184211706Y-51320779D01*
X184277841Y-51343316D01*
X184285724Y-51352414D01*
X184299687Y-51354626D01*
X184854314Y-50800000D01*
X184854314Y-50799999D01*
X184788489Y-50734174D01*
X184920000Y-50734174D01*
X184920000Y-50865826D01*
X184954075Y-50992993D01*
X185019901Y-51107007D01*
X185112993Y-51200099D01*
X185227007Y-51265925D01*
X185354174Y-51300000D01*
X185485826Y-51300000D01*
X185612993Y-51265925D01*
X185727007Y-51200099D01*
X185820099Y-51107007D01*
X185885925Y-50992993D01*
X185920000Y-50865826D01*
X185920000Y-50799999D01*
X185985685Y-50799999D01*
X185985685Y-50800000D01*
X186540310Y-51354625D01*
X186578418Y-51279835D01*
X186639221Y-51092705D01*
X186670000Y-50898382D01*
X186670000Y-50701617D01*
X186639221Y-50507294D01*
X186578417Y-50320161D01*
X186540311Y-50245373D01*
X186540311Y-50245372D01*
X185985685Y-50799999D01*
X185920000Y-50799999D01*
X185920000Y-50734174D01*
X185885925Y-50607007D01*
X185820099Y-50492993D01*
X185727007Y-50399901D01*
X185612993Y-50334075D01*
X185485826Y-50300000D01*
X185354174Y-50300000D01*
X185227007Y-50334075D01*
X185112993Y-50399901D01*
X185019901Y-50492993D01*
X184954075Y-50607007D01*
X184920000Y-50734174D01*
X184788489Y-50734174D01*
X184299687Y-50245372D01*
X184282426Y-50248106D01*
X184268903Y-50262425D01*
X184259530Y-50264745D01*
X184251911Y-50270677D01*
X184226170Y-50273006D01*
X184201081Y-50279219D01*
X184191940Y-50276103D01*
X184182325Y-50276974D01*
X184159413Y-50265018D01*
X184134947Y-50256680D01*
X184127291Y-50248256D01*
X184120382Y-50244651D01*
X184104341Y-50223005D01*
X184098702Y-50216800D01*
X184097247Y-50214251D01*
X184035051Y-50092184D01*
X184000182Y-50044191D01*
X183996807Y-50038277D01*
X183990246Y-50010639D01*
X183980702Y-49983887D01*
X183980500Y-49976810D01*
X183980500Y-49679687D01*
X184865372Y-49679687D01*
X185420000Y-50234314D01*
X185420001Y-50234314D01*
X185974626Y-49679687D01*
X185897684Y-49640485D01*
X185846888Y-49592512D01*
X185830092Y-49524691D01*
X185852629Y-49458556D01*
X185897683Y-49419515D01*
X185974625Y-49380310D01*
X185420001Y-48825685D01*
X185420000Y-48825685D01*
X184898887Y-49346796D01*
X184983131Y-49452892D01*
X185009403Y-49517634D01*
X184996502Y-49586302D01*
X184948524Y-49637095D01*
X184942314Y-49640486D01*
X184865372Y-49679687D01*
X183980500Y-49679687D01*
X183980500Y-49083188D01*
X184000185Y-49016149D01*
X184004169Y-49010320D01*
X184035051Y-48967816D01*
X184095911Y-48848370D01*
X184143885Y-48797574D01*
X184211706Y-48780779D01*
X184277841Y-48803316D01*
X184285724Y-48812414D01*
X184299687Y-48814626D01*
X184920000Y-48194313D01*
X184920000Y-48325826D01*
X184954075Y-48452993D01*
X185019901Y-48567007D01*
X185112993Y-48660099D01*
X185227007Y-48725925D01*
X185354174Y-48760000D01*
X185485826Y-48760000D01*
X185612993Y-48725925D01*
X185727007Y-48660099D01*
X185820099Y-48567007D01*
X185885925Y-48452993D01*
X185920000Y-48325826D01*
X185920000Y-48194315D01*
X186540310Y-48814625D01*
X186578418Y-48739835D01*
X186639221Y-48552705D01*
X186670000Y-48358382D01*
X186670000Y-48161617D01*
X186639221Y-47967294D01*
X186578417Y-47780161D01*
X186569569Y-47762794D01*
X186556673Y-47694124D01*
X186582950Y-47629384D01*
X186640057Y-47589128D01*
X186680054Y-47582500D01*
X203945388Y-47582500D01*
X204012427Y-47602185D01*
X204058182Y-47654989D01*
X204069388Y-47706500D01*
X204069388Y-56522679D01*
X204049703Y-56589718D01*
X204019701Y-56621944D01*
X204012347Y-56627449D01*
X204012339Y-56627457D01*
X203926094Y-56742664D01*
X203926090Y-56742671D01*
X203875796Y-56877517D01*
X203872293Y-56910104D01*
X203869389Y-56937123D01*
X203869388Y-56937135D01*
X203869388Y-58632870D01*
X203869389Y-58632876D01*
X203875796Y-58692483D01*
X203926090Y-58827328D01*
X203926094Y-58827335D01*
X204012340Y-58942544D01*
X204012343Y-58942547D01*
X204127552Y-59028793D01*
X204127559Y-59028797D01*
X204262405Y-59079091D01*
X204262404Y-59079091D01*
X204269332Y-59079835D01*
X204322015Y-59085500D01*
X206017760Y-59085499D01*
X206077371Y-59079091D01*
X206212219Y-59028796D01*
X206327434Y-58942546D01*
X206383137Y-58868136D01*
X207152436Y-58868136D01*
X207209247Y-58897084D01*
X207209250Y-58897085D01*
X207388885Y-58955452D01*
X207575441Y-58985000D01*
X207764335Y-58985000D01*
X207950889Y-58955452D01*
X208130525Y-58897084D01*
X208187339Y-58868136D01*
X207669889Y-58350686D01*
X207669888Y-58350686D01*
X207152436Y-58868136D01*
X206383137Y-58868136D01*
X206413684Y-58827331D01*
X206463979Y-58692483D01*
X206470388Y-58632873D01*
X206470387Y-58429204D01*
X206490071Y-58362167D01*
X206542875Y-58316412D01*
X206577812Y-58311388D01*
X207104202Y-57785000D01*
X207104202Y-57784999D01*
X207051542Y-57732339D01*
X207269888Y-57732339D01*
X207269888Y-57837661D01*
X207297147Y-57939394D01*
X207349808Y-58030606D01*
X207424282Y-58105080D01*
X207515494Y-58157741D01*
X207617227Y-58185000D01*
X207722549Y-58185000D01*
X207824282Y-58157741D01*
X207915494Y-58105080D01*
X207989968Y-58030606D01*
X208042629Y-57939394D01*
X208069888Y-57837661D01*
X208069888Y-57784999D01*
X208235574Y-57784999D01*
X208235574Y-57785000D01*
X208753024Y-58302451D01*
X208781972Y-58245637D01*
X208834083Y-58085258D01*
X213049499Y-58085258D01*
X213049499Y-58314741D01*
X213064570Y-58429207D01*
X213079451Y-58542238D01*
X213126283Y-58717020D01*
X213138841Y-58763887D01*
X213226649Y-58975876D01*
X213226656Y-58975890D01*
X213341391Y-59174617D01*
X213481080Y-59356661D01*
X213481088Y-59356670D01*
X213643329Y-59518911D01*
X213643337Y-59518918D01*
X213643338Y-59518919D01*
X213693961Y-59557764D01*
X213825381Y-59658607D01*
X213825384Y-59658608D01*
X213825387Y-59658611D01*
X214024111Y-59773344D01*
X214024116Y-59773346D01*
X214024122Y-59773349D01*
X214115479Y-59811190D01*
X214236112Y-59861158D01*
X214457761Y-59920548D01*
X214685265Y-59950500D01*
X214685272Y-59950500D01*
X214914726Y-59950500D01*
X214914733Y-59950500D01*
X215142237Y-59920548D01*
X215363886Y-59861158D01*
X215575887Y-59773344D01*
X215774611Y-59658611D01*
X215956660Y-59518919D01*
X215956664Y-59518914D01*
X215956669Y-59518911D01*
X216118910Y-59356670D01*
X216118913Y-59356665D01*
X216118918Y-59356661D01*
X216258610Y-59174612D01*
X216373343Y-58975888D01*
X216461157Y-58763887D01*
X216520547Y-58542238D01*
X216550499Y-58314734D01*
X216550499Y-58085266D01*
X216520547Y-57857762D01*
X216461157Y-57636113D01*
X216406433Y-57503997D01*
X216373348Y-57424123D01*
X216373345Y-57424117D01*
X216373343Y-57424112D01*
X216258610Y-57225388D01*
X216258607Y-57225385D01*
X216258606Y-57225382D01*
X216118917Y-57043338D01*
X216118910Y-57043330D01*
X215956669Y-56881089D01*
X215956660Y-56881081D01*
X215774616Y-56741392D01*
X215575889Y-56626657D01*
X215575875Y-56626650D01*
X215363886Y-56538842D01*
X215303564Y-56522679D01*
X215142237Y-56479452D01*
X215104214Y-56474446D01*
X214914740Y-56449500D01*
X214914733Y-56449500D01*
X214685265Y-56449500D01*
X214685257Y-56449500D01*
X214468714Y-56478009D01*
X214457761Y-56479452D01*
X214364075Y-56504554D01*
X214236111Y-56538842D01*
X214024122Y-56626650D01*
X214024108Y-56626657D01*
X213825381Y-56741392D01*
X213643337Y-56881081D01*
X213481080Y-57043338D01*
X213341391Y-57225382D01*
X213226656Y-57424109D01*
X213226649Y-57424123D01*
X213138841Y-57636112D01*
X213079452Y-57857759D01*
X213079450Y-57857770D01*
X213049499Y-58085258D01*
X208834083Y-58085258D01*
X208840338Y-58066007D01*
X208841003Y-58061810D01*
X208841004Y-58061807D01*
X208869888Y-57879447D01*
X208869888Y-57690552D01*
X208840340Y-57503997D01*
X208781973Y-57324362D01*
X208781972Y-57324359D01*
X208753024Y-57267548D01*
X208235574Y-57784999D01*
X208069888Y-57784999D01*
X208069888Y-57732339D01*
X208042629Y-57630606D01*
X207989968Y-57539394D01*
X207915494Y-57464920D01*
X207824282Y-57412259D01*
X207722549Y-57385000D01*
X207617227Y-57385000D01*
X207515494Y-57412259D01*
X207424282Y-57464920D01*
X207349808Y-57539394D01*
X207297147Y-57630606D01*
X207269888Y-57732339D01*
X207051542Y-57732339D01*
X206577820Y-57258617D01*
X206544492Y-57254311D01*
X206491040Y-57209315D01*
X206470400Y-57142564D01*
X206470387Y-57140792D01*
X206470387Y-56937129D01*
X206470386Y-56937123D01*
X206470385Y-56937116D01*
X206463979Y-56877517D01*
X206425844Y-56775272D01*
X206413686Y-56742673D01*
X206413681Y-56742664D01*
X206383136Y-56701862D01*
X207152435Y-56701862D01*
X207669888Y-57219314D01*
X207669889Y-57219314D01*
X208187339Y-56701862D01*
X208187339Y-56701861D01*
X208130527Y-56672915D01*
X207950890Y-56614547D01*
X207764335Y-56585000D01*
X207575441Y-56585000D01*
X207388885Y-56614547D01*
X207209252Y-56672914D01*
X207209250Y-56672915D01*
X207152435Y-56701862D01*
X206383136Y-56701862D01*
X206327436Y-56627457D01*
X206327434Y-56627454D01*
X206327430Y-56627451D01*
X206327428Y-56627449D01*
X206320075Y-56621944D01*
X206278205Y-56566009D01*
X206270388Y-56522679D01*
X206270388Y-52996913D01*
X208677900Y-52996913D01*
X208677900Y-53209487D01*
X208711154Y-53419443D01*
X208776682Y-53621118D01*
X208776844Y-53621614D01*
X208873351Y-53811020D01*
X208998290Y-53982986D01*
X209148613Y-54133309D01*
X209320579Y-54258248D01*
X209320581Y-54258249D01*
X209320584Y-54258251D01*
X209509988Y-54354757D01*
X209712157Y-54420446D01*
X209922113Y-54453700D01*
X209922114Y-54453700D01*
X210134686Y-54453700D01*
X210134687Y-54453700D01*
X210344643Y-54420446D01*
X210546812Y-54354757D01*
X210736216Y-54258251D01*
X210828436Y-54191250D01*
X210908186Y-54133309D01*
X210908188Y-54133306D01*
X210908192Y-54133304D01*
X211058504Y-53982992D01*
X211058506Y-53982988D01*
X211058509Y-53982986D01*
X211183448Y-53811020D01*
X211183447Y-53811020D01*
X211183451Y-53811016D01*
X211279957Y-53621612D01*
X211345646Y-53419443D01*
X211378900Y-53209487D01*
X211378900Y-52996913D01*
X211345646Y-52786957D01*
X211279957Y-52584788D01*
X211183451Y-52395384D01*
X211183449Y-52395381D01*
X211183448Y-52395379D01*
X211058509Y-52223413D01*
X210908186Y-52073090D01*
X210736220Y-51948151D01*
X210546814Y-51851644D01*
X210546813Y-51851643D01*
X210546812Y-51851643D01*
X210344643Y-51785954D01*
X210344641Y-51785953D01*
X210344640Y-51785953D01*
X210183357Y-51760408D01*
X210134687Y-51752700D01*
X209922113Y-51752700D01*
X209873442Y-51760408D01*
X209712160Y-51785953D01*
X209509985Y-51851644D01*
X209320579Y-51948151D01*
X209148613Y-52073090D01*
X208998290Y-52223413D01*
X208873351Y-52395379D01*
X208776844Y-52584785D01*
X208711153Y-52786960D01*
X208689043Y-52926560D01*
X208677900Y-52996913D01*
X206270388Y-52996913D01*
X206270388Y-47051316D01*
X206290073Y-46984277D01*
X206306707Y-46963635D01*
X208508754Y-44761588D01*
X210867814Y-42402528D01*
X210969632Y-42262388D01*
X211048273Y-42108045D01*
X211101802Y-41943301D01*
X211128900Y-41772211D01*
X211128900Y-41598989D01*
X211128900Y-39126388D01*
X211148585Y-39059349D01*
X211152569Y-39053520D01*
X211183451Y-39011016D01*
X211279957Y-38821612D01*
X211345646Y-38619443D01*
X211378900Y-38409487D01*
X211378900Y-38196913D01*
X211345646Y-37986957D01*
X211279957Y-37784788D01*
X211183451Y-37595384D01*
X211183449Y-37595381D01*
X211183448Y-37595379D01*
X211058509Y-37423413D01*
X210908186Y-37273090D01*
X210736220Y-37148151D01*
X210546814Y-37051644D01*
X210546813Y-37051643D01*
X210546812Y-37051643D01*
X210344643Y-36985954D01*
X210344641Y-36985953D01*
X210344640Y-36985953D01*
X210183357Y-36960408D01*
X210134687Y-36952700D01*
X209922113Y-36952700D01*
X209873442Y-36960408D01*
X209712160Y-36985953D01*
X209509985Y-37051644D01*
X209320579Y-37148151D01*
X209148613Y-37273090D01*
X208998290Y-37423413D01*
X208873351Y-37595379D01*
X208776844Y-37784785D01*
X208711153Y-37986960D01*
X208677900Y-38196913D01*
X208677900Y-38409486D01*
X208710990Y-38618412D01*
X208711154Y-38619443D01*
X208772360Y-38807816D01*
X208776844Y-38821614D01*
X208873349Y-39011017D01*
X208887696Y-39030764D01*
X208904217Y-39053503D01*
X208927698Y-39119307D01*
X208927900Y-39126388D01*
X208927900Y-41178396D01*
X208908215Y-41245435D01*
X208891581Y-41266077D01*
X204812477Y-45345181D01*
X204751154Y-45378666D01*
X204724796Y-45381500D01*
X191983004Y-45381500D01*
X191915965Y-45361815D01*
X191870210Y-45309011D01*
X191860266Y-45239853D01*
X191889291Y-45176297D01*
X191895323Y-45169819D01*
X193253679Y-43811463D01*
X197401689Y-39663451D01*
X197463010Y-39629968D01*
X197469928Y-39628668D01*
X197521843Y-39620446D01*
X197724012Y-39554757D01*
X197913416Y-39458251D01*
X198005636Y-39391250D01*
X198085386Y-39333309D01*
X198085388Y-39333306D01*
X198085392Y-39333304D01*
X198234017Y-39184679D01*
X200578401Y-39184679D01*
X200593235Y-39278349D01*
X200593237Y-39278355D01*
X200650756Y-39391241D01*
X200650763Y-39391250D01*
X200740349Y-39480836D01*
X200740353Y-39480839D01*
X200853255Y-39538366D01*
X200946914Y-39553199D01*
X201428399Y-39553199D01*
X202228400Y-39553199D01*
X202709879Y-39553199D01*
X202803549Y-39538364D01*
X202803555Y-39538362D01*
X202916441Y-39480843D01*
X202916450Y-39480836D01*
X203006036Y-39391250D01*
X203006039Y-39391246D01*
X203063566Y-39278344D01*
X203078400Y-39184686D01*
X203078400Y-38703200D01*
X202228400Y-38703200D01*
X202228400Y-39553199D01*
X201428399Y-39553199D01*
X201428400Y-39553198D01*
X201428400Y-38703200D01*
X200578401Y-38703200D01*
X200578401Y-39184679D01*
X198234017Y-39184679D01*
X198235704Y-39182992D01*
X198235706Y-39182988D01*
X198235709Y-39182986D01*
X198360648Y-39011020D01*
X198360650Y-39011017D01*
X198360651Y-39011016D01*
X198457157Y-38821612D01*
X198522846Y-38619443D01*
X198531172Y-38566866D01*
X198531261Y-38566345D01*
X198546278Y-38535469D01*
X198560989Y-38504437D01*
X198561777Y-38503601D01*
X198561821Y-38503513D01*
X198561916Y-38503454D01*
X198565835Y-38499305D01*
X198827766Y-38237374D01*
X201328400Y-38237374D01*
X201328400Y-38369026D01*
X201362475Y-38496193D01*
X201428301Y-38610207D01*
X201521393Y-38703299D01*
X201635407Y-38769125D01*
X201762574Y-38803200D01*
X201894226Y-38803200D01*
X202021393Y-38769125D01*
X202135407Y-38703299D01*
X202228499Y-38610207D01*
X202294325Y-38496193D01*
X202328400Y-38369026D01*
X202328400Y-38237374D01*
X202294325Y-38110207D01*
X202228499Y-37996193D01*
X202135506Y-37903200D01*
X202228400Y-37903200D01*
X203078399Y-37903200D01*
X203078399Y-37421720D01*
X203063564Y-37328050D01*
X203063562Y-37328044D01*
X203006043Y-37215158D01*
X203006036Y-37215149D01*
X202916450Y-37125563D01*
X202916446Y-37125560D01*
X202803544Y-37068033D01*
X202709886Y-37053200D01*
X202228400Y-37053200D01*
X202228400Y-37903200D01*
X202135506Y-37903200D01*
X202135407Y-37903101D01*
X202021393Y-37837275D01*
X201894226Y-37803200D01*
X201762574Y-37803200D01*
X201635407Y-37837275D01*
X201521393Y-37903101D01*
X201428301Y-37996193D01*
X201362475Y-38110207D01*
X201328400Y-38237374D01*
X198827766Y-38237374D01*
X199643428Y-37421713D01*
X200578400Y-37421713D01*
X200578400Y-37903200D01*
X201428400Y-37903200D01*
X201428400Y-37053200D01*
X200946920Y-37053200D01*
X200853250Y-37068035D01*
X200853244Y-37068037D01*
X200740358Y-37125556D01*
X200740349Y-37125563D01*
X200650763Y-37215149D01*
X200650760Y-37215153D01*
X200593233Y-37328055D01*
X200578400Y-37421713D01*
X199643428Y-37421713D01*
X202273323Y-34791819D01*
X202334646Y-34758334D01*
X202361004Y-34755500D01*
X203907567Y-34755500D01*
X203974606Y-34775185D01*
X204006835Y-34805191D01*
X204012341Y-34812546D01*
X204012344Y-34812548D01*
X204127551Y-34898793D01*
X204127558Y-34898797D01*
X204262404Y-34949091D01*
X204262403Y-34949091D01*
X204269331Y-34949835D01*
X204322014Y-34955500D01*
X206017759Y-34955499D01*
X206077370Y-34949091D01*
X206212218Y-34898796D01*
X206327433Y-34812546D01*
X206383136Y-34738136D01*
X207152435Y-34738136D01*
X207209246Y-34767084D01*
X207209249Y-34767085D01*
X207388884Y-34825452D01*
X207575440Y-34855000D01*
X207764334Y-34855000D01*
X207950888Y-34825452D01*
X208130524Y-34767084D01*
X208187338Y-34738136D01*
X207669888Y-34220686D01*
X207669887Y-34220686D01*
X207152435Y-34738136D01*
X206383136Y-34738136D01*
X206413683Y-34697331D01*
X206463978Y-34562483D01*
X206470387Y-34502873D01*
X206470386Y-34299204D01*
X206490070Y-34232167D01*
X206542874Y-34186412D01*
X206577811Y-34181388D01*
X207104201Y-33655000D01*
X207104201Y-33654999D01*
X207051541Y-33602339D01*
X207269887Y-33602339D01*
X207269887Y-33707661D01*
X207297146Y-33809394D01*
X207349807Y-33900606D01*
X207424281Y-33975080D01*
X207515493Y-34027741D01*
X207617226Y-34055000D01*
X207722548Y-34055000D01*
X207824281Y-34027741D01*
X207915493Y-33975080D01*
X207989967Y-33900606D01*
X208042628Y-33809394D01*
X208069887Y-33707661D01*
X208069887Y-33654999D01*
X208235573Y-33654999D01*
X208235573Y-33655000D01*
X208753023Y-34172451D01*
X208781971Y-34115637D01*
X208840339Y-33936001D01*
X208869887Y-33749447D01*
X208869887Y-33560552D01*
X208840339Y-33373997D01*
X208781972Y-33194362D01*
X208781969Y-33194354D01*
X208753023Y-33137548D01*
X208235573Y-33654999D01*
X208069887Y-33654999D01*
X208069887Y-33602339D01*
X208042628Y-33500606D01*
X207989967Y-33409394D01*
X207915493Y-33334920D01*
X207824281Y-33282259D01*
X207722548Y-33255000D01*
X207617226Y-33255000D01*
X207515493Y-33282259D01*
X207424281Y-33334920D01*
X207349807Y-33409394D01*
X207297146Y-33500606D01*
X207269887Y-33602339D01*
X207051541Y-33602339D01*
X206577819Y-33128617D01*
X206544491Y-33124311D01*
X206491039Y-33079315D01*
X206470399Y-33012564D01*
X206470386Y-33010792D01*
X206470386Y-32807129D01*
X206470385Y-32807123D01*
X206463978Y-32747516D01*
X206430665Y-32658200D01*
X206430664Y-32658198D01*
X206413685Y-32612673D01*
X206413680Y-32612664D01*
X206383135Y-32571862D01*
X207152434Y-32571862D01*
X207669887Y-33089314D01*
X207669888Y-33089314D01*
X207673944Y-33085258D01*
X213049499Y-33085258D01*
X213049499Y-33314741D01*
X213071474Y-33481650D01*
X213079451Y-33542238D01*
X213126829Y-33719056D01*
X213138841Y-33763887D01*
X213226649Y-33975876D01*
X213226655Y-33975888D01*
X213338092Y-34168904D01*
X213341391Y-34174617D01*
X213481080Y-34356661D01*
X213481088Y-34356670D01*
X213643329Y-34518911D01*
X213643337Y-34518918D01*
X213643338Y-34518919D01*
X213657646Y-34529898D01*
X213825381Y-34658607D01*
X213825384Y-34658608D01*
X213825387Y-34658611D01*
X214024111Y-34773344D01*
X214024116Y-34773346D01*
X214024122Y-34773349D01*
X214068713Y-34791819D01*
X214236112Y-34861158D01*
X214457761Y-34920548D01*
X214685265Y-34950500D01*
X214685272Y-34950500D01*
X214914726Y-34950500D01*
X214914733Y-34950500D01*
X215142237Y-34920548D01*
X215363886Y-34861158D01*
X215575887Y-34773344D01*
X215774611Y-34658611D01*
X215956660Y-34518919D01*
X215956664Y-34518914D01*
X215956669Y-34518911D01*
X216118910Y-34356670D01*
X216118913Y-34356665D01*
X216118918Y-34356661D01*
X216258610Y-34174612D01*
X216373343Y-33975888D01*
X216461157Y-33763887D01*
X216520547Y-33542238D01*
X216550499Y-33314734D01*
X216550499Y-33085266D01*
X216520547Y-32857762D01*
X216461157Y-32636113D01*
X216405435Y-32501588D01*
X216373348Y-32424123D01*
X216373345Y-32424117D01*
X216373343Y-32424112D01*
X216258610Y-32225388D01*
X216258607Y-32225385D01*
X216258606Y-32225382D01*
X216118917Y-32043338D01*
X216118910Y-32043330D01*
X215956669Y-31881089D01*
X215956660Y-31881081D01*
X215774616Y-31741392D01*
X215575889Y-31626657D01*
X215575875Y-31626650D01*
X215363886Y-31538842D01*
X215142237Y-31479452D01*
X215102155Y-31474175D01*
X214914740Y-31449500D01*
X214914733Y-31449500D01*
X214685265Y-31449500D01*
X214685257Y-31449500D01*
X214468714Y-31478009D01*
X214457761Y-31479452D01*
X214440396Y-31484105D01*
X214236111Y-31538842D01*
X214024122Y-31626650D01*
X214024108Y-31626657D01*
X213825381Y-31741392D01*
X213643337Y-31881081D01*
X213481080Y-32043338D01*
X213341391Y-32225382D01*
X213226656Y-32424109D01*
X213226649Y-32424123D01*
X213138841Y-32636112D01*
X213079452Y-32857759D01*
X213079450Y-32857770D01*
X213049499Y-33085258D01*
X207673944Y-33085258D01*
X208187338Y-32571862D01*
X208187338Y-32571861D01*
X208130526Y-32542915D01*
X207950889Y-32484547D01*
X207764334Y-32455000D01*
X207575440Y-32455000D01*
X207388884Y-32484547D01*
X207209251Y-32542914D01*
X207209249Y-32542915D01*
X207152434Y-32571862D01*
X206383135Y-32571862D01*
X206327434Y-32497455D01*
X206327431Y-32497452D01*
X206212222Y-32411206D01*
X206212215Y-32411202D01*
X206077369Y-32360908D01*
X206077370Y-32360908D01*
X206017770Y-32354501D01*
X206017768Y-32354500D01*
X206017760Y-32354500D01*
X206017751Y-32354500D01*
X204322016Y-32354500D01*
X204322010Y-32354501D01*
X204262403Y-32360908D01*
X204127558Y-32411202D01*
X204127551Y-32411206D01*
X204012344Y-32497451D01*
X204012338Y-32497457D01*
X204006835Y-32504809D01*
X203950902Y-32546681D01*
X203907567Y-32554500D01*
X201767189Y-32554500D01*
X201727528Y-32560781D01*
X201596102Y-32581597D01*
X201431352Y-32635128D01*
X201305015Y-32699500D01*
X201305014Y-32699499D01*
X201277015Y-32713766D01*
X201277007Y-32713770D01*
X201172032Y-32790040D01*
X201136872Y-32815586D01*
X201136870Y-32815588D01*
X201136869Y-32815588D01*
X197009511Y-36942945D01*
X196948188Y-36976430D01*
X196941230Y-36977737D01*
X196889359Y-36985953D01*
X196687185Y-37051644D01*
X196497779Y-37148151D01*
X196325813Y-37273090D01*
X196175490Y-37423413D01*
X196050551Y-37595379D01*
X195954044Y-37784785D01*
X195888353Y-37986959D01*
X195880137Y-38038830D01*
X195850206Y-38101964D01*
X195845345Y-38107111D01*
X190131277Y-43821181D01*
X190069954Y-43854666D01*
X190043596Y-43857500D01*
X186680054Y-43857500D01*
X186613015Y-43837815D01*
X186567260Y-43785011D01*
X186557316Y-43715853D01*
X186569569Y-43677206D01*
X186578417Y-43659838D01*
X186639221Y-43472705D01*
X186670000Y-43278382D01*
X186670000Y-43081617D01*
X186639221Y-42887294D01*
X186578417Y-42700161D01*
X186540311Y-42625373D01*
X186540311Y-42625372D01*
X185920000Y-43245683D01*
X185920000Y-43114174D01*
X185885925Y-42987007D01*
X185820099Y-42872993D01*
X185727007Y-42779901D01*
X185612993Y-42714075D01*
X185485826Y-42680000D01*
X185354174Y-42680000D01*
X185227007Y-42714075D01*
X185112993Y-42779901D01*
X185019901Y-42872993D01*
X184954075Y-42987007D01*
X184920000Y-43114174D01*
X184920000Y-43245685D01*
X184299687Y-42625372D01*
X184282426Y-42628106D01*
X184268903Y-42642425D01*
X184259530Y-42644745D01*
X184251911Y-42650677D01*
X184226170Y-42653006D01*
X184201081Y-42659219D01*
X184191940Y-42656103D01*
X184182325Y-42656974D01*
X184159413Y-42645018D01*
X184134947Y-42636680D01*
X184127291Y-42628256D01*
X184120382Y-42624651D01*
X184104341Y-42603005D01*
X184098702Y-42596800D01*
X184097247Y-42594251D01*
X184035051Y-42472184D01*
X184000182Y-42424191D01*
X183996807Y-42418277D01*
X183990246Y-42390639D01*
X183980702Y-42363887D01*
X183980500Y-42356810D01*
X183980500Y-42059687D01*
X184865372Y-42059687D01*
X185420000Y-42614314D01*
X185420001Y-42614314D01*
X185974626Y-42059687D01*
X185897684Y-42020485D01*
X185846888Y-41972512D01*
X185830092Y-41904691D01*
X185852629Y-41838556D01*
X185897683Y-41799515D01*
X185974625Y-41760310D01*
X185420001Y-41205685D01*
X185420000Y-41205685D01*
X184898887Y-41726796D01*
X184983131Y-41832892D01*
X185009403Y-41897634D01*
X184996502Y-41966302D01*
X184948524Y-42017095D01*
X184942314Y-42020486D01*
X184865372Y-42059687D01*
X183980500Y-42059687D01*
X183980500Y-41463188D01*
X184000185Y-41396149D01*
X184004169Y-41390320D01*
X184035051Y-41347816D01*
X184095911Y-41228370D01*
X184143885Y-41177574D01*
X184211706Y-41160779D01*
X184277841Y-41183316D01*
X184285724Y-41192414D01*
X184299687Y-41194626D01*
X184854314Y-40640000D01*
X184854314Y-40639999D01*
X184788489Y-40574174D01*
X184920000Y-40574174D01*
X184920000Y-40705826D01*
X184954075Y-40832993D01*
X185019901Y-40947007D01*
X185112993Y-41040099D01*
X185227007Y-41105925D01*
X185354174Y-41140000D01*
X185485826Y-41140000D01*
X185612993Y-41105925D01*
X185727007Y-41040099D01*
X185820099Y-40947007D01*
X185885925Y-40832993D01*
X185920000Y-40705826D01*
X185920000Y-40639999D01*
X185985685Y-40639999D01*
X185985685Y-40640000D01*
X186540310Y-41194625D01*
X186578418Y-41119835D01*
X186639221Y-40932705D01*
X186670000Y-40738382D01*
X186670000Y-40541617D01*
X186639221Y-40347294D01*
X186578417Y-40160161D01*
X186540311Y-40085373D01*
X186540311Y-40085372D01*
X185985685Y-40639999D01*
X185920000Y-40639999D01*
X185920000Y-40574174D01*
X185885925Y-40447007D01*
X185820099Y-40332993D01*
X185727007Y-40239901D01*
X185612993Y-40174075D01*
X185485826Y-40140000D01*
X185354174Y-40140000D01*
X185227007Y-40174075D01*
X185112993Y-40239901D01*
X185019901Y-40332993D01*
X184954075Y-40447007D01*
X184920000Y-40574174D01*
X184788489Y-40574174D01*
X184299687Y-40085372D01*
X184282426Y-40088106D01*
X184268903Y-40102425D01*
X184259530Y-40104745D01*
X184251911Y-40110677D01*
X184226170Y-40113006D01*
X184201081Y-40119219D01*
X184191940Y-40116103D01*
X184182325Y-40116974D01*
X184159413Y-40105018D01*
X184134947Y-40096680D01*
X184127291Y-40088256D01*
X184120382Y-40084651D01*
X184104341Y-40063005D01*
X184098702Y-40056800D01*
X184097247Y-40054251D01*
X184035051Y-39932184D01*
X184000182Y-39884191D01*
X183996807Y-39878277D01*
X183990246Y-39850639D01*
X183980702Y-39823887D01*
X183980500Y-39816810D01*
X183980500Y-39519687D01*
X184865372Y-39519687D01*
X185420000Y-40074314D01*
X185420001Y-40074314D01*
X185974626Y-39519687D01*
X185897684Y-39480485D01*
X185846888Y-39432512D01*
X185830092Y-39364691D01*
X185852629Y-39298556D01*
X185897683Y-39259515D01*
X185974625Y-39220310D01*
X185938994Y-39184679D01*
X187755601Y-39184679D01*
X187770435Y-39278349D01*
X187770437Y-39278355D01*
X187827956Y-39391241D01*
X187827963Y-39391250D01*
X187917549Y-39480836D01*
X187917553Y-39480839D01*
X188030455Y-39538366D01*
X188124114Y-39553199D01*
X188605599Y-39553199D01*
X189405600Y-39553199D01*
X189887079Y-39553199D01*
X189980749Y-39538364D01*
X189980755Y-39538362D01*
X190093641Y-39480843D01*
X190093650Y-39480836D01*
X190183236Y-39391250D01*
X190183239Y-39391246D01*
X190240766Y-39278344D01*
X190255600Y-39184686D01*
X190255600Y-38703200D01*
X189405600Y-38703200D01*
X189405600Y-39553199D01*
X188605599Y-39553199D01*
X188605600Y-39553198D01*
X188605600Y-38703200D01*
X187755601Y-38703200D01*
X187755601Y-39184679D01*
X185938994Y-39184679D01*
X185420001Y-38665685D01*
X185420000Y-38665685D01*
X184898887Y-39186796D01*
X184983131Y-39292892D01*
X185009403Y-39357634D01*
X184996502Y-39426302D01*
X184948524Y-39477095D01*
X184942314Y-39480486D01*
X184865372Y-39519687D01*
X183980500Y-39519687D01*
X183980500Y-38923188D01*
X184000185Y-38856149D01*
X184004169Y-38850320D01*
X184035051Y-38807816D01*
X184095911Y-38688370D01*
X184143885Y-38637574D01*
X184211706Y-38620779D01*
X184277841Y-38643316D01*
X184285724Y-38652414D01*
X184299687Y-38654626D01*
X184854314Y-38100000D01*
X184854314Y-38099999D01*
X184788489Y-38034174D01*
X184920000Y-38034174D01*
X184920000Y-38165826D01*
X184954075Y-38292993D01*
X185019901Y-38407007D01*
X185112993Y-38500099D01*
X185227007Y-38565925D01*
X185354174Y-38600000D01*
X185485826Y-38600000D01*
X185612993Y-38565925D01*
X185727007Y-38500099D01*
X185820099Y-38407007D01*
X185885925Y-38292993D01*
X185920000Y-38165826D01*
X185920000Y-38099999D01*
X185985685Y-38099999D01*
X185985685Y-38100000D01*
X186540310Y-38654625D01*
X186570415Y-38595543D01*
X186570415Y-38595542D01*
X186570416Y-38595541D01*
X186578419Y-38579834D01*
X186639221Y-38392705D01*
X186663824Y-38237374D01*
X188505600Y-38237374D01*
X188505600Y-38369026D01*
X188539675Y-38496193D01*
X188605501Y-38610207D01*
X188698593Y-38703299D01*
X188812607Y-38769125D01*
X188939774Y-38803200D01*
X189071426Y-38803200D01*
X189198593Y-38769125D01*
X189312607Y-38703299D01*
X189405699Y-38610207D01*
X189471525Y-38496193D01*
X189505600Y-38369026D01*
X189505600Y-38237374D01*
X189471525Y-38110207D01*
X189405699Y-37996193D01*
X189312706Y-37903200D01*
X189405600Y-37903200D01*
X190255599Y-37903200D01*
X190255599Y-37421720D01*
X190240764Y-37328050D01*
X190240762Y-37328044D01*
X190183243Y-37215158D01*
X190183236Y-37215149D01*
X190093650Y-37125563D01*
X190093646Y-37125560D01*
X189980744Y-37068033D01*
X189887086Y-37053200D01*
X189405600Y-37053200D01*
X189405600Y-37903200D01*
X189312706Y-37903200D01*
X189312607Y-37903101D01*
X189198593Y-37837275D01*
X189071426Y-37803200D01*
X188939774Y-37803200D01*
X188812607Y-37837275D01*
X188698593Y-37903101D01*
X188605501Y-37996193D01*
X188539675Y-38110207D01*
X188505600Y-38237374D01*
X186663824Y-38237374D01*
X186670000Y-38198382D01*
X186670000Y-38001617D01*
X186639221Y-37807294D01*
X186578417Y-37620161D01*
X186540311Y-37545373D01*
X186540311Y-37545372D01*
X185985685Y-38099999D01*
X185920000Y-38099999D01*
X185920000Y-38034174D01*
X185885925Y-37907007D01*
X185820099Y-37792993D01*
X185727007Y-37699901D01*
X185612993Y-37634075D01*
X185485826Y-37600000D01*
X185354174Y-37600000D01*
X185227007Y-37634075D01*
X185112993Y-37699901D01*
X185019901Y-37792993D01*
X184954075Y-37907007D01*
X184920000Y-38034174D01*
X184788489Y-38034174D01*
X184299687Y-37545372D01*
X184282426Y-37548106D01*
X184268903Y-37562425D01*
X184259530Y-37564745D01*
X184251911Y-37570677D01*
X184226170Y-37573006D01*
X184201081Y-37579219D01*
X184191940Y-37576103D01*
X184182325Y-37576974D01*
X184159413Y-37565018D01*
X184134947Y-37556680D01*
X184127291Y-37548256D01*
X184120382Y-37544651D01*
X184104341Y-37523005D01*
X184098702Y-37516800D01*
X184097247Y-37514251D01*
X184035051Y-37392184D01*
X184000182Y-37344191D01*
X183996807Y-37338277D01*
X183990246Y-37310639D01*
X183980702Y-37283887D01*
X183980500Y-37276810D01*
X183980500Y-36979687D01*
X184865372Y-36979687D01*
X185420000Y-37534314D01*
X185420001Y-37534314D01*
X185532602Y-37421713D01*
X187755600Y-37421713D01*
X187755600Y-37903200D01*
X188605600Y-37903200D01*
X188605600Y-37053200D01*
X188124120Y-37053200D01*
X188030450Y-37068035D01*
X188030444Y-37068037D01*
X187917558Y-37125556D01*
X187917549Y-37125563D01*
X187827963Y-37215149D01*
X187827960Y-37215153D01*
X187770433Y-37328055D01*
X187755600Y-37421713D01*
X185532602Y-37421713D01*
X185974626Y-36979687D01*
X185897684Y-36940485D01*
X185846888Y-36892512D01*
X185830092Y-36824691D01*
X185852629Y-36758556D01*
X185897683Y-36719515D01*
X185974625Y-36680310D01*
X185420001Y-36125685D01*
X185420000Y-36125685D01*
X184898887Y-36646796D01*
X184983131Y-36752892D01*
X185009403Y-36817634D01*
X184996502Y-36886302D01*
X184948524Y-36937095D01*
X184942314Y-36940486D01*
X184865372Y-36979687D01*
X183980500Y-36979687D01*
X183980500Y-36383188D01*
X184000185Y-36316149D01*
X184004169Y-36310320D01*
X184035051Y-36267816D01*
X184095911Y-36148370D01*
X184143885Y-36097574D01*
X184211706Y-36080779D01*
X184277841Y-36103316D01*
X184285724Y-36112414D01*
X184299687Y-36114626D01*
X184854314Y-35560000D01*
X184854314Y-35559999D01*
X184788489Y-35494174D01*
X184920000Y-35494174D01*
X184920000Y-35625826D01*
X184954075Y-35752993D01*
X185019901Y-35867007D01*
X185112993Y-35960099D01*
X185227007Y-36025925D01*
X185354174Y-36060000D01*
X185485826Y-36060000D01*
X185612993Y-36025925D01*
X185727007Y-35960099D01*
X185820099Y-35867007D01*
X185885925Y-35752993D01*
X185920000Y-35625826D01*
X185920000Y-35559999D01*
X185985685Y-35559999D01*
X185985685Y-35560000D01*
X186540310Y-36114625D01*
X186578418Y-36039835D01*
X186639221Y-35852705D01*
X186670000Y-35658382D01*
X186670000Y-35461617D01*
X186639221Y-35267294D01*
X186578417Y-35080161D01*
X186540311Y-35005373D01*
X186540311Y-35005372D01*
X185985685Y-35559999D01*
X185920000Y-35559999D01*
X185920000Y-35494174D01*
X185885925Y-35367007D01*
X185820099Y-35252993D01*
X185727007Y-35159901D01*
X185612993Y-35094075D01*
X185485826Y-35060000D01*
X185354174Y-35060000D01*
X185227007Y-35094075D01*
X185112993Y-35159901D01*
X185019901Y-35252993D01*
X184954075Y-35367007D01*
X184920000Y-35494174D01*
X184788489Y-35494174D01*
X184299687Y-35005372D01*
X184282426Y-35008106D01*
X184268903Y-35022425D01*
X184201081Y-35039219D01*
X184134947Y-35016680D01*
X184095910Y-34971627D01*
X184087692Y-34955499D01*
X184035051Y-34852184D01*
X184035050Y-34852182D01*
X183910109Y-34680213D01*
X183759786Y-34529890D01*
X183587820Y-34404951D01*
X183587115Y-34404591D01*
X183579054Y-34400485D01*
X183528259Y-34352512D01*
X183511463Y-34284692D01*
X183533999Y-34218556D01*
X183579054Y-34179515D01*
X183587816Y-34175051D01*
X183675655Y-34111233D01*
X183759786Y-34050109D01*
X183759788Y-34050106D01*
X183759792Y-34050104D01*
X183910104Y-33899792D01*
X183910106Y-33899788D01*
X183910109Y-33899786D01*
X184035048Y-33727820D01*
X184035050Y-33727817D01*
X184035051Y-33727816D01*
X184039514Y-33719054D01*
X184087488Y-33668259D01*
X184155308Y-33651463D01*
X184221444Y-33673999D01*
X184260486Y-33719056D01*
X184264951Y-33727820D01*
X184389890Y-33899786D01*
X184540213Y-34050109D01*
X184712182Y-34175050D01*
X184712184Y-34175051D01*
X184751793Y-34195233D01*
X184831627Y-34235910D01*
X184882424Y-34283884D01*
X184899219Y-34351705D01*
X184876682Y-34417840D01*
X184867584Y-34425723D01*
X184865372Y-34439687D01*
X185420000Y-34994314D01*
X185420001Y-34994314D01*
X185974626Y-34439687D01*
X185971892Y-34422429D01*
X185957574Y-34408906D01*
X185940779Y-34341085D01*
X185963317Y-34274950D01*
X186008371Y-34235911D01*
X186042432Y-34218556D01*
X186127816Y-34175051D01*
X186221762Y-34106796D01*
X186299786Y-34050109D01*
X186299788Y-34050106D01*
X186299792Y-34050104D01*
X186450104Y-33899792D01*
X186450106Y-33899788D01*
X186450109Y-33899786D01*
X186575048Y-33727820D01*
X186575050Y-33727817D01*
X186575051Y-33727816D01*
X186579514Y-33719054D01*
X186627488Y-33668259D01*
X186695308Y-33651463D01*
X186761444Y-33673999D01*
X186800486Y-33719056D01*
X186804951Y-33727820D01*
X186929890Y-33899786D01*
X187080213Y-34050109D01*
X187252179Y-34175048D01*
X187252181Y-34175049D01*
X187252184Y-34175051D01*
X187441588Y-34271557D01*
X187643757Y-34337246D01*
X187853713Y-34370500D01*
X187853714Y-34370500D01*
X188066286Y-34370500D01*
X188066287Y-34370500D01*
X188276243Y-34337246D01*
X188478412Y-34271557D01*
X188667816Y-34175051D01*
X188755655Y-34111233D01*
X188839786Y-34050109D01*
X188839788Y-34050106D01*
X188839792Y-34050104D01*
X188990104Y-33899792D01*
X188990106Y-33899788D01*
X188990109Y-33899786D01*
X189115048Y-33727820D01*
X189115050Y-33727817D01*
X189115051Y-33727816D01*
X189119514Y-33719054D01*
X189167488Y-33668259D01*
X189235308Y-33651463D01*
X189301444Y-33673999D01*
X189340486Y-33719056D01*
X189344951Y-33727820D01*
X189469890Y-33899786D01*
X189620213Y-34050109D01*
X189792179Y-34175048D01*
X189792181Y-34175049D01*
X189792184Y-34175051D01*
X189981588Y-34271557D01*
X190183757Y-34337246D01*
X190393713Y-34370500D01*
X190393714Y-34370500D01*
X190606286Y-34370500D01*
X190606287Y-34370500D01*
X190816243Y-34337246D01*
X191018412Y-34271557D01*
X191207816Y-34175051D01*
X191295655Y-34111233D01*
X191379786Y-34050109D01*
X191379788Y-34050106D01*
X191379792Y-34050104D01*
X191530104Y-33899792D01*
X191530106Y-33899788D01*
X191530109Y-33899786D01*
X191655048Y-33727820D01*
X191655050Y-33727817D01*
X191655051Y-33727816D01*
X191659514Y-33719054D01*
X191707488Y-33668259D01*
X191775308Y-33651463D01*
X191841444Y-33673999D01*
X191880486Y-33719056D01*
X191884951Y-33727820D01*
X192009890Y-33899786D01*
X192160213Y-34050109D01*
X192332179Y-34175048D01*
X192332181Y-34175049D01*
X192332184Y-34175051D01*
X192521588Y-34271557D01*
X192723757Y-34337246D01*
X192933713Y-34370500D01*
X192933714Y-34370500D01*
X193146286Y-34370500D01*
X193146287Y-34370500D01*
X193356243Y-34337246D01*
X193558412Y-34271557D01*
X193747816Y-34175051D01*
X193835655Y-34111233D01*
X193919786Y-34050109D01*
X193919788Y-34050106D01*
X193919792Y-34050104D01*
X194070104Y-33899792D01*
X194070106Y-33899788D01*
X194070109Y-33899786D01*
X194195048Y-33727820D01*
X194195050Y-33727817D01*
X194195051Y-33727816D01*
X194199514Y-33719054D01*
X194247488Y-33668259D01*
X194315308Y-33651463D01*
X194381444Y-33673999D01*
X194420486Y-33719056D01*
X194424951Y-33727820D01*
X194549890Y-33899786D01*
X194700213Y-34050109D01*
X194872179Y-34175048D01*
X194872181Y-34175049D01*
X194872184Y-34175051D01*
X195061588Y-34271557D01*
X195263757Y-34337246D01*
X195473713Y-34370500D01*
X195473714Y-34370500D01*
X195686286Y-34370500D01*
X195686287Y-34370500D01*
X195896243Y-34337246D01*
X196098412Y-34271557D01*
X196287816Y-34175051D01*
X196375655Y-34111233D01*
X196459786Y-34050109D01*
X196459788Y-34050106D01*
X196459792Y-34050104D01*
X196610104Y-33899792D01*
X196610106Y-33899788D01*
X196610109Y-33899786D01*
X196735048Y-33727820D01*
X196735050Y-33727817D01*
X196735051Y-33727816D01*
X196831557Y-33538412D01*
X196897246Y-33336243D01*
X196930500Y-33126287D01*
X196930500Y-32913713D01*
X196897246Y-32703757D01*
X196831557Y-32501588D01*
X196735051Y-32312184D01*
X196735049Y-32312181D01*
X196735048Y-32312179D01*
X196610109Y-32140213D01*
X196459786Y-31989890D01*
X196287820Y-31864951D01*
X196098414Y-31768444D01*
X196098413Y-31768443D01*
X196098412Y-31768443D01*
X195896243Y-31702754D01*
X195896241Y-31702753D01*
X195896240Y-31702753D01*
X195721953Y-31675149D01*
X195686287Y-31669500D01*
X195473713Y-31669500D01*
X195438047Y-31675149D01*
X195263760Y-31702753D01*
X195061585Y-31768444D01*
X194872179Y-31864951D01*
X194700213Y-31989890D01*
X194549890Y-32140213D01*
X194424949Y-32312182D01*
X194420484Y-32320946D01*
X194372509Y-32371742D01*
X194304688Y-32388536D01*
X194238553Y-32365998D01*
X194199516Y-32320946D01*
X194195050Y-32312182D01*
X194070109Y-32140213D01*
X193919786Y-31989890D01*
X193747820Y-31864951D01*
X193558414Y-31768444D01*
X193558413Y-31768443D01*
X193558412Y-31768443D01*
X193356243Y-31702754D01*
X193356241Y-31702753D01*
X193356240Y-31702753D01*
X193181953Y-31675149D01*
X193146287Y-31669500D01*
X192933713Y-31669500D01*
X192898047Y-31675149D01*
X192723760Y-31702753D01*
X192521585Y-31768444D01*
X192332179Y-31864951D01*
X192160213Y-31989890D01*
X192009890Y-32140213D01*
X191884949Y-32312182D01*
X191880484Y-32320946D01*
X191832509Y-32371742D01*
X191764688Y-32388536D01*
X191698553Y-32365998D01*
X191659516Y-32320946D01*
X191655050Y-32312182D01*
X191530109Y-32140213D01*
X191379786Y-31989890D01*
X191207820Y-31864951D01*
X191018414Y-31768444D01*
X191018413Y-31768443D01*
X191018412Y-31768443D01*
X190816243Y-31702754D01*
X190816241Y-31702753D01*
X190816240Y-31702753D01*
X190641953Y-31675149D01*
X190606287Y-31669500D01*
X190393713Y-31669500D01*
X190358047Y-31675149D01*
X190183760Y-31702753D01*
X189981585Y-31768444D01*
X189792179Y-31864951D01*
X189620213Y-31989890D01*
X189469890Y-32140213D01*
X189344949Y-32312182D01*
X189340484Y-32320946D01*
X189292509Y-32371742D01*
X189224688Y-32388536D01*
X189158553Y-32365998D01*
X189119516Y-32320946D01*
X189115050Y-32312182D01*
X188990109Y-32140213D01*
X188839786Y-31989890D01*
X188667820Y-31864951D01*
X188478414Y-31768444D01*
X188478413Y-31768443D01*
X188478412Y-31768443D01*
X188276243Y-31702754D01*
X188276241Y-31702753D01*
X188276240Y-31702753D01*
X188101953Y-31675149D01*
X188066287Y-31669500D01*
X187853713Y-31669500D01*
X187818047Y-31675149D01*
X187643760Y-31702753D01*
X187441585Y-31768444D01*
X187252179Y-31864951D01*
X187080213Y-31989890D01*
X186929890Y-32140213D01*
X186804949Y-32312182D01*
X186800484Y-32320946D01*
X186752509Y-32371742D01*
X186684688Y-32388536D01*
X186618553Y-32365998D01*
X186579516Y-32320946D01*
X186575050Y-32312182D01*
X186450109Y-32140213D01*
X186299786Y-31989890D01*
X186127820Y-31864951D01*
X185938414Y-31768444D01*
X185938413Y-31768443D01*
X185938412Y-31768443D01*
X185736243Y-31702754D01*
X185736241Y-31702753D01*
X185736240Y-31702753D01*
X185561953Y-31675149D01*
X185526287Y-31669500D01*
X185313713Y-31669500D01*
X185278047Y-31675149D01*
X185103760Y-31702753D01*
X184901585Y-31768444D01*
X184712179Y-31864951D01*
X184540213Y-31989890D01*
X184389890Y-32140213D01*
X184264949Y-32312182D01*
X184260484Y-32320946D01*
X184212509Y-32371742D01*
X184144688Y-32388536D01*
X184078553Y-32365998D01*
X184039516Y-32320946D01*
X184035050Y-32312182D01*
X183910109Y-32140213D01*
X183759786Y-31989890D01*
X183587820Y-31864951D01*
X183398414Y-31768444D01*
X183398413Y-31768443D01*
X183398412Y-31768443D01*
X183196243Y-31702754D01*
X183196241Y-31702753D01*
X183196240Y-31702753D01*
X183021953Y-31675149D01*
X182986287Y-31669500D01*
X182773713Y-31669500D01*
X182738047Y-31675149D01*
X182563760Y-31702753D01*
X182361585Y-31768444D01*
X182172179Y-31864951D01*
X182000213Y-31989890D01*
X181849890Y-32140213D01*
X181724949Y-32312182D01*
X181720484Y-32320946D01*
X181672509Y-32371742D01*
X181604688Y-32388536D01*
X181538553Y-32365998D01*
X181499516Y-32320946D01*
X181495050Y-32312182D01*
X181370109Y-32140213D01*
X181219786Y-31989890D01*
X181047820Y-31864951D01*
X180858414Y-31768444D01*
X180858413Y-31768443D01*
X180858412Y-31768443D01*
X180656243Y-31702754D01*
X180656241Y-31702753D01*
X180656240Y-31702753D01*
X180481953Y-31675149D01*
X180446287Y-31669500D01*
X180233713Y-31669500D01*
X180198047Y-31675149D01*
X180023760Y-31702753D01*
X179821585Y-31768444D01*
X179632179Y-31864951D01*
X179460213Y-31989890D01*
X179309890Y-32140213D01*
X179184949Y-32312182D01*
X179180484Y-32320946D01*
X179132509Y-32371742D01*
X179064688Y-32388536D01*
X178998553Y-32365998D01*
X178959516Y-32320946D01*
X178955050Y-32312182D01*
X178830109Y-32140213D01*
X178679786Y-31989890D01*
X178507820Y-31864951D01*
X178318414Y-31768444D01*
X178318413Y-31768443D01*
X178318412Y-31768443D01*
X178116243Y-31702754D01*
X178116241Y-31702753D01*
X178116240Y-31702753D01*
X177941953Y-31675149D01*
X177906287Y-31669500D01*
X177693713Y-31669500D01*
X177658047Y-31675149D01*
X177483760Y-31702753D01*
X177281585Y-31768444D01*
X177092179Y-31864951D01*
X176920213Y-31989890D01*
X176769890Y-32140213D01*
X176644949Y-32312182D01*
X176640484Y-32320946D01*
X176592509Y-32371742D01*
X176524688Y-32388536D01*
X176458553Y-32365998D01*
X176419516Y-32320946D01*
X176415050Y-32312182D01*
X176290109Y-32140213D01*
X176139786Y-31989890D01*
X175967820Y-31864951D01*
X175778414Y-31768444D01*
X175778413Y-31768443D01*
X175778412Y-31768443D01*
X175576243Y-31702754D01*
X175576241Y-31702753D01*
X175576240Y-31702753D01*
X175401953Y-31675149D01*
X175366287Y-31669500D01*
X175153713Y-31669500D01*
X175118047Y-31675149D01*
X174943760Y-31702753D01*
X174741585Y-31768444D01*
X174552179Y-31864951D01*
X174380213Y-31989890D01*
X174229890Y-32140213D01*
X174104949Y-32312182D01*
X174100484Y-32320946D01*
X174052509Y-32371742D01*
X173984688Y-32388536D01*
X173918553Y-32365998D01*
X173879516Y-32320946D01*
X173875050Y-32312182D01*
X173750109Y-32140213D01*
X173599786Y-31989890D01*
X173427820Y-31864951D01*
X173238414Y-31768444D01*
X173238413Y-31768443D01*
X173238412Y-31768443D01*
X173036243Y-31702754D01*
X173036241Y-31702753D01*
X173036240Y-31702753D01*
X172861953Y-31675149D01*
X172826287Y-31669500D01*
X172613713Y-31669500D01*
X172578047Y-31675149D01*
X172403760Y-31702753D01*
X172201585Y-31768444D01*
X172012179Y-31864951D01*
X171840213Y-31989890D01*
X171689890Y-32140213D01*
X171564949Y-32312182D01*
X171560484Y-32320946D01*
X171512509Y-32371742D01*
X171444688Y-32388536D01*
X171378553Y-32365998D01*
X171339516Y-32320946D01*
X171335050Y-32312182D01*
X171210109Y-32140213D01*
X171059786Y-31989890D01*
X170887820Y-31864951D01*
X170698414Y-31768444D01*
X170698413Y-31768443D01*
X170698412Y-31768443D01*
X170496243Y-31702754D01*
X170496241Y-31702753D01*
X170496240Y-31702753D01*
X170321953Y-31675149D01*
X170286287Y-31669500D01*
X170073713Y-31669500D01*
X170038047Y-31675149D01*
X169863760Y-31702753D01*
X169661585Y-31768444D01*
X169472179Y-31864951D01*
X169300213Y-31989890D01*
X169149890Y-32140213D01*
X169024949Y-32312182D01*
X169020484Y-32320946D01*
X168972509Y-32371742D01*
X168904688Y-32388536D01*
X168838553Y-32365998D01*
X168799516Y-32320946D01*
X168795050Y-32312182D01*
X168670109Y-32140213D01*
X168519786Y-31989890D01*
X168347820Y-31864951D01*
X168158414Y-31768444D01*
X168158413Y-31768443D01*
X168158412Y-31768443D01*
X167956243Y-31702754D01*
X167956241Y-31702753D01*
X167956240Y-31702753D01*
X167781953Y-31675149D01*
X167746287Y-31669500D01*
X167533713Y-31669500D01*
X167498047Y-31675149D01*
X167323760Y-31702753D01*
X167121585Y-31768444D01*
X166932179Y-31864951D01*
X166760213Y-31989890D01*
X166609890Y-32140213D01*
X166484949Y-32312182D01*
X166480484Y-32320946D01*
X166432509Y-32371742D01*
X166364688Y-32388536D01*
X166298553Y-32365998D01*
X166259516Y-32320946D01*
X166255050Y-32312182D01*
X166130109Y-32140213D01*
X165979786Y-31989890D01*
X165807820Y-31864951D01*
X165618414Y-31768444D01*
X165618413Y-31768443D01*
X165618412Y-31768443D01*
X165416243Y-31702754D01*
X165416241Y-31702753D01*
X165416240Y-31702753D01*
X165241953Y-31675149D01*
X165206287Y-31669500D01*
X164993713Y-31669500D01*
X164958047Y-31675149D01*
X164783760Y-31702753D01*
X164581585Y-31768444D01*
X164392179Y-31864951D01*
X164220213Y-31989890D01*
X164069890Y-32140213D01*
X163944951Y-32312180D01*
X163884088Y-32431630D01*
X163836113Y-32482426D01*
X163768292Y-32499221D01*
X163702157Y-32476683D01*
X163694273Y-32467584D01*
X163680311Y-32465372D01*
X163125685Y-33019999D01*
X163060000Y-33019999D01*
X163060000Y-32954174D01*
X163025925Y-32827007D01*
X162960099Y-32712993D01*
X162867007Y-32619901D01*
X162752993Y-32554075D01*
X162625826Y-32520000D01*
X162494174Y-32520000D01*
X162367007Y-32554075D01*
X162252993Y-32619901D01*
X162159901Y-32712993D01*
X162094075Y-32827007D01*
X162060000Y-32954174D01*
X161928489Y-32954174D01*
X161439687Y-32465372D01*
X161422426Y-32468106D01*
X161408903Y-32482425D01*
X161341081Y-32499219D01*
X161274947Y-32476680D01*
X161235910Y-32431627D01*
X161232079Y-32424109D01*
X161175051Y-32312184D01*
X161175050Y-32312182D01*
X161050109Y-32140213D01*
X160899786Y-31989890D01*
X160775631Y-31899687D01*
X162005373Y-31899687D01*
X162560000Y-32454314D01*
X162560001Y-32454314D01*
X163114626Y-31899687D01*
X163039840Y-31861583D01*
X163039830Y-31861579D01*
X162852705Y-31800778D01*
X162658382Y-31770000D01*
X162461618Y-31770000D01*
X162267294Y-31800778D01*
X162267293Y-31800778D01*
X162080170Y-31861578D01*
X162005373Y-31899687D01*
X160775631Y-31899687D01*
X160727820Y-31864951D01*
X160538414Y-31768444D01*
X160538413Y-31768443D01*
X160538412Y-31768443D01*
X160336243Y-31702754D01*
X160336241Y-31702753D01*
X160336240Y-31702753D01*
X160161953Y-31675149D01*
X160126287Y-31669500D01*
X159913713Y-31669500D01*
X159878047Y-31675149D01*
X159703760Y-31702753D01*
X159501585Y-31768444D01*
X159312179Y-31864951D01*
X159140213Y-31989890D01*
X158989890Y-32140213D01*
X158864951Y-32312179D01*
X158768444Y-32501585D01*
X158702753Y-32703760D01*
X158669500Y-32913713D01*
X158669500Y-33126286D01*
X158694203Y-33282259D01*
X158702754Y-33336243D01*
X158726522Y-33409394D01*
X158768444Y-33538414D01*
X158864949Y-33727817D01*
X158879296Y-33747564D01*
X158895817Y-33770303D01*
X158919298Y-33836107D01*
X158919500Y-33843188D01*
X158919500Y-34736810D01*
X158899815Y-34803849D01*
X158895819Y-34809694D01*
X158864949Y-34852183D01*
X158864948Y-34852185D01*
X158768444Y-35041585D01*
X158702753Y-35243760D01*
X158669500Y-35453713D01*
X158669500Y-35666287D01*
X158669499Y-35666287D01*
X158693227Y-35816099D01*
X158684272Y-35885392D01*
X158639276Y-35938844D01*
X158572524Y-35959483D01*
X158505210Y-35940758D01*
X158483073Y-35923177D01*
X158359786Y-35799890D01*
X158187820Y-35674951D01*
X157998414Y-35578444D01*
X157998413Y-35578443D01*
X157998412Y-35578443D01*
X157796243Y-35512754D01*
X157796241Y-35512753D01*
X157796240Y-35512753D01*
X157634957Y-35487208D01*
X157586287Y-35479500D01*
X157373713Y-35479500D01*
X157325042Y-35487208D01*
X157163760Y-35512753D01*
X156961585Y-35578444D01*
X156772179Y-35674951D01*
X156600213Y-35799890D01*
X156449894Y-35950209D01*
X156449893Y-35950211D01*
X156412694Y-36001410D01*
X156357364Y-36044075D01*
X156287750Y-36050053D01*
X156225956Y-36017446D01*
X156191599Y-35956607D01*
X156189903Y-35947919D01*
X156175164Y-35854850D01*
X156175162Y-35854844D01*
X156117643Y-35741958D01*
X156117636Y-35741949D01*
X156028050Y-35652363D01*
X156028046Y-35652360D01*
X155915144Y-35594833D01*
X155821486Y-35580000D01*
X155340000Y-35580000D01*
X155340000Y-36522894D01*
X155247007Y-36429901D01*
X155132993Y-36364075D01*
X155005826Y-36330000D01*
X154874174Y-36330000D01*
X154747007Y-36364075D01*
X154632993Y-36429901D01*
X154539901Y-36522993D01*
X154474075Y-36637007D01*
X154440000Y-36764174D01*
X150500499Y-36764174D01*
X150500499Y-35948513D01*
X153690000Y-35948513D01*
X153690000Y-36430000D01*
X154540000Y-36430000D01*
X154540000Y-35580000D01*
X154058520Y-35580000D01*
X153964850Y-35594835D01*
X153964844Y-35594837D01*
X153851958Y-35652356D01*
X153851949Y-35652363D01*
X153762363Y-35741949D01*
X153762360Y-35741953D01*
X153704833Y-35854855D01*
X153690000Y-35948513D01*
X150500499Y-35948513D01*
X150500499Y-33203734D01*
X150500725Y-33196262D01*
X150500840Y-33194354D01*
X150507439Y-33085258D01*
X151049499Y-33085258D01*
X151049499Y-33314741D01*
X151071474Y-33481650D01*
X151079451Y-33542238D01*
X151126829Y-33719056D01*
X151138841Y-33763887D01*
X151226649Y-33975876D01*
X151226655Y-33975888D01*
X151338092Y-34168904D01*
X151341391Y-34174617D01*
X151481080Y-34356661D01*
X151481088Y-34356670D01*
X151643329Y-34518911D01*
X151643337Y-34518918D01*
X151643338Y-34518919D01*
X151657646Y-34529898D01*
X151825381Y-34658607D01*
X151825384Y-34658608D01*
X151825387Y-34658611D01*
X152024111Y-34773344D01*
X152024116Y-34773346D01*
X152024122Y-34773349D01*
X152068713Y-34791819D01*
X152236112Y-34861158D01*
X152457761Y-34920548D01*
X152685265Y-34950500D01*
X152685272Y-34950500D01*
X152914726Y-34950500D01*
X152914733Y-34950500D01*
X153142237Y-34920548D01*
X153363886Y-34861158D01*
X153575887Y-34773344D01*
X153774611Y-34658611D01*
X153956660Y-34518919D01*
X153956664Y-34518914D01*
X153956669Y-34518911D01*
X154118910Y-34356670D01*
X154118913Y-34356665D01*
X154118918Y-34356661D01*
X154258610Y-34174612D01*
X154373343Y-33975888D01*
X154461157Y-33763887D01*
X154520547Y-33542238D01*
X154550499Y-33314734D01*
X154550499Y-33085266D01*
X154520547Y-32857762D01*
X154461157Y-32636113D01*
X154405435Y-32501588D01*
X154373348Y-32424123D01*
X154373345Y-32424117D01*
X154373343Y-32424112D01*
X154258610Y-32225388D01*
X154258607Y-32225385D01*
X154258606Y-32225382D01*
X154118917Y-32043338D01*
X154118910Y-32043330D01*
X153956669Y-31881089D01*
X153956660Y-31881081D01*
X153774616Y-31741392D01*
X153575889Y-31626657D01*
X153575875Y-31626650D01*
X153363886Y-31538842D01*
X153142237Y-31479452D01*
X153102155Y-31474175D01*
X152914740Y-31449500D01*
X152914733Y-31449500D01*
X152685265Y-31449500D01*
X152685257Y-31449500D01*
X152468714Y-31478009D01*
X152457761Y-31479452D01*
X152440396Y-31484105D01*
X152236111Y-31538842D01*
X152024122Y-31626650D01*
X152024108Y-31626657D01*
X151825381Y-31741392D01*
X151643337Y-31881081D01*
X151481080Y-32043338D01*
X151341391Y-32225382D01*
X151226656Y-32424109D01*
X151226649Y-32424123D01*
X151138841Y-32636112D01*
X151079452Y-32857759D01*
X151079450Y-32857770D01*
X151049499Y-33085258D01*
X150507439Y-33085258D01*
X150516812Y-32930307D01*
X150518617Y-32915447D01*
X150549391Y-32747516D01*
X150565967Y-32657064D01*
X150569550Y-32642530D01*
X150571857Y-32635127D01*
X150647697Y-32391746D01*
X150653001Y-32377759D01*
X150760821Y-32138194D01*
X150767766Y-32124961D01*
X150903676Y-31900139D01*
X150912163Y-31887843D01*
X151074182Y-31681041D01*
X151084097Y-31669850D01*
X151269850Y-31484097D01*
X151281041Y-31474182D01*
X151487843Y-31312163D01*
X151500139Y-31303676D01*
X151724961Y-31167766D01*
X151738194Y-31160821D01*
X151977759Y-31053001D01*
X151991746Y-31047697D01*
X152242531Y-30969549D01*
X152257064Y-30965967D01*
X152515450Y-30918616D01*
X152530307Y-30916812D01*
X152796246Y-30900725D01*
X152803733Y-30900500D01*
X152875882Y-30900500D01*
X152875894Y-30900499D01*
X214709441Y-30900499D01*
X214734106Y-30900499D01*
X214734107Y-30900500D01*
G37*
%TD.AperFunction*%
%TD*%
M02*
